STARTFONT 2.1
COMMENT
COMMENT Converted from OpenType font "RacingSansOne-Regular.ttf" by "otf2bdf 3.0".
COMMENT
FONT -FreeType-Racing Sans One-Medium-R-Normal--40-290-100-100-P-223-ISO10646-1
SIZE 29 100 100
FONTBOUNDINGBOX 58 52 -8 -12
STARTPROPERTIES 19
FOUNDRY "FreeType"
FAMILY_NAME "Racing Sans One"
WEIGHT_NAME "Medium"
SLANT "R"
SETWIDTH_NAME "Normal"
ADD_STYLE_NAME ""
PIXEL_SIZE 40
POINT_SIZE 290
RESOLUTION_X 100
RESOLUTION_Y 100
SPACING "P"
AVERAGE_WIDTH 223
CHARSET_REGISTRY "ISO10646"
CHARSET_ENCODING "1"
FONT_ASCENT 39
FONT_DESCENT 11
COPYRIGHT "Copyright (c) 2012, Pablo Impallari (www.impallari.com|impallari@gmail.com) and Rodrigo Fuenzalida (www.rfuenzalida.com), with Reserved Font Name Racing Sans."
_OTF_FONTFILE "RacingSansOne-Regular.ttf"
_OTF_PSNAME "RacingSansOne-Regular"
ENDPROPERTIES
CHARS 441
STARTCHAR 0020
ENCODING 32
SWIDTH 198 0
DWIDTH 8 0
BBX 0 0 0 0
BITMAP
ENDCHAR
STARTCHAR 0021
ENCODING 33
SWIDTH 297 0
DWIDTH 12 0
BBX 12 28 1 0
BITMAP
0FF0
0FF0
0FF0
0FF0
0FE0
1FE0
1FE0
1FC0
1FC0
1FC0
1FC0
1F80
1F80
3F80
3F80
3F00
3F00
3F00
3E00
0000
0000
3C00
7E00
FE00
FF00
FE00
FE00
7C00
ENDCHAR
STARTCHAR 0022
ENCODING 34
SWIDTH 446 0
DWIDTH 18 0
BBX 17 11 3 16
BITMAP
3F1F80
3F1F80
3E1F00
3E3F00
7E3F00
7C3E00
7C3E00
7C3C00
783C00
783C00
F87800
ENDCHAR
STARTCHAR 0023
ENCODING 35
SWIDTH 670 0
DWIDTH 27 0
BBX 26 25 1 0
BITMAP
00701C00
00F03C00
00F03C00
00E03800
00E03800
3FFFFFC0
3FFFFFC0
3FFFFFC0
3FFFFFC0
01C07000
03C0F000
03C0F000
0380F000
0380E000
0781E000
FFFFFF00
FFFFFF00
FFFFFF00
FFFFFF00
0F03C000
0F03C000
0F03C000
0E038000
1E078000
1E078000
ENDCHAR
STARTCHAR 0024
ENCODING 36
SWIDTH 595 0
DWIDTH 24 0
BBX 20 34 2 -4
BITMAP
000F00
000F00
001F00
007F80
03FFF0
0FFFF0
1FE070
3F8010
7F8000
7F8000
7F8000
7F8000
7FE000
7FFC00
7FFF80
7FFFE0
3FFFE0
1FFFF0
07FFF0
00FFF0
003FF0
001FF0
000FF0
000FF0
000FF0
801FE0
F03FC0
FFFF80
FFFE00
1FF000
03C000
07C000
07C000
078000
ENDCHAR
STARTCHAR 0025
ENCODING 37
SWIDTH 720 0
DWIDTH 29 0
BBX 24 26 3 0
BITMAP
0F803C
3FE078
7DE078
79E0F0
F9E1E0
F1E1E0
F3E3C0
F3C780
7F8780
3E0F00
001F00
001E00
003C00
003C00
007800
00F878
00F1FE
01E3CE
03E7CF
03C78F
07879F
0F879F
0F079E
1F07BE
1E07FC
3C03F0
ENDCHAR
STARTCHAR 0026
ENCODING 38
SWIDTH 695 0
DWIDTH 28 0
BBX 26 26 0 0
BITMAP
0007F000
001FFC00
007FFE00
00FE1E00
00FE0E00
00FF0E00
00FF0E00
00FF9E00
00FFFC00
00FFF800
00FFE000
07FFE380
1FFFF700
3FBFF700
7F1FFF00
7F1FFE00
FF0FFC00
FF0FFC00
FF07FE00
FF87FE00
FF87FF00
FFE7FF00
7FFFFF80
3FFFFF80
1FFDFFC0
07F0FFC0
ENDCHAR
STARTCHAR 0027
ENCODING 39
SWIDTH 223 0
DWIDTH 9 0
BBX 8 11 3 16
BITMAP
3F
3F
3E
3E
7C
7C
78
78
78
70
F0
ENDCHAR
STARTCHAR 0028
ENCODING 40
SWIDTH 297 0
DWIDTH 12 0
BBX 14 32 1 -3
BITMAP
0008
001C
0078
00F8
01F0
03E0
07E0
07C0
0FC0
1F80
1F80
3F00
3F00
7E00
7E00
7E00
7E00
FC00
FC00
FC00
FC00
FC00
FC00
7C00
7C00
7C00
3E00
3E00
1E00
0F00
0780
0200
ENDCHAR
STARTCHAR 0029
ENCODING 41
SWIDTH 297 0
DWIDTH 12 0
BBX 14 32 -2 -3
BITMAP
0100
0380
03C0
01E0
01F0
00F8
00F8
00F8
00FC
00FC
00FC
00FC
00FC
00FC
00FC
00FC
00FC
01F8
01F8
01F8
03F0
03F0
07E0
07C0
0FC0
0F80
1F00
3E00
3C00
7800
F000
4000
ENDCHAR
STARTCHAR 002A
ENCODING 42
SWIDTH 273 0
DWIDTH 11 0
BBX 8 8 4 19
BITMAP
0C
49
6F
FE
7E
FF
9A
30
ENDCHAR
STARTCHAR 002B
ENCODING 43
SWIDTH 446 0
DWIDTH 18 0
BBX 17 17 1 4
BITMAP
00F000
00F000
00F000
01F000
01E000
01E000
7FFF80
7FFF80
7FFF80
FFFF00
03C000
03C000
03C000
07C000
078000
078000
078000
ENDCHAR
STARTCHAR 002C
ENCODING 44
SWIDTH 273 0
DWIDTH 11 0
BBX 9 13 -1 -6
BITMAP
1E00
3F00
7F80
7F80
7F80
3F80
1F00
1F00
1E00
3C00
7800
F000
4000
ENDCHAR
STARTCHAR 002D
ENCODING 45
SWIDTH 422 0
DWIDTH 17 0
BBX 14 4 1 7
BITMAP
7FFC
7FF8
FFF8
FFF8
ENDCHAR
STARTCHAR 002E
ENCODING 46
SWIDTH 273 0
DWIDTH 11 0
BBX 8 7 0 0
BITMAP
3E
7F
FF
FF
FF
FE
3C
ENDCHAR
STARTCHAR 002F
ENCODING 47
SWIDTH 347 0
DWIDTH 14 0
BBX 17 26 -1 0
BITMAP
000380
000780
000F00
000F00
001E00
001E00
003C00
003C00
007800
007800
00F000
00E000
01E000
01C000
03C000
078000
078000
0F0000
0F0000
1E0000
1E0000
3C0000
3C0000
780000
780000
F00000
ENDCHAR
STARTCHAR 0030
ENCODING 48
SWIDTH 670 0
DWIDTH 27 0
BBX 24 26 2 0
BITMAP
003FC0
01FFF0
03FFFC
0FF9FC
1FF1FE
1FE1FE
3FE1FF
3FC1FF
7FC1FF
7FC1FF
FF81FF
FF81FF
FF81FF
FF81FF
FF83FF
FF03FE
FF03FE
FF03FE
FF07FC
FF07FC
FF07F8
7F0FF0
7F9FF0
3FFFC0
1FFF80
07FC00
ENDCHAR
STARTCHAR 0031
ENCODING 49
SWIDTH 397 0
DWIDTH 16 0
BBX 15 26 2 0
BITMAP
00FE
01FC
03FC
0FFC
7FFC
7FFC
FFF8
0FF8
0FF8
0FF8
0FF8
0FF0
1FF0
1FF0
1FF0
1FE0
1FE0
3FE0
3FE0
3FE0
3FC0
3FC0
7FC0
7FC0
7FC0
7F80
ENDCHAR
STARTCHAR 0032
ENCODING 50
SWIDTH 595 0
DWIDTH 24 0
BBX 23 26 0 0
BITMAP
003FC0
00FFF0
03FFF8
0FF1FC
0FF1FE
1FE1FE
1FE1FE
1FC1FE
1FC1FE
3FC1FE
0001FE
0003FC
0003FC
0007F8
0007F0
000FE0
001FC0
003F00
00FE00
01F800
07FFF8
3FFFF8
7FFFF8
FFFFF8
FFFFF8
FFFFF8
ENDCHAR
STARTCHAR 0033
ENCODING 51
SWIDTH 595 0
DWIDTH 24 0
BBX 23 26 0 0
BITMAP
003FE0
01FFF8
07FFFC
0FF1FE
0FF1FE
0FE0FE
0FE1FE
1FC1FE
0001FE
0003FC
0007F8
001FF0
003F80
003FF0
000FF8
0007FC
0007FC
7F07FC
7F07FC
7F07FC
7F07FC
FF0FF8
FF1FF0
7FFFE0
1FFF80
07FC00
ENDCHAR
STARTCHAR 0034
ENCODING 52
SWIDTH 595 0
DWIDTH 24 0
BBX 23 26 0 0
BITMAP
000FFE
000FFE
001FFE
003FFC
007FFC
00FFFC
01F7FC
01E7FC
03E7F8
07CFF8
0F8FF8
1F0FF8
3E0FF8
3E0FF0
7C1FF0
781FF0
FFFFFE
FFFFFE
FFFFFE
003FE0
003FE0
003FE0
003FC0
003FC0
007FC0
007FC0
ENDCHAR
STARTCHAR 0035
ENCODING 53
SWIDTH 571 0
DWIDTH 23 0
BBX 22 26 0 0
BITMAP
07FFFC
07FFFC
07FFF8
07FFF8
07FFF8
0FFFF8
0F8000
0F8000
0FBF80
1FFFC0
1FFFF0
1FDFF0
1F0FF8
1F07F8
0007F8
0007F8
0007F8
7F07F8
7E07F8
7E07F8
FE0FF0
FF0FF0
FF1FE0
7FFF80
3FFF00
07F800
ENDCHAR
STARTCHAR 0036
ENCODING 54
SWIDTH 620 0
DWIDTH 25 0
BBX 22 26 2 0
BITMAP
003FE0
00FFFC
03FFFC
07F3FC
0FE1F8
1FE1F8
3FC1F8
3FC000
7FC000
7F8380
FF9FE0
FFBFF0
FFFFF8
FFC7F8
FF87F8
FF87F8
FF07F8
FF07F8
FF0FF8
FF0FF8
FF0FF8
7F1FF0
7F1FE0
3FFFC0
1FFF80
07FC00
ENDCHAR
STARTCHAR 0037
ENCODING 55
SWIDTH 521 0
DWIDTH 21 0
BBX 21 26 3 0
BITMAP
7FFFF8
7FFFF8
FFFFF0
FFFFF0
FFFFE0
FFFFC0
001F00
003F00
007E00
00FC00
01F800
03F800
07F000
07F000
0FE000
0FE000
1FE000
1FE000
3FC000
3FC000
3FC000
3FC000
7FC000
7FC000
7FC000
7FC000
ENDCHAR
STARTCHAR 0038
ENCODING 56
SWIDTH 620 0
DWIDTH 25 0
BBX 23 26 1 0
BITMAP
007FC0
03FFF0
07FFF8
0FF1FC
1FE1FC
1FC1FC
3FC1FE
3FC3FC
1FC3FC
1FC7F8
0FFFF0
07FFC0
1FFFF0
3FC7F8
7FC7F8
7F87FC
FF87FC
FF87FC
FF87FC
FF87FC
FF87F8
FF8FF8
7F8FF0
3FFFE0
1FFF80
07FC00
ENDCHAR
STARTCHAR 0039
ENCODING 57
SWIDTH 620 0
DWIDTH 25 0
BBX 23 26 1 0
BITMAP
007F80
03FFE0
07FFF8
0FF1F8
1FE1FC
3FE1FC
3FC1FE
3FC1FE
7FC1FE
7FC3FE
7FC3FE
7FC7FE
3FCFFE
3FFFFE
1FFBFE
0FE3FC
0107FC
0007FC
0007F8
7F0FF8
7F0FF0
7F1FE0
7F1FC0
FFFF80
FFFE00
1FF800
ENDCHAR
STARTCHAR 003A
ENCODING 58
SWIDTH 273 0
DWIDTH 11 0
BBX 10 17 0 0
BITMAP
0F00
1F80
1FC0
3FC0
3FC0
1F80
0F00
0000
0000
0000
3C00
7E00
7F00
FF00
FF00
7E00
3C00
ENDCHAR
STARTCHAR 003B
ENCODING 59
SWIDTH 273 0
DWIDTH 11 0
BBX 11 22 -1 -6
BITMAP
0780
0FC0
1FE0
1FE0
1FE0
0FC0
0780
0000
0000
0000
1E00
3F00
7F80
7F80
3F80
1F80
1F00
1E00
1E00
3C00
F000
6000
ENDCHAR
STARTCHAR 003C
ENCODING 60
SWIDTH 397 0
DWIDTH 16 0
BBX 15 17 1 4
BITMAP
003E
0078
01F0
03E0
07C0
0F80
1F00
3E00
FC00
7C00
3E00
1F00
0F80
0F80
07C0
03E0
01F0
ENDCHAR
STARTCHAR 003D
ENCODING 61
SWIDTH 422 0
DWIDTH 17 0
BBX 15 10 1 7
BITMAP
3FFE
3FFE
3FFC
0000
0000
0000
0000
7FF8
FFF8
FFF8
ENDCHAR
STARTCHAR 003E
ENCODING 62
SWIDTH 397 0
DWIDTH 16 0
BBX 14 17 1 4
BITMAP
1F00
0F80
07C0
03C0
03E0
01F0
00F8
007C
007C
00F8
01F0
03E0
07C0
0F80
1E00
3C00
F800
ENDCHAR
STARTCHAR 003F
ENCODING 63
SWIDTH 521 0
DWIDTH 21 0
BBX 19 28 3 0
BITMAP
07FC00
1FFF00
7FFFC0
7F1FC0
7F1FE0
7E1FE0
FE1FE0
FC1FE0
FC1FE0
003FC0
007FC0
00FF80
01FF00
07FC00
07F000
07E000
0FE000
0FC000
0FC000
000000
000000
0F8000
1FC000
1FC000
3FC000
1FC000
1F8000
0F0000
ENDCHAR
STARTCHAR 0040
ENCODING 64
SWIDTH 744 0
DWIDTH 30 0
BBX 27 26 1 -5
BITMAP
000FC000
00FFF800
03FFFE00
07E03F00
0F800F80
1E0003C0
3C0003C0
3C3C79E0
787EF1E0
78FFF0E0
70F9F0E0
F1F1F0E0
F1F1F0E0
F1F1E0E0
F1F3E0E0
F1E3E1E0
F1F3E3C0
F1FEFF80
F0FCFF00
78787E00
78000000
3C000000
3F010000
1FFE0000
07FE0000
01FE0000
ENDCHAR
STARTCHAR 0041
ENCODING 65
SWIDTH 595 0
DWIDTH 24 0
BBX 24 26 -2 0
BITMAP
000FF8
001FFC
001FFC
003FFC
003FFC
007FFC
007FFC
0077FC
00F7FC
00E7FC
01E7FE
01E3FE
03C3FE
03C3FE
0783FE
0783FE
0F03FE
0FFFFE
0FFFFE
1FFFFE
1E03FF
3C03FF
3C03FF
7801FF
7801FF
F001FF
ENDCHAR
STARTCHAR 0042
ENCODING 66
SWIDTH 620 0
DWIDTH 25 0
BBX 25 26 0 0
BITMAP
07FFF000
07FFFC00
07FFFE00
07F8FF00
0FF87F00
0FF87F00
0FF87F80
0FF87F00
0FF0FF00
1FF0FE00
1FF1FE00
1FFFF800
1FFFF800
1FFFFC00
3FE3FE00
3FE1FE00
3FE1FF00
3FC1FF00
3FC1FF00
7FC1FE00
7FC3FE00
7FC3FE00
7F87FC00
7FFFF800
FFFFE000
FFFF0000
ENDCHAR
STARTCHAR 0043
ENCODING 67
SWIDTH 645 0
DWIDTH 26 0
BBX 25 26 1 0
BITMAP
001FF000
007FFE00
01FFFF80
07FC7F80
0FF87F80
0FF07F80
1FF07F80
3FE07F00
3FE07F00
7FE07F00
7FC00000
7FC00000
7FC00000
FFC00000
FFC00000
FFC00000
FF80FE00
FF81FE00
7F81FE00
7F81FC00
7F83FC00
3F83FC00
3FC7FC00
1FFFFC00
07FFF000
01FF0000
ENDCHAR
STARTCHAR 0044
ENCODING 68
SWIDTH 645 0
DWIDTH 26 0
BBX 26 26 0 0
BITMAP
07FFF000
07FFFE00
07FFFF00
07F87F80
0FF83F80
0FF83F80
0FF83FC0
0FF83FC0
0FF07FC0
1FF07FC0
1FF07FC0
1FF07FC0
1FE07FC0
1FE07FC0
3FE0FFC0
3FE0FF80
3FE0FF80
3FC0FF80
3FC1FF00
7FC1FF00
7FC3FE00
7FC3FC00
7F87F800
7FFFF000
FFFFE000
FFFF0000
ENDCHAR
STARTCHAR 0045
ENCODING 69
SWIDTH 496 0
DWIDTH 20 0
BBX 22 26 0 0
BITMAP
07FFFC
07FFFC
07FFFC
07F800
0FF800
0FF800
0FF800
0FF800
0FF000
1FF000
1FF000
1FFFE0
1FFFC0
1FFFC0
3FE000
3FE000
3FE000
3FC000
3FC000
7FC000
7FC000
7FC000
7F8000
7FFF80
FFFF80
FFFF80
ENDCHAR
STARTCHAR 0046
ENCODING 70
SWIDTH 496 0
DWIDTH 20 0
BBX 22 26 0 0
BITMAP
07FFFC
07FFFC
07FFFC
07F800
0FF800
0FF800
0FF800
0FF800
0FF000
1FF000
1FF000
1FFFE0
1FFFC0
1FFFC0
3FE000
3FE000
3FE000
3FC000
3FC000
7FC000
7FC000
7FC000
7F8000
7F8000
FF8000
FF8000
ENDCHAR
STARTCHAR 0047
ENCODING 71
SWIDTH 645 0
DWIDTH 26 0
BBX 25 26 1 0
BITMAP
001FF000
00FFFE00
01FFFF80
07FC7F80
0FF87F80
1FF07F00
1FF07F00
3FE07F00
3FE07F00
7FE07F00
7FE00000
7FC00000
7FC00000
FFC00000
FFC7FF00
FFC7FE00
FFC7FE00
7F80FE00
7F80FE00
7F81FE00
7F81FC00
3FC3FC00
3FC7FC00
1FFEFC00
0FFCFC00
03F8F800
ENDCHAR
STARTCHAR 0048
ENCODING 72
SWIDTH 670 0
DWIDTH 27 0
BBX 28 26 0 0
BITMAP
07FC1FF0
07FC1FE0
07FC3FE0
07F83FE0
0FF83FE0
0FF83FE0
0FF83FC0
0FF87FC0
0FF07FC0
1FF07FC0
1FF07F80
1FFFFF80
1FFFFF80
1FFFFF80
3FE0FF80
3FE0FF00
3FE1FF00
3FC1FF00
3FC1FF00
7FC1FF00
7FC1FE00
7FC3FE00
7F83FE00
7F83FE00
FF83FE00
FF83FC00
ENDCHAR
STARTCHAR 0049
ENCODING 73
SWIDTH 322 0
DWIDTH 13 0
BBX 14 26 0 0
BITMAP
07FC
07FC
07FC
07F8
0FF8
0FF8
0FF8
0FF8
0FF0
1FF0
1FF0
1FF0
1FE0
1FE0
3FE0
3FE0
3FE0
3FC0
3FC0
7FC0
7FC0
7FC0
7F80
7F80
FF80
FF80
ENDCHAR
STARTCHAR 004A
ENCODING 74
SWIDTH 595 0
DWIDTH 24 0
BBX 26 26 -1 0
BITMAP
00007FC0
00007F80
00007F80
0000FF80
0000FF80
0000FF80
0000FF00
0000FF00
0001FF00
0001FF00
0001FF00
0001FE00
0003FE00
0003FE00
0003FE00
0003FE00
7F83FC00
7F87FC00
7F87FC00
7F87FC00
7F07F800
FF8FF800
7F8FF000
3FFFE000
1FFF8000
03FE0000
ENDCHAR
STARTCHAR 004B
ENCODING 75
SWIDTH 595 0
DWIDTH 24 0
BBX 26 26 0 0
BITMAP
07FC07C0
07FC0F80
07FC1F00
07F81E00
0FF83C00
0FF87800
0FF8F000
0FF9E000
0FF3C000
1FF7C000
1FFF8000
1FFFC000
1FFFC000
1FFFC000
3FFFE000
3FFFE000
3FEFF000
3FCFF000
3FCFF000
7FC7F800
7FC7F800
7FC7FC00
7F87FC00
7F83FC00
FF83FE00
FF83FE00
ENDCHAR
STARTCHAR 004C
ENCODING 76
SWIDTH 471 0
DWIDTH 19 0
BBX 17 26 0 0
BITMAP
07FC00
07FC00
07FC00
07F800
0FF800
0FF800
0FF800
0FF800
0FF000
1FF000
1FF000
1FF000
1FF000
1FE000
3FE000
3FE000
3FE000
3FC000
3FC000
7FC000
7FC000
7FC000
7F8000
7FFF80
FFFF80
FFFF80
ENDCHAR
STARTCHAR 004D
ENCODING 77
SWIDTH 844 0
DWIDTH 34 0
BBX 35 26 0 0
BITMAP
07FF00FFE0
07FF00FFC0
07FF01FFC0
07FF01FFC0
0FFF03FFC0
0FFF03FFC0
0FFF07FF80
0FFF07FF80
0EFF0FFF80
1EFF0FFF80
1EFF1EFF80
1EFF9DFF00
1CFFBDFF00
1CFFF9FF00
3CFFF9FF00
3CFFF1FF00
3CFFF3FE00
38FFE3FE00
38FFE3FE00
787FC3FE00
787FC3FE00
787F87FC00
707F87FC00
707F07FC00
F07F07FC00
F07E0FF800
ENDCHAR
STARTCHAR 004E
ENCODING 78
SWIDTH 645 0
DWIDTH 26 0
BBX 27 26 0 0
BITMAP
07FE01E0
07FE01C0
07FF01C0
07FF03C0
0FFF03C0
0FFF03C0
0FFF0380
0EFF8380
0EFF8780
1EFF8780
1EFF8780
1E7F8700
1C7FC700
1C7FCF00
3C7FCF00
3C7FCF00
3C3FEE00
383FFE00
383FFE00
783FFE00
781FFC00
781FFC00
701FFC00
701FFC00
F00FFC00
F00FF800
ENDCHAR
STARTCHAR 004F
ENCODING 79
SWIDTH 670 0
DWIDTH 27 0
BBX 26 26 1 0
BITMAP
001FF000
00FFFC00
03FFFF00
07FC7F00
0FF87F80
1FF07F80
1FF07FC0
3FE07FC0
3FE07FC0
7FE07FC0
7FC07FC0
7FC07FC0
7FC07FC0
FFC0FFC0
FFC0FFC0
FF80FF80
FF80FF80
FF81FF80
7F81FF00
7F83FF00
7F83FE00
7F87FC00
3FC7F800
1FFFF000
0FFFE000
03FF0000
ENDCHAR
STARTCHAR 0050
ENCODING 80
SWIDTH 595 0
DWIDTH 24 0
BBX 25 26 0 0
BITMAP
07FFF000
07FFFC00
07FFFF00
07F87F00
0FF87F80
0FF87F80
0FF87F80
0FF87F80
0FF07F80
1FF07F80
1FF0FF00
1FF0FF00
1FF0FF00
1FE1FE00
3FE3FC00
3FFFF800
3FFFE000
3FFF0000
3FC00000
7FC00000
7FC00000
7FC00000
7F800000
7F800000
FF800000
FF800000
ENDCHAR
STARTCHAR 0051
ENCODING 81
SWIDTH 670 0
DWIDTH 27 0
BBX 26 34 1 -8
BITMAP
001FF000
00FFFC00
03FFFE00
07FC7F00
0FF87F80
1FF07F80
1FF07FC0
3FE07FC0
3FE07FC0
7FE07FC0
7FE07FC0
7FC07FC0
7FC07FC0
7FC0FFC0
FFC0FFC0
FF80FF80
FF80FF80
FF81FF80
7F81FF00
7F81FF00
7F83FE00
7F83FE00
3F87FC00
3FCFF800
1FFFF000
07FFC000
007F0000
007F8000
003FE000
003FF800
001FE000
000F8000
00070000
00020000
ENDCHAR
STARTCHAR 0052
ENCODING 82
SWIDTH 620 0
DWIDTH 25 0
BBX 25 26 0 0
BITMAP
07FFF800
07FFFE00
07FFFF00
07F87F00
0FF87F80
0FF87F80
0FF87F80
0FF87F80
0FF07F80
1FF0FF00
1FF0FF00
1FF1FE00
1FFFFC00
1FFFF000
3FFFF000
3FEFF000
3FEFF000
3FCFF800
3FC7F800
7FC7F800
7FC7FC00
7FC3FC00
7F83FE00
7F83FE00
FF83FE00
FF81FF00
ENDCHAR
STARTCHAR 0053
ENCODING 83
SWIDTH 571 0
DWIDTH 23 0
BBX 24 26 0 0
BITMAP
001FF0
00FFFE
03FFFF
07F1FF
0FE0FE
1FE0FE
1FE0FE
1FE0FE
1FE000
1FF800
1FFF80
1FFFF0
1FFFF8
0FFFFC
03FFFC
00FFFC
001FFC
0007FC
7F03FC
7F03FC
7F03FC
FF07F8
FF8FF0
FFFFE0
7FFFC0
0FFC00
ENDCHAR
STARTCHAR 0054
ENCODING 84
SWIDTH 546 0
DWIDTH 22 0
BBX 22 26 3 0
BITMAP
FFFFFC
FFFFFC
FFFFF8
03FE00
03FE00
03FC00
03FC00
07FC00
07FC00
07FC00
07F800
0FF800
0FF800
0FF800
0FF800
0FF000
1FF000
1FF000
1FF000
1FE000
1FE000
3FE000
3FE000
3FE000
3FC000
3FC000
ENDCHAR
STARTCHAR 0055
ENCODING 85
SWIDTH 620 0
DWIDTH 25 0
BBX 25 26 1 0
BITMAP
0FF80380
0FF80780
0FF80780
1FF00780
1FF00780
1FF00700
1FF00F00
1FF00F00
3FE00F00
3FE00E00
3FE00E00
3FE01E00
7FE01E00
7FC01E00
7FC01C00
7FC01C00
7FC03C00
7F803C00
FF803800
FF807800
FFC07800
7FE1F000
7FFFE000
3FFFC000
1FFF8000
07FC0000
ENDCHAR
STARTCHAR 0056
ENCODING 86
SWIDTH 571 0
DWIDTH 23 0
BBX 23 26 3 0
BITMAP
FF801E
FFC03C
FFC03C
FFC078
7FC078
7FC0F8
7FC0F0
7FC0F0
7FC1E0
7FC1E0
7FC3C0
7FC3C0
7FC780
7FC780
7FEF00
7FEF00
7FFF00
7FFE00
7FFE00
7FFC00
7FFC00
3FF800
3FF800
3FF000
3FF000
3FE000
ENDCHAR
STARTCHAR 0057
ENCODING 87
SWIDTH 943 0
DWIDTH 38 0
BBX 37 26 3 0
BITMAP
FFC07F8078
FFC07F80F8
FFC0FF80F0
FFC0FF80F0
FFC0FF81E0
FFC1FF81E0
7FC1FFC3E0
7FC3FFC3C0
7FC3FFC3C0
7FC3FFC7C0
7FC7FFC780
7FC7FFC780
7FC7FFCF00
7FCFBFCF00
7FCF3FDF00
7FDF3FDE00
7FFE3FDE00
7FFE3FFC00
7FFC3FFC00
7FFC3FFC00
7FFC3FF800
3FF83FF800
3FF83FF800
3FF03FF000
3FF03FF000
3FF03FE000
ENDCHAR
STARTCHAR 0058
ENCODING 88
SWIDTH 595 0
DWIDTH 24 0
BBX 27 26 -1 0
BITMAP
1FF803E0
0FFC07C0
0FFC0780
07FE0F80
07FE1F00
07FE1E00
03FF3C00
03FF7800
01FFF800
01FFF000
00FFE000
00FFC000
00FFC000
007FE000
007FE000
00FFF000
01FFF000
03FFF000
03DFF800
079FF800
0F8FFC00
1F0FFC00
3E07FC00
3C07FE00
7C07FE00
F803FF00
ENDCHAR
STARTCHAR 0059
ENCODING 89
SWIDTH 571 0
DWIDTH 23 0
BBX 23 26 3 0
BITMAP
FFC03E
7FC03C
7FC078
7FE0F8
7FE0F0
3FE1E0
3FE1E0
3FF3C0
3FF780
1FF780
1FFF00
1FFF00
1FFE00
0FFC00
0FFC00
0FF800
0FF800
0FF000
1FF000
1FF000
1FF000
1FE000
1FE000
3FE000
3FE000
3FE000
ENDCHAR
STARTCHAR 005A
ENCODING 90
SWIDTH 546 0
DWIDTH 22 0
BBX 24 26 -1 0
BITMAP
0FFFFF
0FFFFF
0FFFFF
0003FF
0007FE
000FFE
000FFC
001FF8
003FF8
007FF0
007FE0
00FFE0
01FFC0
01FF80
03FF80
07FF00
07FE00
0FFE00
1FFC00
1FF800
3FF800
7FF000
7FE000
7FFFF8
FFFFF8
FFFFF8
ENDCHAR
STARTCHAR 005B
ENCODING 91
SWIDTH 297 0
DWIDTH 12 0
BBX 15 32 0 -3
BITMAP
03FE
03FC
03FC
07C0
0780
0780
0780
0780
0F80
0F00
0F00
0F00
0F00
1F00
1E00
1E00
1E00
1E00
3E00
3C00
3C00
3C00
7C00
7C00
7800
7800
7800
F800
F800
FF80
FF00
FF00
ENDCHAR
STARTCHAR 005C
ENCODING 92
SWIDTH 595 0
DWIDTH 24 0
BBX 17 26 4 0
BITMAP
F00000
700000
780000
380000
3C0000
1C0000
1E0000
0E0000
0F0000
078000
078000
03C000
03C000
01E000
01E000
00F000
00F000
007800
007800
003C00
003C00
001E00
001E00
000F00
000F80
000780
ENDCHAR
STARTCHAR 005D
ENCODING 93
SWIDTH 297 0
DWIDTH 12 0
BBX 15 32 -2 -3
BITMAP
01FE
01FE
03FE
003E
003E
003C
003C
003C
007C
0078
0078
0078
0078
00F8
00F0
00F0
00F0
01F0
01F0
01E0
01E0
01E0
03E0
03E0
03C0
03C0
03C0
07C0
0780
7F80
7F80
FF80
ENDCHAR
STARTCHAR 005E
ENCODING 94
SWIDTH 446 0
DWIDTH 18 0
BBX 15 9 3 17
BITMAP
07F0
0FF0
0FF0
1E78
1E78
3C38
783C
701C
E01E
ENDCHAR
STARTCHAR 005F
ENCODING 95
SWIDTH 571 0
DWIDTH 23 0
BBX 20 4 -1 -4
BITMAP
7FFFF0
FFFFE0
FFFFE0
FFFFE0
ENDCHAR
STARTCHAR 0060
ENCODING 96
SWIDTH 297 0
DWIDTH 12 0
BBX 11 6 1 20
BITMAP
FE00
3F00
1F80
0F80
03C0
01E0
ENDCHAR
STARTCHAR 0061
ENCODING 97
SWIDTH 546 0
DWIDTH 22 0
BBX 22 18 -1 0
BITMAP
00FF80
07FFF0
0FFFF8
0FC3F8
1F83F8
0003FC
0003FC
07FFF8
1FFFF8
3FC7F8
7F87F8
7F07F8
FF0FF8
FF0FF0
7FFFF0
7FFFF0
3FE7F0
1F07E0
ENDCHAR
STARTCHAR 0062
ENCODING 98
SWIDTH 571 0
DWIDTH 23 0
BBX 22 28 0 0
BITMAP
07F800
07F800
07F800
07F800
0FF800
0FF000
0FF000
0FF000
0FF000
1FF000
1FE1F0
1FE7F8
1FEFFC
1FFFFC
3FE3FC
3FC3FC
3FC3FC
3FC3FC
3FC3FC
7FC3FC
7F87FC
7F87F8
7F87F8
7F8FF8
FFFFF0
FFFFF0
FE7FE0
FC1F80
ENDCHAR
STARTCHAR 0063
ENCODING 99
SWIDTH 521 0
DWIDTH 21 0
BBX 20 18 0 0
BITMAP
00FF80
03FFF0
0FFFF0
1FE3F0
3FC3F0
3FC3F0
7F83F0
7F8000
7F8000
FF8000
FF8000
FF07E0
7F07E0
7F0FC0
3F9FC0
3FFFC0
0FFFC0
03FE00
ENDCHAR
STARTCHAR 0064
ENCODING 100
SWIDTH 571 0
DWIDTH 23 0
BBX 25 27 0 0
BITMAP
00007F80
0000FF80
0000FF00
0000FF00
0000FF00
0001FF00
0001FE00
0001FE00
0001FE00
03F1FE00
0FFBFE00
1FFFFC00
1FFFFC00
3FE7FC00
3FC3FC00
7F87FC00
7F87F800
7F87F800
FF87F800
FF8FF800
FF0FF800
FF0FF000
FF1FF000
FFFFF000
7FFFF000
3FCFE000
1F8FE000
ENDCHAR
STARTCHAR 0065
ENCODING 101
SWIDTH 546 0
DWIDTH 22 0
BBX 21 18 0 0
BITMAP
00FF80
03FFF0
0FFFF0
1FE3F8
3FC3F8
7FC3F8
7FC3F8
7F83F8
7FFFF8
FFFFF0
FF8000
FF8000
7F07F0
7F0FE0
7F9FE0
3FFFE0
1FFFC0
03FE00
ENDCHAR
STARTCHAR 0066
ENCODING 102
SWIDTH 397 0
DWIDTH 16 0
BBX 21 28 1 0
BITMAP
001FF0
007FF8
01FFF0
01FFF0
03FC00
07F800
07F800
07F800
0FF000
0FF000
7FFF00
7FFF00
FFFF00
1FE000
1FE000
1FE000
1FE000
3FE000
3FC000
3FC000
3FC000
3FC000
7FC000
7F8000
7F8000
7F8000
7F8000
FF8000
ENDCHAR
STARTCHAR 0067
ENCODING 103
SWIDTH 571 0
DWIDTH 23 0
BBX 23 25 0 -7
BITMAP
03F0FE
07FDFE
1FFDFC
1FFFFC
3FC7FC
3FC3FC
7F87FC
7F87F8
7F87F8
7F87F8
FF8FF8
FF0FF0
FF0FF0
FF9FF0
7FFFF0
7FFFF0
3FDFE0
1F1FE0
001FE0
001FC0
003FC0
007F80
7FFF00
7FFC00
7FE000
ENDCHAR
STARTCHAR 0068
ENCODING 104
SWIDTH 571 0
DWIDTH 23 0
BBX 22 27 0 0
BITMAP
07F800
07F800
07F800
07F800
0FF800
0FF000
0FF000
0FF000
1FF000
1FE1F0
1FE7F8
1FEFFC
1FFFFC
3FE3FC
3FC3FC
3FC3FC
3FC3FC
3FC7FC
7FC7F8
7F87F8
7F87F8
7F87F8
7F8FF8
FF8FF0
FF0FF0
FF0FF0
FF1FF0
ENDCHAR
STARTCHAR 0069
ENCODING 105
SWIDTH 297 0
DWIDTH 12 0
BBX 12 26 0 0
BITMAP
03E0
07F0
0FF0
0FF0
0FF0
07F0
03C0
0000
1FE0
1FE0
1FE0
1FE0
3FE0
3FC0
3FC0
3FC0
7FC0
7F80
7F80
7F80
7F80
FF80
FF00
FF00
FF00
FF00
ENDCHAR
STARTCHAR 006A
ENCODING 106
SWIDTH 297 0
DWIDTH 12 0
BBX 16 33 -4 -7
BITMAP
003E
007F
00FF
00FF
00FF
007F
003C
0000
01FE
01FE
01FE
01FE
03FE
03FC
03FC
03FC
07FC
07FC
07F8
07F8
07F8
0FF8
0FF0
0FF0
0FF0
0FF0
1FF0
1FE0
1FE0
3FC0
FF80
FE00
F800
ENDCHAR
STARTCHAR 006B
ENCODING 107
SWIDTH 595 0
DWIDTH 24 0
BBX 24 27 0 0
BITMAP
07F800
07F800
07F800
07F800
0FF800
0FF000
0FF000
0FF000
1FF000
1FE01F
1FE07E
1FE0FC
1FE1F0
3FE3E0
3FC7C0
3FDF80
3FFF80
3FFF80
7FFFC0
7FBFC0
7FBFE0
7F9FF0
7F9FF0
FF0FF8
FF0FF8
FF07FC
FF07FC
ENDCHAR
STARTCHAR 006C
ENCODING 108
SWIDTH 297 0
DWIDTH 12 0
BBX 13 27 0 0
BITMAP
07F8
07F8
07F8
07F8
0FF8
0FF0
0FF0
0FF0
1FF0
1FE0
1FE0
1FE0
1FE0
3FE0
3FC0
3FC0
3FC0
3FC0
7FC0
7F80
7F80
7F80
7F80
FF80
FF00
FF00
FF00
ENDCHAR
STARTCHAR 006D
ENCODING 109
SWIDTH 844 0
DWIDTH 34 0
BBX 33 18 0 0
BITMAP
1FC1F03E00
1FCFF8FF00
1FDFFFFF80
1FFFFFFF80
3FE3FC7F80
3FC3F87F80
3FC3F87F80
3FC3F87F80
7FC7F87F80
7FC7F8FF00
7F87F0FF00
7F87F0FF00
7F87F0FF00
FF8FF0FF00
FF0FF1FE00
FF0FE1FE00
FF0FE1FE00
FF1FE1FE00
ENDCHAR
STARTCHAR 006E
ENCODING 110
SWIDTH 571 0
DWIDTH 23 0
BBX 22 18 0 0
BITMAP
1FC1F0
1FCFF8
1FDFFC
1FFFFC
3FE3FC
3FC3FC
3FC3FC
3FC3FC
7FC7FC
7FC7F8
7F87F8
7F87F8
7F87F8
FF8FF8
FF0FF0
FF0FF0
FF0FF0
FF1FF0
ENDCHAR
STARTCHAR 006F
ENCODING 111
SWIDTH 571 0
DWIDTH 23 0
BBX 22 18 0 0
BITMAP
00FF80
07FFE0
0FFFF0
1FE7F8
3FC3F8
3FC3FC
7F83FC
7F83FC
7F87FC
FF87FC
FF87F8
7F87F8
7F0FF8
7F8FF0
7F9FF0
3FFFE0
1FFF80
07FC00
ENDCHAR
STARTCHAR 0070
ENCODING 112
SWIDTH 571 0
DWIDTH 23 0
BBX 24 25 -2 -7
BITMAP
07F0FC
07F3FE
07F7FF
0FFFFF
0FF8FF
0FF0FF
0FF0FF
0FF0FF
1FF0FF
1FE1FF
1FE1FF
1FE1FE
1FE3FE
3FE3FE
3FFFFC
3FDFF8
3FCFF8
3FC3E0
7FC000
7F8000
7F8000
7F8000
7F8000
FF8000
FF0000
ENDCHAR
STARTCHAR 0071
ENCODING 113
SWIDTH 571 0
DWIDTH 23 0
BBX 23 25 0 -7
BITMAP
03F0FE
0FF9FC
1FFDFC
1FFFFC
3FC7FC
3FC3FC
7F87F8
7F87F8
7F87F8
FF87F8
FF87F8
FF0FF0
FF0FF0
FF0FF0
FF9FF0
7FFFF0
3FDFE0
1F9FE0
001FE0
001FE0
003FE0
003FC0
003FC0
003FC0
007FC0
ENDCHAR
STARTCHAR 0072
ENCODING 114
SWIDTH 471 0
DWIDTH 19 0
BBX 20 18 0 0
BITMAP
1FC3F0
1FCFF0
1FDFE0
1FFFE0
3FFFE0
3FC7E0
3FC3E0
3FC3C0
7FC3C0
7FC000
7F8000
7F8000
7F8000
FF8000
FF0000
FF0000
FF0000
FF0000
ENDCHAR
STARTCHAR 0073
ENCODING 115
SWIDTH 471 0
DWIDTH 19 0
BBX 19 18 -1 0
BITMAP
00FF00
07FFE0
0FFFE0
1FE7E0
1FC7E0
3FC7E0
3FE000
3FFE00
1FFF80
0FFFC0
07FFE0
00FFE0
003FE0
7E1FE0
7E3FC0
7FFFC0
FFFF00
1FFC00
ENDCHAR
STARTCHAR 0074
ENCODING 116
SWIDTH 397 0
DWIDTH 16 0
BBX 15 23 1 0
BITMAP
0078
00F8
01F8
03F0
1FF0
7FFE
7FFE
FFFE
1FE0
1FE0
1FE0
1FE0
3FE0
3FC0
3FC0
3FC0
3FC0
7FC0
7FC0
7FC0
3FF0
3FF0
0FF0
ENDCHAR
STARTCHAR 0075
ENCODING 117
SWIDTH 571 0
DWIDTH 23 0
BBX 23 18 0 0
BITMAP
1FE1FE
1FE1FE
1FE3FE
3FC3FC
3FC3FC
3FC3FC
3FC3FC
3FC7FC
7F87F8
7F87F8
7F87F8
7F87F8
FF8FF8
FF8FF0
7FFFF0
7FFFF0
3FE7F0
1F07F0
ENDCHAR
STARTCHAR 0076
ENCODING 118
SWIDTH 521 0
DWIDTH 21 0
BBX 21 18 1 0
BITMAP
FF80F8
7F80F0
7F81E0
7F81E0
7FC3C0
7FC3C0
7FC780
3FC780
3FCF00
3FCF00
3FDE00
3FDE00
3FFC00
1FFC00
1FF800
1FF800
1FF000
1FF000
ENDCHAR
STARTCHAR 0077
ENCODING 119
SWIDTH 819 0
DWIDTH 33 0
BBX 33 18 1 0
BITMAP
FF81FE0780
7F83FE0F80
7F83FE0F00
7F83FE0F00
7F87FE1E00
7F87FE1E00
7FC7FE3C00
7FCFFF3C00
3FCFFF3800
3FDFFF7800
3FDEFF7800
3FDCFFF000
3FFCFFF000
3FF8FFE000
3FF8FFE000
1FF0FFC000
1FF07FC000
1FF07F8000
ENDCHAR
STARTCHAR 0078
ENCODING 120
SWIDTH 496 0
DWIDTH 20 0
BBX 23 18 -2 0
BITMAP
1FF03E
0FF87C
07F8F8
07F9F0
03FFE0
03FFC0
01FF80
01FF00
00FF00
00FF80
01FF80
03FFC0
07FFC0
0FBFE0
1F1FE0
3E1FF0
7C0FF0
F80FF8
ENDCHAR
STARTCHAR 0079
ENCODING 121
SWIDTH 521 0
DWIDTH 21 0
BBX 25 25 -3 -7
BITMAP
07F80F80
07F80F00
07F81E00
07F81E00
07F83C00
07FC3C00
07FC7800
03FC7800
03FCF000
03FCF000
03FDE000
03FDE000
03FFC000
03FFC000
03FF8000
01FF8000
01FF0000
01FF0000
01FE0000
01FC0000
01FC0000
03F80000
7FF00000
7FE00000
FF000000
ENDCHAR
STARTCHAR 007A
ENCODING 122
SWIDTH 471 0
DWIDTH 19 0
BBX 20 18 -1 0
BITMAP
1FFFF0
1FFFF0
1FFFF0
003FE0
007FC0
00FF80
00FF80
01FF00
03FE00
07FC00
0FF800
1FF000
3FF000
7FE000
FFC000
FFFFC0
FFFFC0
FFFFC0
ENDCHAR
STARTCHAR 007B
ENCODING 123
SWIDTH 322 0
DWIDTH 13 0
BBX 14 32 1 -3
BITMAP
007C
01FC
01FC
03FC
03C0
07C0
07C0
0780
0780
0780
0F80
0F00
0F00
1F00
3F00
7E00
7C00
FC00
7E00
3E00
3E00
3C00
3C00
3C00
7C00
7C00
7800
7800
7800
7F80
7F00
3F00
ENDCHAR
STARTCHAR 007C
ENCODING 124
SWIDTH 223 0
DWIDTH 9 0
BBX 11 35 -1 -7
BITMAP
01E0
01E0
03E0
03E0
03C0
03C0
03C0
07C0
0780
0780
0780
0780
0F80
0F00
0F00
0F00
1F00
1F00
1E00
1E00
1E00
3E00
3E00
3C00
3C00
3C00
7C00
7800
7800
7800
7800
F800
F000
F000
F000
ENDCHAR
STARTCHAR 007D
ENCODING 125
SWIDTH 322 0
DWIDTH 13 0
BBX 14 32 -2 -3
BITMAP
01F0
03F8
03FC
007C
003C
007C
007C
0078
0078
0078
00F8
00F8
00F0
00F8
00FC
007C
007C
00FC
01F0
01E0
03E0
03C0
03C0
03C0
03C0
07C0
0780
0780
0F80
7F00
7E00
F800
ENDCHAR
STARTCHAR 007E
ENCODING 126
SWIDTH 446 0
DWIDTH 18 0
BBX 16 6 1 7
BITMAP
1F83
3FFF
7FFE
FFFE
C3FC
4078
ENDCHAR
STARTCHAR 00A0
ENCODING 160
SWIDTH 198 0
DWIDTH 8 0
BBX 0 0 0 0
BITMAP
ENDCHAR
STARTCHAR 00A1
ENCODING 161
SWIDTH 297 0
DWIDTH 12 0
BBX 13 28 -2 -7
BITMAP
01E0
03F0
07F8
07F8
07F8
03F0
01E0
0000
0000
07E0
07E0
07E0
0FE0
0FC0
0FC0
0FC0
1FC0
1FC0
1FC0
1FC0
3FC0
3F80
3F80
7F80
7F80
7F80
7F80
FF80
ENDCHAR
STARTCHAR 00A2
ENCODING 162
SWIDTH 521 0
DWIDTH 21 0
BBX 20 27 2 0
BITMAP
001F00
001E00
001E00
001E00
00FF00
07FFC0
1FFFF0
3FE7E0
7FC7E0
7F87E0
FF87E0
FF07E0
FF0000
FF0000
FF0000
FF0000
FF0FC0
FF0FC0
FF1FC0
7F3F80
7FFF80
1FFF80
07FE00
03E000
03C000
03C000
07C000
ENDCHAR
STARTCHAR 00A3
ENCODING 163
SWIDTH 620 0
DWIDTH 25 0
BBX 23 26 1 0
BITMAP
001FF0
00FFFE
01FFFE
03FFFC
07FC0C
07F800
0FF000
0FF000
0FF000
0FF000
0FF000
7FFF00
7FFF00
FFFF00
07F000
07E000
07E000
07C000
0F8000
0F001C
1FF83C
3FFFF8
7FFFF8
7FFFF8
7CFFF0
200FC0
ENDCHAR
STARTCHAR 00A4
ENCODING 164
SWIDTH 595 0
DWIDTH 24 0
BBX 24 22 1 2
BITMAP
06000C
0F1F1E
1FFFFF
1FFFFE
0FFFFC
07E1F8
0F80F8
0F0078
1E0078
1E0078
1C0078
3C0078
3C00F0
3E00F0
1E01E0
1F87E0
3FFFE0
7FFFF0
FFFFF8
F1F8F0
600060
400040
ENDCHAR
STARTCHAR 00A5
ENCODING 165
SWIDTH 620 0
DWIDTH 25 0
BBX 25 26 2 0
BITMAP
3FF00F80
3FF00F00
1FF01E00
1FF83E00
1FF83C00
1FF87800
0FF87800
0FFCF000
0FFCE000
0FFDE000
07FFC000
07FFC000
07FF8000
3FFFF000
3FFFF000
7FFFE000
03FC0000
03FC0000
07FC0000
7FFFE000
FFFFC000
FFFFC000
0FF80000
0FF80000
0FF80000
0FF80000
ENDCHAR
STARTCHAR 00A6
ENCODING 166
SWIDTH 223 0
DWIDTH 9 0
BBX 11 34 -1 -7
BITMAP
01E0
03E0
03E0
03C0
03C0
03C0
07C0
07C0
0780
0780
0780
0780
0F80
0F00
0F00
0000
0000
0000
0000
1E00
3E00
3E00
3C00
3C00
3C00
7C00
7800
7800
7800
7800
F800
F000
F000
F000
ENDCHAR
STARTCHAR 00A7
ENCODING 167
SWIDTH 546 0
DWIDTH 22 0
BBX 23 31 -1 -5
BITMAP
000FF0
007FFC
00FFFE
01FC0C
03FC00
03FC00
03FC00
03FF00
03FFE0
03FFF0
01FFF8
03FFFC
07FFFC
1F87FC
1F01FC
3F00FC
3F80F8
3FE0F8
3FFFF0
3FFFC0
1FFF80
0FFF80
07FFC0
00FFC0
007FC0
003FC0
003FC0
607F80
FFFF00
7FFE00
0FF000
ENDCHAR
STARTCHAR 00A8
ENCODING 168
SWIDTH 422 0
DWIDTH 17 0
BBX 15 6 1 20
BITMAP
783C
FC7C
FC7E
FC7E
FC7C
7838
ENDCHAR
STARTCHAR 00A9
ENCODING 169
SWIDTH 744 0
DWIDTH 30 0
BBX 27 26 2 0
BITMAP
001FE000
00FFF800
03FFFE00
07C01F00
0F000780
1E0003C0
380FE1C0
787FF1E0
70FCF8E0
E1F8F0E0
E1F8F0E0
E3F0F060
E3F00060
E3F00060
E3F010E0
E3F1E0E0
E3F1E0E0
E1F3E1C0
70FFE3C0
703F8380
38000F00
3E001E00
1F807C00
0FFFF800
03FFE000
007F0000
ENDCHAR
STARTCHAR 00AA
ENCODING 170
SWIDTH 397 0
DWIDTH 16 0
BBX 14 16 2 11
BITMAP
07F0
1FF8
1E7C
1E7C
007C
0FFC
3FFC
3C78
3CF8
3FF8
3FF8
0878
0000
0000
7FF0
FFF0
ENDCHAR
STARTCHAR 00AB
ENCODING 171
SWIDTH 595 0
DWIDTH 24 0
BBX 24 18 0 0
BITMAP
00F83F
01F03E
03E07C
07C0F8
0FC1F0
0F83E0
1F07E0
3E0FC0
7E0F80
FC1F80
7E0F80
3E0FC0
3F07C0
1F07E0
1F03E0
0F83F0
0F81F0
07C0F8
ENDCHAR
STARTCHAR 00AC
ENCODING 172
SWIDTH 595 0
DWIDTH 24 0
BBX 21 10 1 1
BITMAP
7FFFF8
FFFFF0
FFFFF0
FFFFF0
0000F0
0001F0
0001E0
0001E0
0001E0
0003E0
ENDCHAR
STARTCHAR 00AD
ENCODING 173
SWIDTH 422 0
DWIDTH 17 0
BBX 14 4 1 7
BITMAP
7FFC
7FF8
FFF8
FFF8
ENDCHAR
STARTCHAR 00AE
ENCODING 174
SWIDTH 744 0
DWIDTH 30 0
BBX 27 26 2 0
BITMAP
001FE000
00FFF800
03FFFE00
07C01F00
0F000780
1E0003C0
3C7FE1C0
787FF1E0
707CF0E0
E0FCF0E0
E0F8F0E0
E0F9F060
E0FFE060
E0FFC060
E1F7C0E0
E1F3C0E0
E1F3E0E0
E1F3E1C0
73F1F1C0
70000380
38000700
3C001E00
1F007C00
0FFFF800
03FFE000
007F0000
ENDCHAR
STARTCHAR 00AF
ENCODING 175
SWIDTH 422 0
DWIDTH 17 0
BBX 15 3 1 21
BITMAP
7FFE
FFFE
FFFC
ENDCHAR
STARTCHAR 00B0
ENCODING 176
SWIDTH 347 0
DWIDTH 14 0
BBX 12 12 3 15
BITMAP
0F80
1FC0
3FE0
70F0
7070
E070
E070
E0F0
71E0
7FC0
3F80
0E00
ENDCHAR
STARTCHAR 00B1
ENCODING 177
SWIDTH 496 0
DWIDTH 20 0
BBX 19 24 0 1
BITMAP
003C00
003C00
003C00
003C00
003C00
007800
007800
1FFFE0
1FFFE0
1FFFE0
3FFFE0
00F000
00F000
00F000
01F000
01E000
01E000
000000
000000
000000
7FFF80
FFFF80
FFFF00
FFFF00
ENDCHAR
STARTCHAR 00B2
ENCODING 178
SWIDTH 273 0
DWIDTH 11 0
BBX 11 11 2 15
BITMAP
0F80
3FC0
39E0
79E0
01E0
03C0
0780
0F00
3FC0
FFC0
FFC0
ENDCHAR
STARTCHAR 00B3
ENCODING 179
SWIDTH 273 0
DWIDTH 11 0
BBX 11 10 2 16
BITMAP
1F80
3FE0
39E0
41C0
0780
07C0
73C0
F3C0
7F80
0C00
ENDCHAR
STARTCHAR 00B4
ENCODING 180
SWIDTH 322 0
DWIDTH 13 0
BBX 11 6 1 20
BITMAP
1FE0
1F80
3F00
3C00
7800
F000
ENDCHAR
STARTCHAR 00B5
ENCODING 181
SWIDTH 595 0
DWIDTH 24 0
BBX 25 25 -2 -7
BITMAP
07FC7F80
07F87F80
07F87F80
07F87F80
07F8FF80
0FF0FF00
0FF0FF00
0FF0FF00
0FF0FF00
1FF1FF00
1FE1FE00
1FE1FE00
1FE1FE00
1FE3FE00
3FFFFC00
3FFDFC00
3FFDFC00
3F71FC00
3F000000
7F000000
7F000000
7F000000
7F000000
7F000000
FF000000
ENDCHAR
STARTCHAR 00B6
ENCODING 182
SWIDTH 620 0
DWIDTH 25 0
BBX 25 33 2 -7
BITMAP
01FFFF80
07FFFF00
1FFFFF00
3FFC3800
3FFC7800
7FFC7800
7FF87800
7FF87000
FFF87000
FFF8F000
7FF8F000
7FF0E000
7FF0E000
7FF1E000
3FF1E000
1FF1E000
00E1C000
01E1C000
01E3C000
01E3C000
01E3C000
01C38000
03C78000
03C78000
03C78000
03878000
07870000
078F0000
078F0000
078F0000
070E0000
0F1E0000
0F1E0000
ENDCHAR
STARTCHAR 00B7
ENCODING 183
SWIDTH 273 0
DWIDTH 11 0
BBX 8 7 2 9
BITMAP
3C
7F
FF
FF
FF
FE
7C
ENDCHAR
STARTCHAR 00B8
ENCODING 184
SWIDTH 248 0
DWIDTH 10 0
BBX 9 9 1 -9
BITMAP
3800
7000
7200
7F80
F780
0780
4780
FF00
7C00
ENDCHAR
STARTCHAR 00B9
ENCODING 185
SWIDTH 173 0
DWIDTH 7 0
BBX 6 10 3 16
BITMAP
1C
7C
FC
3C
78
78
78
78
F8
F0
ENDCHAR
STARTCHAR 00BA
ENCODING 186
SWIDTH 397 0
DWIDTH 16 0
BBX 13 15 3 12
BITMAP
07E0
1FF0
3E78
7C78
7C78
7CF8
7CF8
78F8
7DF0
3FE0
1FC0
0000
0000
FFE0
FFE0
ENDCHAR
STARTCHAR 00BB
ENCODING 187
SWIDTH 595 0
DWIDTH 24 0
BBX 23 18 -1 0
BITMAP
1F03E0
0F83E0
0F81F0
07C1F0
07C0F8
03E0FC
03E07C
03F07E
01F87E
01F07E
03F07C
07E0F8
0FC1F0
0F83E0
1F07E0
3E07C0
7C0F80
F81F00
ENDCHAR
STARTCHAR 00BC
ENCODING 188
SWIDTH 645 0
DWIDTH 26 0
BBX 22 26 2 0
BITMAP
0F00F8
3F00F0
3F01E0
5E03C0
1E03C0
1E0780
3E0780
3C0F00
3C1E00
3C1E00
003C00
007C00
007800
00F000
01F000
01E0F8
03C1F8
03C1F8
0783F8
0F86F0
0F0CF0
1E0FFC
3E1FF8
3C01F0
7C01E0
F801E0
ENDCHAR
STARTCHAR 00BD
ENCODING 189
SWIDTH 670 0
DWIDTH 27 0
BBX 23 26 2 0
BITMAP
0F00F8
3F00F0
3F01E0
5E03C0
1E03C0
1E0780
3E0780
3C0F00
3C1E00
3C1E00
003C00
007C00
007800
00F000
01F000
01E1F8
03C3FC
03C7BE
0787BE
0F803E
0F003C
1E0078
3E00F0
3C03FC
7C0FFC
F80FFC
ENDCHAR
STARTCHAR 00BE
ENCODING 190
SWIDTH 720 0
DWIDTH 29 0
BBX 24 26 3 0
BITMAP
1F803E
7FC03C
7BC078
03C0F0
0F00F0
0781E0
F3C3E0
E7C3C0
FF8780
180780
000F00
001F00
001E00
003C00
007C00
00783E
00F07E
00F0FE
01E0DE
03E1BC
03C33C
0783FF
0F87FE
0F007C
1E0078
3E0078
ENDCHAR
STARTCHAR 00BF
ENCODING 191
SWIDTH 521 0
DWIDTH 21 0
BBX 19 28 -1 -7
BITMAP
001E00
007F00
007F00
007F00
007F00
007F00
003C00
000000
000000
007E00
00FE00
00FC00
00FC00
01FC00
07FC00
1FF000
3FC000
7F8000
7F8000
FF07E0
FF07E0
FF0FE0
FE0FC0
FE1FC0
7F3FC0
7FFF80
3FFF00
07F800
ENDCHAR
STARTCHAR 00C0
ENCODING 192
SWIDTH 595 0
DWIDTH 24 0
BBX 24 34 -2 0
BITMAP
00FE00
003F00
001F80
000F80
0003C0
0001E0
000000
000000
000FF8
001FFC
001FFC
003FFC
003FFC
007FFC
007FFC
0077FC
00F7FC
00E7FC
01E7FE
01E3FE
03C3FE
03C3FE
0783FE
0783FE
0F03FE
0FFFFE
0FFFFE
1FFFFE
1E03FF
3C03FF
3C03FF
7801FF
7801FF
F001FF
ENDCHAR
STARTCHAR 00C1
ENCODING 193
SWIDTH 595 0
DWIDTH 24 0
BBX 25 34 -2 0
BITMAP
00003F80
00007E00
00007C00
0000F800
0001E000
0001C000
00000000
00000000
000FF800
001FFC00
001FFC00
003FFC00
003FFC00
007FFC00
007FFC00
0077FC00
00F7FC00
00E7FC00
01E7FE00
01E3FE00
03C3FE00
03C3FE00
0783FE00
0783FE00
0F03FE00
0FFFFE00
0FFFFE00
1FFFFE00
1E03FF00
3C03FF00
3C03FF00
7801FF00
7801FF00
F001FF00
ENDCHAR
STARTCHAR 00C2
ENCODING 194
SWIDTH 595 0
DWIDTH 24 0
BBX 24 34 -2 0
BITMAP
0003F8
0007FC
000FBC
001F1E
003C0F
007007
000000
000000
000FF8
001FFC
001FFC
003FFC
003FFC
007FFC
007FFC
0077FC
00F7FC
00E7FC
01E7FE
01E3FE
03C3FE
03C3FE
0783FE
0783FE
0F03FE
0FFFFE
0FFFFE
1FFFFE
1E03FF
3C03FF
3C03FF
7801FF
7801FF
F001FF
ENDCHAR
STARTCHAR 00C3
ENCODING 195
SWIDTH 595 0
DWIDTH 24 0
BBX 27 34 -2 0
BITMAP
0003E0E0
000FFFC0
001FFF80
003FFF80
00107E00
00000000
00000000
00000000
000FF800
001FFC00
001FFC00
003FFC00
003FFC00
007FFC00
007FFC00
0077FC00
00F7FC00
00E7FC00
01E7FE00
01E3FE00
03C3FE00
03C3FE00
0783FE00
0783FE00
0F03FE00
0FFFFE00
0FFFFE00
1FFFFE00
1E03FF00
3C03FF00
3C03FF00
7801FF00
7801FF00
F001FF00
ENDCHAR
STARTCHAR 00C4
ENCODING 196
SWIDTH 595 0
DWIDTH 24 0
BBX 24 34 -2 0
BITMAP
001E1E
003E3F
003F3F
007E3F
003E3F
003C1E
000000
000000
000FF8
001FFC
001FFC
003FFC
003FFC
007FFC
007FFC
0077FC
00F7FC
00E7FC
01E7FE
01E3FE
03C3FE
03C3FE
0783FE
0783FE
0F03FE
0FFFFE
0FFFFE
1FFFFE
1E03FF
3C03FF
3C03FF
7801FF
7801FF
F001FF
ENDCHAR
STARTCHAR 00C5
ENCODING 197
SWIDTH 595 0
DWIDTH 24 0
BBX 24 35 -2 0
BITMAP
0001E0
0003F0
0003F8
000738
000738
0003F0
0003E0
0001C0
000000
000FF8
001FFC
001FFC
003FFC
003FFC
007FFC
007FFC
0077FC
00F7FC
00E7FC
01E7FE
01E3FE
03C3FE
03C3FE
0783FE
0783FE
0F03FE
0FFFFE
0FFFFE
1FFFFE
1E03FF
3C03FF
3C03FF
7801FF
7801FF
F001FF
ENDCHAR
STARTCHAR 00C6
ENCODING 198
SWIDTH 819 0
DWIDTH 33 0
BBX 37 26 -2 0
BITMAP
00003FFFF8
00007FFFF0
00007FFFF0
0000FFF000
0001FFF000
0001DFE000
0003BFE000
00073FE000
000F3FE000
000E3FE000
001C3FC000
003C7FFF80
00787FFF80
00707FFF80
00F07F8000
01FFFF8000
03FFFF8000
03FFFF8000
0780FF8000
0F00FF0000
0E01FF0000
1E01FF0000
3C01FF0000
7801FFFF00
7001FFFF00
F003FFFE00
ENDCHAR
STARTCHAR 00C7
ENCODING 199
SWIDTH 645 0
DWIDTH 26 0
BBX 25 35 1 -9
BITMAP
001FF000
007FFE00
01FFFF80
07FC7F80
0FF87F80
0FF07F80
1FF07F80
3FE07F00
3FE07F00
7FE07F00
7FC00000
7FC00000
7FC00000
FFC00000
FFC00000
FFC00000
FF80FE00
FF81FE00
7F81FE00
7F81FC00
7F83FC00
7F83FC00
3FC7FC00
1FFFFC00
0FFFF000
01FF8000
00700000
00700000
007F0000
00FF8000
00E78000
00078000
004F8000
00FF0000
00380000
ENDCHAR
STARTCHAR 00C8
ENCODING 200
SWIDTH 496 0
DWIDTH 20 0
BBX 22 34 0 0
BITMAP
07F800
01F800
007C00
003E00
001F00
000700
000000
000000
07FFFC
07FFFC
07FFFC
07F800
0FF800
0FF800
0FF800
0FF800
0FF000
1FF000
1FF000
1FFFE0
1FFFC0
1FFFC0
3FE000
3FE000
3FE000
3FC000
3FC000
7FC000
7FC000
7FC000
7F8000
7FFF80
FFFF80
FFFF80
ENDCHAR
STARTCHAR 00C9
ENCODING 201
SWIDTH 496 0
DWIDTH 20 0
BBX 23 34 0 0
BITMAP
0001FE
0001F8
0003E0
0007C0
000780
000F00
000000
000000
07FFFC
07FFFC
07FFFC
07F800
0FF800
0FF800
0FF800
0FF800
0FF000
1FF000
1FF000
1FFFE0
1FFFC0
1FFFC0
3FE000
3FE000
3FE000
3FC000
3FC000
7FC000
7FC000
7FC000
7F8000
7FFF80
FFFF80
FFFF80
ENDCHAR
STARTCHAR 00CA
ENCODING 202
SWIDTH 496 0
DWIDTH 20 0
BBX 22 34 0 0
BITMAP
000FE0
001FF0
003EF0
007C78
00F03C
01C01C
000000
000000
07FFFC
07FFFC
07FFFC
07F800
0FF800
0FF800
0FF800
0FF800
0FF000
1FF000
1FF000
1FFFE0
1FFFC0
1FFFC0
3FE000
3FE000
3FE000
3FC000
3FC000
7FC000
7FC000
7FC000
7F8000
7FFF80
FFFF80
FFFF80
ENDCHAR
STARTCHAR 00CB
ENCODING 203
SWIDTH 496 0
DWIDTH 20 0
BBX 22 34 0 0
BITMAP
00F070
01F8F8
01F9F8
01F9F8
01F0F8
00F0F0
000000
000000
07FFFC
07FFFC
07FFFC
07F800
0FF800
0FF800
0FF800
0FF800
0FF000
1FF000
1FF000
1FFFE0
1FFFC0
1FFFC0
3FE000
3FE000
3FE000
3FC000
3FC000
7FC000
7FC000
7FC000
7F8000
7FFF80
FFFF80
FFFF80
ENDCHAR
STARTCHAR 00CC
ENCODING 204
SWIDTH 322 0
DWIDTH 13 0
BBX 14 34 0 0
BITMAP
7F00
1F80
0FC0
07C0
01E0
00F0
0000
0000
07FC
07FC
07FC
07F8
0FF8
0FF8
0FF8
0FF8
0FF0
1FF0
1FF0
1FF0
1FE0
1FE0
3FE0
3FE0
3FE0
3FC0
3FC0
7FC0
7FC0
7FC0
7F80
7F80
FF80
FF80
ENDCHAR
STARTCHAR 00CD
ENCODING 205
SWIDTH 322 0
DWIDTH 13 0
BBX 18 34 0 0
BITMAP
001FC0
003F00
003E00
007C00
00F000
00E000
000000
000000
07FC00
07FC00
07FC00
07F800
0FF800
0FF800
0FF800
0FF800
0FF000
1FF000
1FF000
1FF000
1FE000
1FE000
3FE000
3FE000
3FE000
3FC000
3FC000
7FC000
7FC000
7FC000
7F8000
7F8000
FF8000
FF8000
ENDCHAR
STARTCHAR 00CE
ENCODING 206
SWIDTH 322 0
DWIDTH 13 0
BBX 18 34 0 0
BITMAP
00FE00
01FE00
03EF00
078700
0E0380
3C01C0
000000
000000
07FC00
07FC00
07FC00
07F800
0FF800
0FF800
0FF800
0FF800
0FF000
1FF000
1FF000
1FF000
1FE000
1FE000
3FE000
3FE000
3FE000
3FC000
3FC000
7FC000
7FC000
7FC000
7F8000
7F8000
FF8000
FF8000
ENDCHAR
STARTCHAR 00CF
ENCODING 207
SWIDTH 322 0
DWIDTH 13 0
BBX 18 34 0 0
BITMAP
070780
0F8FC0
1F8FC0
1F8FC0
1F8F80
0F0700
000000
000000
07FC00
07FC00
07FC00
07F800
0FF800
0FF800
0FF800
0FF800
0FF000
1FF000
1FF000
1FF000
1FE000
1FE000
3FE000
3FE000
3FE000
3FC000
3FC000
7FC000
7FC000
7FC000
7F8000
7F8000
FF8000
FF8000
ENDCHAR
STARTCHAR 00D0
ENCODING 208
SWIDTH 670 0
DWIDTH 27 0
BBX 26 26 0 0
BITMAP
03FFF800
03FFFE00
07FFFF00
07FC3F80
07FC3FC0
07F83FC0
0FF83FC0
0FF83FC0
0FF83FC0
0FF83FC0
0FF03FC0
7FFE7FC0
7FFE7FC0
FFFE7FC0
1FE07FC0
1FE07FC0
3FE0FFC0
3FE0FF80
3FE0FF80
3FC1FF00
3FC1FF00
7FC3FE00
7FC7FC00
7FFFF800
7FFFE000
FFFF0000
ENDCHAR
STARTCHAR 00D1
ENCODING 209
SWIDTH 645 0
DWIDTH 26 0
BBX 27 34 0 0
BITMAP
0007C0C0
001FFF80
003FFF80
003FFF00
00607E00
00000000
00000000
00000000
07FE01E0
07FE01C0
07FF01C0
07FF03C0
0FFF03C0
0FFF03C0
0FFF0380
0EFF8380
0EFF8780
1EFF8780
1EFF8780
1E7F8700
1C7FC700
1C7FCF00
3C7FCF00
3C7FCF00
3C3FEE00
383FFE00
383FFE00
783FFE00
781FFC00
781FFC00
701FFC00
701FFC00
F00FFC00
F00FF800
ENDCHAR
STARTCHAR 00D2
ENCODING 210
SWIDTH 670 0
DWIDTH 27 0
BBX 26 35 1 0
BITMAP
00FE0000
007E0000
003F0000
001F8000
00078000
0003C000
0001E000
00000000
00000000
001FF000
00FFFC00
03FFFF00
07FC7F00
0FF87F80
1FF07F80
1FF07FC0
3FE07FC0
3FE07FC0
7FE07FC0
7FC07FC0
7FC07FC0
7FC07FC0
FFC0FFC0
FFC0FFC0
FF80FF80
FF80FF80
FF81FF80
7F81FF00
7F83FF00
7F83FE00
7F87FC00
3FCFF800
1FFFF000
0FFFE000
03FF0000
ENDCHAR
STARTCHAR 00D3
ENCODING 211
SWIDTH 670 0
DWIDTH 27 0
BBX 26 35 1 0
BITMAP
00003F80
00003F00
00007E00
0000F800
0000F000
0001E000
0003C000
00000000
00000000
001FF000
00FFFC00
03FFFF00
07FC7F00
0FF87F80
1FF07F80
1FF07FC0
3FE07FC0
3FE07FC0
7FE07FC0
7FC07FC0
7FC07FC0
7FC07FC0
FFC0FFC0
FFC0FFC0
FF80FF80
FF80FF80
FF81FF80
7F81FF00
7F83FF00
7F83FE00
7F87FC00
3FC7F800
1FFFF000
0FFFE000
03FF0000
ENDCHAR
STARTCHAR 00D4
ENCODING 212
SWIDTH 670 0
DWIDTH 27 0
BBX 26 35 1 0
BITMAP
0001F800
0003FC00
0007FC00
000F9E00
001F0E00
003C0700
00780700
00000000
00000000
001FF000
00FFFC00
03FFFF00
07FC7F00
0FF87F80
1FF07F80
1FF07FC0
3FE07FC0
3FE07FC0
7FE07FC0
7FC07FC0
7FC07FC0
7FC07FC0
FFC0FFC0
FFC0FFC0
FF80FF80
FF80FF80
FF81FF80
7F81FF00
7F83FF00
7F83FE00
7F87FC00
3FC7F800
1FFFF000
0FFFE000
03FF0000
ENDCHAR
STARTCHAR 00D5
ENCODING 213
SWIDTH 670 0
DWIDTH 27 0
BBX 26 35 1 0
BITMAP
000F8100
001FE380
003FFF80
007FFF00
0071FE00
00203C00
00000000
00000000
00000000
001FF000
00FFFC00
03FFFF00
07FC7F00
0FF87F80
1FF07F80
1FF07FC0
3FE07FC0
3FE07FC0
7FE07FC0
7FC07FC0
7FC07FC0
7FC07FC0
FFC0FFC0
FFC0FFC0
FF80FF80
FF80FF80
FF81FF80
7F81FF00
7F83FF00
7F83FE00
7F87FC00
3FC7F800
1FFFF000
0FFFE000
03FF0000
ENDCHAR
STARTCHAR 00D6
ENCODING 214
SWIDTH 670 0
DWIDTH 27 0
BBX 26 34 1 0
BITMAP
001C1E00
003E3F00
003F3F00
007E3F00
003E3F00
003C1E00
00000000
00000000
001FF000
00FFFC00
03FFFF00
07FC7F00
0FF87F80
1FF07F80
1FF07FC0
3FE07FC0
3FE07FC0
7FE07FC0
7FC07FC0
7FC07FC0
7FC07FC0
FFC0FFC0
FFC0FFC0
FF80FF80
FF80FF80
FF81FF80
7F81FF00
7F83FF00
7F83FE00
7F87FC00
3FC7F800
1FFFF000
0FFFE000
03FF0000
ENDCHAR
STARTCHAR 00D7
ENCODING 215
SWIDTH 496 0
DWIDTH 20 0
BBX 21 17 0 4
BITMAP
0F01F8
0F81E0
07C3E0
03C7C0
03EF80
01FF00
01FE00
00FC00
00F800
01FC00
03FC00
07FE00
07DE00
0F9F00
1F0F80
3E0F80
FC07C0
ENDCHAR
STARTCHAR 00D8
ENCODING 216
SWIDTH 670 0
DWIDTH 27 0
BBX 26 28 1 -1
BITMAP
00000100
001FF300
00FFFF80
03FFFF00
07FC7F00
0FF87F80
1FF07F80
1FF07FC0
3FE0FFC0
3FE1FFC0
7FE1FFC0
7FC3FFC0
7FC77FC0
7FCE7FC0
FFDEFFC0
FFFCFFC0
FFF8FF80
FFF0FF80
FFE1FF80
7FC1FF00
7F81FF00
7F83FE00
7F87FC00
3FC7FC00
3FFFF000
7FFFE000
73FF0000
20000000
ENDCHAR
STARTCHAR 00D9
ENCODING 217
SWIDTH 620 0
DWIDTH 25 0
BBX 25 35 1 0
BITMAP
00FE0000
007E0000
003F0000
001F8000
00078000
0003C000
0001E000
00000000
00000000
0FF80380
0FF80780
0FF80780
1FF00780
1FF00780
1FF00700
1FF00F00
1FF00F00
3FE00F00
3FE00E00
3FE00E00
3FE01E00
7FE01E00
7FC01E00
7FC01C00
7FC01C00
7FC03C00
7F803C00
FF803800
FF807800
FFC07800
7FE1F000
7FFFE000
3FFFC000
1FFF8000
07FC0000
ENDCHAR
STARTCHAR 00DA
ENCODING 218
SWIDTH 620 0
DWIDTH 25 0
BBX 25 35 1 0
BITMAP
00003F80
00003F00
00007E00
0000FC00
0000F000
0001E000
0001C000
00000000
00000000
0FF80380
0FF80780
0FF80780
1FF00780
1FF00780
1FF00700
1FF00F00
1FF00F00
3FE00F00
3FE00E00
3FE00E00
3FE01E00
7FE01E00
7FC01E00
7FC01C00
7FC01C00
7FC03C00
7F803C00
FF803800
FF807800
FFC07800
7FE1F000
7FFFE000
3FFFC000
1FFF8000
07FC0000
ENDCHAR
STARTCHAR 00DB
ENCODING 219
SWIDTH 620 0
DWIDTH 25 0
BBX 25 35 1 0
BITMAP
0003F000
0007F800
0007FC00
000F3C00
001E1E00
003C0E00
00700700
00000000
00000000
0FF80380
0FF80780
0FF80780
1FF00780
1FF00780
1FF00700
1FF00F00
1FF00F00
3FE00F00
3FE00E00
3FE00E00
3FE01E00
7FE01E00
7FC01E00
7FC01C00
7FC01C00
7FC03C00
7F803C00
FF803800
FF807800
FFC07800
7FE1F000
7FFFE000
3FFFC000
1FFF8000
07FC0000
ENDCHAR
STARTCHAR 00DC
ENCODING 220
SWIDTH 620 0
DWIDTH 25 0
BBX 25 34 1 0
BITMAP
001E0E00
003F1F00
003F3F00
003F3F00
003E1F00
001E1E00
00000000
00000000
0FF80380
0FF80780
0FF80780
1FF00780
1FF00780
1FF00700
1FF00F00
1FF00F00
3FE00F00
3FE00E00
3FE00E00
3FE01E00
7FE01E00
7FC01E00
7FC01C00
7FC01C00
7FC03C00
7F803C00
FF803800
FF807800
FFC07800
7FE1F000
7FFFE000
3FFFC000
1FFF8000
07FC0000
ENDCHAR
STARTCHAR 00DD
ENCODING 221
SWIDTH 571 0
DWIDTH 23 0
BBX 23 34 3 0
BITMAP
0001FC
0003F0
0007E0
000780
000F00
001E00
000000
000000
FFC03E
7FC03C
7FC078
7FE0F8
7FE0F0
3FE1E0
3FE1E0
3FF3C0
3FF780
1FF780
1FFF00
1FFF00
1FFE00
0FFC00
0FFC00
0FF800
0FF800
0FF000
1FF000
1FF000
1FF000
1FE000
1FE000
3FE000
3FE000
3FE000
ENDCHAR
STARTCHAR 00DE
ENCODING 222
SWIDTH 595 0
DWIDTH 24 0
BBX 24 26 0 0
BITMAP
07FC00
07FC00
07FC00
07F800
0FFFC0
0FFFF8
0FFFFC
0FF0FE
0FF0FF
1FF0FF
1FF0FF
1FF0FF
1FE0FF
1FE0FF
3FE0FF
3FE1FE
3FE1FE
3FC3FC
3FC3FC
7FFFF0
7FFFE0
7FFF00
7F8000
7F8000
FF8000
FF8000
ENDCHAR
STARTCHAR 00DF
ENCODING 223
SWIDTH 645 0
DWIDTH 26 0
BBX 26 28 0 0
BITMAP
001FF000
00FFFE00
01FFFF00
03FFFF80
07FC7FC0
07F83FC0
0FF03F80
0FF03F80
0FF07F00
1FF0FC00
1FE1F800
1FE3F000
1FE7E000
1FEFE000
3FEFF000
3FCFF800
3FCFFE00
3FC7FF00
3FC7FF00
7FC3FF80
7F81FF80
7F807F80
7F803F80
7F803F80
FF187F00
FF3FFE00
FF1FFC00
FF07F000
ENDCHAR
STARTCHAR 00E0
ENCODING 224
SWIDTH 546 0
DWIDTH 22 0
BBX 22 26 -1 0
BITMAP
07F000
01F800
00FC00
007C00
001E00
000F00
000000
000000
00FF80
07FFF0
0FFFF8
0FC3F8
1F83F8
0003FC
0003FC
07FFF8
1FFFF8
3FC7F8
7F87F8
7F07F8
FF0FF8
FF0FF0
7FFFF0
7FFFF0
3FE7F0
1F07E0
ENDCHAR
STARTCHAR 00E1
ENCODING 225
SWIDTH 546 0
DWIDTH 22 0
BBX 22 26 -1 0
BITMAP
0001FC
0001F8
0003E0
0007C0
000780
000F00
000000
000000
00FF80
07FFF0
0FFFF8
0FC3F8
1F83F8
0003FC
0003FC
07FFF8
1FFFF8
3FC7F8
7F87F8
7F07F8
FF0FF8
FF0FF0
7FFFF0
7FFFF0
3FE7F0
1F07E0
ENDCHAR
STARTCHAR 00E2
ENCODING 226
SWIDTH 546 0
DWIDTH 22 0
BBX 22 26 -1 0
BITMAP
000FC0
001FE0
003FE0
0078F0
00F070
03C038
000000
000000
00FF80
07FFF0
0FFFF8
0FC3F8
1F83F8
0003FC
0003FC
07FFF8
1FFFF8
3FC7F8
7F87F8
7F07F8
FF0FF8
FF0FF0
7FFFF0
7FFFF0
3FE7F0
1F07E0
ENDCHAR
STARTCHAR 00E3
ENCODING 227
SWIDTH 546 0
DWIDTH 22 0
BBX 23 26 -1 0
BITMAP
003E0E
00FFFC
01FFFC
01FFF8
0303E0
000000
000000
000000
00FF80
07FFF0
0FFFF8
0FC3F8
1F83F8
0003FC
0003FC
07FFF8
1FFFF8
3FC7F8
7F87F8
7F07F8
FF0FF8
FF0FF0
7FFFF0
7FFFF0
3FE7F0
1F07E0
ENDCHAR
STARTCHAR 00E4
ENCODING 228
SWIDTH 546 0
DWIDTH 22 0
BBX 22 26 -1 0
BITMAP
00F0F0
01F1F8
01F9F8
03F1F8
01F1F8
01E0F0
000000
000000
00FF80
07FFF0
0FFFF8
0FC3F8
1F83F8
0003FC
0003FC
07FFF8
1FFFF8
3FC7F8
7F87F8
7F07F8
FF0FF8
FF0FF0
7FFFF0
7FFFF0
3FE7F0
1F07E0
ENDCHAR
STARTCHAR 00E5
ENCODING 229
SWIDTH 546 0
DWIDTH 22 0
BBX 22 27 -1 0
BITMAP
000F00
001F80
003F80
003180
003380
003F80
001F00
000C00
000000
00FF80
07FFF0
0FFFF8
0FC3F8
1F83F8
0003FC
0003FC
07FFF8
1FFFF8
3FC7F8
7F87F8
7F07F8
FF0FF8
FF0FF0
7FFFF0
7FFFF0
3FE7F0
1F07E0
ENDCHAR
STARTCHAR 00E6
ENCODING 230
SWIDTH 819 0
DWIDTH 33 0
BBX 33 18 0 0
BITMAP
03FF0FF800
1FFFFFFE00
1FFFFFFF00
1F8FFE7F00
3F0FFC7F80
000FF87F80
000FF87F00
0FFFF87F00
3FFFFFFF00
7F0FFFFF00
FE1FF00000
FE1FF00000
FE1FF0FE00
FE3FF0FE00
FFFFF1FC00
FFF7FFFC00
7FE1FFF800
3F007FC000
ENDCHAR
STARTCHAR 00E7
ENCODING 231
SWIDTH 521 0
DWIDTH 21 0
BBX 20 27 0 -9
BITMAP
00FF80
03FFF0
0FFFF0
1FE3F0
3FC3F0
3FC3F0
7F83F0
7F8000
7F8000
FF8000
FF8000
FF07E0
7F07E0
7F0FC0
7F9FC0
3FFFC0
1FFFC0
03FE00
01E000
01C000
01FC00
01FE00
039E00
001E00
011E00
03FC00
00E000
ENDCHAR
STARTCHAR 00E8
ENCODING 232
SWIDTH 546 0
DWIDTH 22 0
BBX 21 26 0 0
BITMAP
07F000
01F800
00FC00
007E00
001E00
000F00
000000
000000
00FF80
03FFF0
0FFFF0
1FE3F8
3FC3F8
7FC3F8
7FC3F8
7F83F8
7FFFF8
FFFFF0
FF8000
FF8000
7F07F0
7F0FE0
7F9FE0
3FFFE0
1FFFC0
03FE00
ENDCHAR
STARTCHAR 00E9
ENCODING 233
SWIDTH 546 0
DWIDTH 22 0
BBX 22 26 0 0
BITMAP
0001FC
0003F0
0003E0
0007C0
000F80
001E00
000000
000000
00FF80
03FFF0
0FFFF0
1FE3F8
3FC3F8
7FC3F8
7FC3F8
7F83F8
7FFFF8
FFFFF0
FF8000
FF8000
7F07F0
7F0FE0
7F9FE0
3FFFE0
1FFFC0
03FE00
ENDCHAR
STARTCHAR 00EA
ENCODING 234
SWIDTH 546 0
DWIDTH 22 0
BBX 21 26 0 0
BITMAP
000FC0
001FE0
003FE0
0078F0
00F078
03C038
000000
000000
00FF80
03FFF0
0FFFF0
1FE3F8
3FC3F8
7FC3F8
7FC3F8
7F83F8
7FFFF8
FFFFF0
FF8000
FF8000
7F07F0
7F0FE0
7F9FE0
3FFFE0
1FFFC0
03FE00
ENDCHAR
STARTCHAR 00EB
ENCODING 235
SWIDTH 546 0
DWIDTH 22 0
BBX 22 26 0 0
BITMAP
00F078
01F8F8
01F8FC
01F9F8
01F8F8
00F0F0
000000
000000
00FF80
03FFF0
0FFFF0
1FE3F8
3FC3F8
7FC3F8
7FC3F8
7F83F8
7FFFF8
FFFFF0
FF8000
FF8000
7F07F0
7F0FE0
7F9FE0
3FFFE0
1FFFC0
03FE00
ENDCHAR
STARTCHAR 00EC
ENCODING 236
SWIDTH 297 0
DWIDTH 12 0
BBX 13 26 -2 0
BITMAP
FF00
3F00
0F80
07C0
03E0
01E0
0000
0000
07F8
07F8
07F8
07F8
0FF8
0FF0
0FF0
0FF0
1FF0
1FE0
1FE0
1FE0
1FE0
3FE0
3FC0
3FC0
3FC0
3FC0
ENDCHAR
STARTCHAR 00ED
ENCODING 237
SWIDTH 297 0
DWIDTH 12 0
BBX 16 26 0 0
BITMAP
007F
00FC
01F8
01E0
03C0
0780
0000
0000
1FE0
1FE0
1FE0
1FE0
3FE0
3FC0
3FC0
3FC0
7FC0
7F80
7F80
7F80
7F80
FF80
FF00
FF00
FF00
FF00
ENDCHAR
STARTCHAR 00EE
ENCODING 238
SWIDTH 297 0
DWIDTH 12 0
BBX 16 26 0 0
BITMAP
03F8
07F8
0FBC
1E1C
3C0E
700F
0000
0000
1FE0
1FE0
1FE0
1FE0
3FE0
3FC0
3FC0
3FC0
7FC0
7F80
7F80
7F80
7F80
FF80
FF00
FF00
FF00
FF00
ENDCHAR
STARTCHAR 00EF
ENCODING 239
SWIDTH 297 0
DWIDTH 12 0
BBX 16 26 0 0
BITMAP
3C1E
3E3E
7E3F
7E3F
7E3E
3C1C
0000
0000
1FE0
1FE0
1FE0
1FE0
3FE0
3FC0
3FC0
3FC0
7FC0
7F80
7F80
7F80
7F80
FF80
FF00
FF00
FF00
FF00
ENDCHAR
STARTCHAR 00F0
ENCODING 240
SWIDTH 620 0
DWIDTH 25 0
BBX 27 28 0 0
BITMAP
00018000
0007E000
0001F000
0000F800
0000FFE0
001FFFE0
001FFFE0
001FFE00
00007F00
00007F00
0040FF00
07F8FF00
1FFEFF00
1FFEFF00
3FFFFF00
7FFFFF00
7FC7FF00
7FC3FF00
7F87FE00
7F87FE00
FF87FC00
7F07FC00
7F07F800
7F0FF000
7F8FE000
3FFFC000
1FFF0000
03FC0000
ENDCHAR
STARTCHAR 00F1
ENCODING 241
SWIDTH 571 0
DWIDTH 23 0
BBX 22 26 0 0
BITMAP
007E0C
00FFFC
01FFF8
03FFF0
0307E0
000000
000000
000000
1FC1F0
1FCFF8
1FDFFC
1FFFFC
3FE3FC
3FC3FC
3FC3FC
3FC3FC
7FC7FC
7FC7F8
7F87F8
7F87F8
7F87F8
FF8FF8
FF0FF0
FF0FF0
FF0FF0
FF1FF0
ENDCHAR
STARTCHAR 00F2
ENCODING 242
SWIDTH 571 0
DWIDTH 23 0
BBX 22 26 0 0
BITMAP
0FE000
03F000
01F800
00F800
003C00
001E00
000000
000000
00FF80
07FFE0
0FFFF0
1FE7F8
3FC3F8
3FC3FC
7F83FC
7F83FC
7F87FC
FF87FC
FF87F8
7F87F8
7F0FF8
7F8FF0
7F9FF0
3FFFE0
1FFF80
07FC00
ENDCHAR
STARTCHAR 00F3
ENCODING 243
SWIDTH 571 0
DWIDTH 23 0
BBX 22 26 0 0
BITMAP
0003F8
0003F0
0007C0
000F80
000F00
001E00
000000
000000
00FF80
07FFE0
0FFFF0
1FE7F8
3FC3F8
3FC3FC
7F83FC
7F83FC
7F87FC
FF87FC
FF87F8
7F87F8
7F0FF8
7F8FF0
7F9FF0
3FFFE0
1FFF80
07FC00
ENDCHAR
STARTCHAR 00F4
ENCODING 244
SWIDTH 571 0
DWIDTH 23 0
BBX 22 26 0 0
BITMAP
001FC0
003FC0
007DE0
00F8E0
01E0F0
03C078
000000
000000
00FF80
07FFE0
0FFFF0
1FE7F8
3FC3F8
3FC3FC
7F83FC
7F83FC
7F87FC
FF87FC
FF87F8
7F87F8
7F0FF8
7F8FF0
7F9FF0
3FFFE0
1FFF80
07FC00
ENDCHAR
STARTCHAR 00F5
ENCODING 245
SWIDTH 571 0
DWIDTH 23 0
BBX 22 26 0 0
BITMAP
007E0C
00FFFC
01FFF8
03FFF0
0107E0
000000
000000
000000
00FF80
07FFE0
0FFFF0
1FE7F8
3FC3F8
3FC3FC
7F83FC
7F83FC
7F87FC
FF87FC
FF87F8
7F87F8
7F0FF8
7F8FF0
7F9FF0
3FFFE0
1FFF80
07FC00
ENDCHAR
STARTCHAR 00F6
ENCODING 246
SWIDTH 571 0
DWIDTH 23 0
BBX 22 26 0 0
BITMAP
00E0F0
01F1F8
01F9F8
03F1F8
01F1F8
01E0F0
000000
000000
00FF80
07FFE0
0FFFF0
1FE7F8
3FC3F8
3FC3FC
7F83FC
7F83FC
7F87FC
FF87FC
FF87F8
7F87F8
7F0FF8
7F8FF0
7F9FF0
3FFFE0
1FFF80
07FC00
ENDCHAR
STARTCHAR 00F7
ENCODING 247
SWIDTH 446 0
DWIDTH 18 0
BBX 17 24 1 1
BITMAP
007800
00FC00
01FC00
01FE00
01FC00
01FC00
00F800
000000
000000
000000
7FFF80
7FFF80
7FFF80
FFFF00
000000
000000
000000
078000
1FC000
1FC000
1FC000
1FC000
1FC000
0F0000
ENDCHAR
STARTCHAR 00F8
ENCODING 248
SWIDTH 571 0
DWIDTH 23 0
BBX 22 20 0 -1
BITMAP
000020
00FFF0
03FFE0
0FFFF0
1FE7F8
3FC3F8
7FC7FC
7F8FFC
7F9FFC
7FBFFC
FFB7FC
FFE7F8
7FE7F8
7FCFF8
7F8FF0
7F9FF0
3FFFE0
1FFF80
1FFC00
180000
ENDCHAR
STARTCHAR 00F9
ENCODING 249
SWIDTH 571 0
DWIDTH 23 0
BBX 23 26 0 0
BITMAP
0FF000
03F000
01F800
007C00
003C00
001E00
000000
000000
1FE1FE
1FE1FE
1FE3FE
3FC3FC
3FC3FC
3FC3FC
3FC3FC
3FC7FC
7F87F8
7F87F8
7F87F8
7F87F8
FF8FF8
FF8FF0
7FFFF0
7FFFF0
3FE7F0
1F07F0
ENDCHAR
STARTCHAR 00FA
ENCODING 250
SWIDTH 571 0
DWIDTH 23 0
BBX 23 26 0 0
BITMAP
0003FC
0003F0
0007E0
000F80
000F00
001E00
000000
000000
1FE1FE
1FE1FE
1FE3FE
3FC3FC
3FC3FC
3FC3FC
3FC3FC
3FC7FC
7F87F8
7F87F8
7F87F8
7F87F8
FF8FF8
FF8FF0
7FFFF0
7FFFF0
3FE7F0
1F07F0
ENDCHAR
STARTCHAR 00FB
ENCODING 251
SWIDTH 571 0
DWIDTH 23 0
BBX 23 26 0 0
BITMAP
000FC0
001FE0
003FF0
0078F0
00F078
03C038
000000
000000
1FE1FE
1FE1FE
1FE3FE
3FC3FC
3FC3FC
3FC3FC
3FC3FC
3FC7FC
7F87F8
7F87F8
7F87F8
7F87F8
FF8FF8
FF8FF0
7FFFF0
7FFFF0
3FE7F0
1F07F0
ENDCHAR
STARTCHAR 00FC
ENCODING 252
SWIDTH 571 0
DWIDTH 23 0
BBX 23 26 0 0
BITMAP
00F070
01F8F8
01F9F8
01F9F8
01F1F8
00E0F0
000000
000000
1FE1FE
1FE1FE
1FE3FE
3FC3FC
3FC3FC
3FC3FC
3FC3FC
3FC7FC
7F87F8
7F87F8
7F87F8
7F87F8
FF8FF8
FF8FF0
7FFFF0
7FFFF0
3FE7F0
1F07F0
ENDCHAR
STARTCHAR 00FD
ENCODING 253
SWIDTH 521 0
DWIDTH 21 0
BBX 25 33 -3 -7
BITMAP
00003F80
00003F00
00007C00
0000F800
0000F000
0001C000
00000000
00000000
07F80F80
07F80F00
07F81E00
07F81E00
07F83C00
07FC3C00
07FC7800
03FC7800
03FCF000
03FCF000
03FDE000
03FDE000
03FFC000
03FFC000
03FF8000
01FF8000
01FF0000
01FF0000
01FE0000
01FC0000
01FC0000
03F80000
7FF00000
7FE00000
FF000000
ENDCHAR
STARTCHAR 00FE
ENCODING 254
SWIDTH 571 0
DWIDTH 23 0
BBX 24 34 -2 -7
BITMAP
01FE00
01FE00
01FE00
03FE00
03FE00
03FC00
03FC00
03FC00
07FC00
07FC7C
07F9FE
07FBFF
07FFFF
0FFFFF
0FF8FF
0FF0FF
0FF0FF
0FF0FF
1FF0FF
1FE1FF
1FE1FE
1FE1FE
1FE3FE
3FFFFC
3FDFF8
3FCFF8
3FC7E0
7FC000
7F8000
7F8000
7F8000
7F8000
FF8000
FF0000
ENDCHAR
STARTCHAR 00FF
ENCODING 255
SWIDTH 521 0
DWIDTH 21 0
BBX 25 33 -3 -7
BITMAP
000E0F00
001F1F80
003F1F80
003F1F80
001F1F80
001E0F00
00000000
00000000
07F80F80
07F80F00
07F81E00
07F81E00
07F83C00
07FC3C00
07FC7800
03FC7800
03FCF000
03FCF000
03FDE000
03FDE000
03FFC000
03FFC000
03FF8000
01FF8000
01FF0000
01FF0000
01FE0000
01FC0000
01FC0000
03F80000
7FF00000
7FE00000
FF000000
ENDCHAR
STARTCHAR 0100
ENCODING 256
SWIDTH 595 0
DWIDTH 24 0
BBX 25 33 -2 0
BITMAP
001FFF80
001FFF80
003FFF80
00000000
00000000
00000000
00000000
000FF800
001FFC00
001FFC00
003FFC00
003FFC00
007FFC00
007FFC00
0077FC00
00F7FC00
00E7FC00
01E7FE00
01E3FE00
03C3FE00
03C3FE00
0783FE00
0783FE00
0F03FE00
0FFFFE00
0FFFFE00
1FFFFE00
1E03FF00
3C03FF00
3C03FF00
7801FF00
7801FF00
F001FF00
ENDCHAR
STARTCHAR 0101
ENCODING 257
SWIDTH 546 0
DWIDTH 22 0
BBX 22 25 -1 0
BITMAP
00FFFC
01FFFC
01FFF8
000000
000000
000000
000000
00FF80
07FFF0
0FFFF8
0FC3F8
1F83F8
0003FC
0003FC
07FFF8
1FFFF8
3FC7F8
7F87F8
7F07F8
FF0FF8
FF0FF0
7FFFF0
7FFFF0
3FE7F0
1F07E0
ENDCHAR
STARTCHAR 0102
ENCODING 258
SWIDTH 595 0
DWIDTH 24 0
BBX 25 34 -2 0
BITMAP
00000100
000C0380
000E0700
000FFE00
0007FC00
0001F000
00000000
00000000
000FF800
001FFC00
001FFC00
003FFC00
003FFC00
007FFC00
007FFC00
0077FC00
00F7FC00
00E7FC00
01E7FE00
01E3FE00
03C3FE00
03C3FE00
0783FE00
0783FE00
0F03FE00
0FFFFE00
0FFFFE00
1FFFFE00
1E03FF00
3C03FF00
3C03FF00
7801FF00
7801FF00
F001FF00
ENDCHAR
STARTCHAR 0103
ENCODING 259
SWIDTH 546 0
DWIDTH 22 0
BBX 22 26 -1 0
BITMAP
000010
00C038
00E070
007FF0
007FC0
001F80
000000
000000
00FF80
07FFF0
0FFFF8
0FC3F8
1F83F8
0003FC
0003FC
07FFF8
1FFFF8
3FC7F8
7F87F8
7F07F8
FF0FF8
FF0FF0
7FFFF0
7FFFF0
3FE7F0
1F07E0
ENDCHAR
STARTCHAR 0104
ENCODING 260
SWIDTH 595 0
DWIDTH 24 0
BBX 24 35 -2 -9
BITMAP
000FF8
001FFC
001FFC
003FFC
003FFC
007FFC
007FFC
0077FC
00F7FC
00E7FC
01E7FE
01E3FE
03C3FE
03C3FE
0783FE
0783FE
0F03FE
0FFFFE
0FFFFE
1FFFFE
1E03FF
3C03FF
3C03FF
7801FF
7801FF
F001FF
00003C
0000F8
0001F0
0001E0
0003E0
0003F6
0003FF
0001FC
000040
ENDCHAR
STARTCHAR 0105
ENCODING 261
SWIDTH 546 0
DWIDTH 22 0
BBX 22 26 -1 -8
BITMAP
00FF80
07FFF0
0FFFF8
0FC3F8
1F83F8
0003FC
0003FC
07FFF8
1FFFF8
3FC7F8
7F87F8
7F07F8
FF0FF8
FF0FF0
7FFFF0
7FFFF0
3FE7F0
1F07E0
0003C0
000F00
001F00
001E00
003E20
003FF0
003FE0
001F80
ENDCHAR
STARTCHAR 0106
ENCODING 262
SWIDTH 645 0
DWIDTH 26 0
BBX 25 35 1 0
BITMAP
00003F80
00007F00
00007E00
0000F800
0000F000
0001E000
0003C000
00000000
00000000
001FF000
007FFE00
01FFFF80
07FC7F80
0FF87F80
0FF07F80
1FF07F80
3FE07F00
3FE07F00
7FE07F00
7FC00000
7FC00000
7FC00000
FFC00000
FFC00000
FFC00000
FF80FE00
FF81FE00
7F81FE00
7F81FC00
7F83FC00
3F83FC00
3FC7FC00
1FFFFC00
07FFF000
01FF0000
ENDCHAR
STARTCHAR 0107
ENCODING 263
SWIDTH 521 0
DWIDTH 21 0
BBX 22 26 0 0
BITMAP
0001FC
0003F0
0007E0
0007C0
000F80
001E00
000000
000000
00FF80
03FFF0
0FFFF0
1FE3F0
3FC3F0
3FC3F0
7F83F0
7F8000
7F8000
FF8000
FF8000
FF07E0
7F07E0
7F0FC0
3F9FC0
3FFFC0
0FFFC0
03FE00
ENDCHAR
STARTCHAR 0108
ENCODING 264
SWIDTH 645 0
DWIDTH 26 0
BBX 25 35 1 0
BITMAP
0003F000
0007F800
000FF800
001F3C00
003E1C00
00781E00
00F00E00
00000000
00000000
001FF000
007FFE00
01FFFF80
07FC7F80
0FF87F80
0FF07F80
1FF07F80
3FE07F00
3FE07F00
7FE07F00
7FC00000
7FC00000
7FC00000
FFC00000
FFC00000
FFC00000
FF80FE00
FF81FE00
7F81FE00
7F81FC00
7F83FC00
3F83FC00
3FC7FC00
1FFFFC00
07FFF000
01FF0000
ENDCHAR
STARTCHAR 0109
ENCODING 265
SWIDTH 521 0
DWIDTH 21 0
BBX 21 26 0 0
BITMAP
001FC0
003FC0
007DE0
00F8E0
01E0F0
03C078
000000
000000
00FF80
03FFF0
0FFFF0
1FE3F0
3FC3F0
3FC3F0
7F83F0
7F8000
7F8000
FF8000
FF8000
FF07E0
7F07E0
7F0FC0
3F9FC0
3FFFC0
0FFFC0
03FE00
ENDCHAR
STARTCHAR 010A
ENCODING 266
SWIDTH 645 0
DWIDTH 26 0
BBX 25 35 1 0
BITMAP
0001E000
0007F000
0007F800
0007F800
0007F800
0007F000
0003E000
00000000
00000000
001FF000
007FFE00
01FFFF80
07FC7F80
0FF87F80
0FF07F80
1FF07F80
3FE07F00
3FE07F00
7FE07F00
7FC00000
7FC00000
7FC00000
FFC00000
FFC00000
FFC00000
FF80FE00
FF81FE00
7F81FE00
7F81FC00
7F83FC00
3F83FC00
3FC7FC00
1FFFFC00
07FFF000
01FF0000
ENDCHAR
STARTCHAR 010B
ENCODING 267
SWIDTH 521 0
DWIDTH 21 0
BBX 20 26 0 0
BITMAP
000F80
001FC0
003FC0
003FC0
003FC0
001FC0
000F00
000000
00FF80
03FFF0
0FFFF0
1FE3F0
3FC3F0
3FC3F0
7F83F0
7F8000
7F8000
FF8000
FF8000
FF07E0
7F07E0
7F0FC0
3F9FC0
3FFFC0
0FFFC0
03FE00
ENDCHAR
STARTCHAR 010C
ENCODING 268
SWIDTH 645 0
DWIDTH 26 0
BBX 25 35 1 0
BITMAP
00380380
001C0F00
001E1E00
000F7C00
000FF800
0007F000
0007E000
00000000
00000000
001FF000
007FFE00
01FFFF80
07FC7F80
0FF87F80
0FF07F80
1FF07F80
3FE07F00
3FE07F00
7FE07F00
7FC00000
7FC00000
7FC00000
FFC00000
FFC00000
FFC00000
FF80FE00
FF81FE00
7F81FE00
7F81FC00
7F83FC00
3F83FC00
3FC7FC00
1FFFFC00
07FFF000
01FF0000
ENDCHAR
STARTCHAR 010D
ENCODING 269
SWIDTH 521 0
DWIDTH 21 0
BBX 22 26 0 0
BITMAP
01E03C
00F078
0078F0
007BE0
003FC0
003F80
000000
000000
00FF80
03FFF0
0FFFF0
1FE3F0
3FC3F0
3FC3F0
7F83F0
7F8000
7F8000
FF8000
FF8000
FF07E0
7F07E0
7F0FC0
3F9FC0
3FFFC0
0FFFC0
03FE00
ENDCHAR
STARTCHAR 010E
ENCODING 270
SWIDTH 645 0
DWIDTH 26 0
BBX 26 34 0 0
BITMAP
00780F00
003C1E00
001E7C00
001FF800
000FF000
0007E000
00000000
00000000
07FFF000
07FFFE00
07FFFF00
07F87F80
0FF83F80
0FF83F80
0FF83FC0
0FF83FC0
0FF07FC0
1FF07FC0
1FF07FC0
1FF07FC0
1FE07FC0
1FE07FC0
3FE0FFC0
3FE0FF80
3FE0FF80
3FC0FF80
3FC1FF00
7FC1FF00
7FC3FE00
7FC3FC00
7F87F800
7FFFF000
FFFFE000
FFFF0000
ENDCHAR
STARTCHAR 010F
ENCODING 271
SWIDTH 670 0
DWIDTH 27 0
BBX 32 27 0 0
BITMAP
00007F9E
0000FFBF
0000FF7F
0000FF7F
0000FF7F
0001FF3F
0001FE1E
0001FE1C
0001FE78
03F3FE70
0FFBFE40
1FFFFC00
1FFFFC00
3FC7FC00
3FC7FC00
7F87FC00
7F87F800
7F87F800
FF87F800
FF0FF800
FF0FF800
FF0FF000
FF1FF000
FFFFF000
7FEFF000
3FCFE000
1F07E000
ENDCHAR
STARTCHAR 0110
ENCODING 272
SWIDTH 670 0
DWIDTH 27 0
BBX 26 26 0 0
BITMAP
03FFF800
03FFFE00
07FFFF00
07FC3F80
07FC3FC0
07F83FC0
0FF83FC0
0FF83FC0
0FF83FC0
0FF83FC0
0FF03FC0
7FFE7FC0
7FFE7FC0
FFFE7FC0
1FE07FC0
1FE07FC0
3FE0FFC0
3FE0FF80
3FE0FF80
3FC1FF00
3FC1FF00
7FC3FE00
7FC7FC00
7FFFF800
7FFFE000
FFFF0000
ENDCHAR
STARTCHAR 0111
ENCODING 273
SWIDTH 571 0
DWIDTH 23 0
BBX 27 28 0 0
BITMAP
00007F80
0000FF80
0000FF00
0000FF00
000FFFE0
000FFFE0
000FFFE0
0001FE00
0001FE00
0001FE00
03F1FE00
0FFBFC00
1FFFFC00
1FFFFC00
3FE7FC00
3FC3FC00
7F87F800
7F87F800
7F87F800
FF87F800
FF8FF800
FF0FF000
FF0FF000
FF1FF000
FFFFF000
7FFFF000
3FCFE000
1F8FE000
ENDCHAR
STARTCHAR 0112
ENCODING 274
SWIDTH 496 0
DWIDTH 20 0
BBX 22 33 0 0
BITMAP
00FFFC
01FFFC
01FFF8
000000
000000
000000
000000
07FFFC
07FFFC
07FFFC
07F800
0FF800
0FF800
0FF800
0FF800
0FF000
1FF000
1FF000
1FFFE0
1FFFC0
1FFFC0
3FE000
3FE000
3FE000
3FC000
3FC000
7FC000
7FC000
7FC000
7F8000
7FFF80
FFFF80
FFFF80
ENDCHAR
STARTCHAR 0113
ENCODING 275
SWIDTH 546 0
DWIDTH 22 0
BBX 22 25 0 0
BITMAP
00FFFC
00FFFC
01FFFC
000000
000000
000000
000000
00FF80
03FFF0
0FFFF0
1FE3F8
3FC3F8
7FC3F8
7FC3F8
7F83F8
7FFFF8
FFFFF0
FF8000
FF8000
7F07F0
7F0FE0
7F9FE0
3FFFE0
1FFFC0
03FE00
ENDCHAR
STARTCHAR 0114
ENCODING 276
SWIDTH 496 0
DWIDTH 20 0
BBX 22 34 0 0
BITMAP
000008
00E018
00F078
007FF0
003FE0
001F80
000000
000000
07FFFC
07FFFC
07FFFC
07F800
0FF800
0FF800
0FF800
0FF800
0FF000
1FF000
1FF000
1FFFE0
1FFFC0
1FFFC0
3FE000
3FE000
3FE000
3FC000
3FC000
7FC000
7FC000
7FC000
7F8000
7FFF80
FFFF80
FFFF80
ENDCHAR
STARTCHAR 0115
ENCODING 277
SWIDTH 546 0
DWIDTH 22 0
BBX 21 26 0 0
BITMAP
000010
00C038
00E0F0
00FFE0
007FC0
001F00
000000
000000
00FF80
03FFF0
0FFFF0
1FE3F8
3FC3F8
7FC3F8
7FC3F8
7F83F8
7FFFF8
FFFFF0
FF8000
FF8000
7F07F0
7F0FE0
7F9FE0
3FFFE0
1FFFC0
03FE00
ENDCHAR
STARTCHAR 0116
ENCODING 278
SWIDTH 496 0
DWIDTH 20 0
BBX 22 34 0 0
BITMAP
000780
001FC0
001FE0
003FE0
003FC0
001FC0
000F00
000000
07FFFC
07FFFC
07FFFC
07F800
0FF800
0FF800
0FF800
0FF800
0FF000
1FF000
1FF000
1FFFE0
1FFFC0
1FFFC0
3FE000
3FE000
3FE000
3FC000
3FC000
7FC000
7FC000
7FC000
7F8000
7FFF80
FFFF80
FFFF80
ENDCHAR
STARTCHAR 0117
ENCODING 279
SWIDTH 546 0
DWIDTH 22 0
BBX 21 26 0 0
BITMAP
000F00
003F80
003FC0
003FC0
003FC0
003F80
001F00
000000
00FF80
03FFF0
0FFFF0
1FE3F8
3FC3F8
7FC3F8
7FC3F8
7F83F8
7FFFF8
FFFFF0
FF8000
FF8000
7F07F0
7F0FE0
7F9FE0
3FFFE0
1FFFC0
03FE00
ENDCHAR
STARTCHAR 0118
ENCODING 280
SWIDTH 496 0
DWIDTH 20 0
BBX 22 35 0 -9
BITMAP
07FFFC
07FFFC
07FFFC
07F800
0FF800
0FF800
0FF800
0FF800
0FF000
1FF000
1FF000
1FFFE0
1FFFC0
1FFFC0
3FE000
3FE000
3FE000
3FC000
3FC000
7FC000
7FC000
7FC000
7F8000
7FFF80
FFFF80
FFFF80
01E000
03C000
078000
0F8000
0F8000
0F9800
0FF800
0FE000
010000
ENDCHAR
STARTCHAR 0119
ENCODING 281
SWIDTH 546 0
DWIDTH 22 0
BBX 21 26 0 -8
BITMAP
00FF80
03FFF0
0FFFF0
1FE3F8
3FC3F8
7FC3F8
7FC3F8
7F83F8
7FFFF8
FFFFF0
FF8000
FF8000
7F07F0
7F0FE0
7F9FE0
3FFFE0
1FFFC0
03FF00
003C00
007800
00F800
01F000
01F100
01FF80
01FF00
00FC00
ENDCHAR
STARTCHAR 011A
ENCODING 282
SWIDTH 496 0
DWIDTH 20 0
BBX 23 34 0 0
BITMAP
00E03E
00F078
0079F0
003FE0
003FC0
001F80
000000
000000
07FFFC
07FFFC
07FFFC
07F800
0FF800
0FF800
0FF800
0FF800
0FF000
1FF000
1FF000
1FFFE0
1FFFC0
1FFFC0
3FE000
3FE000
3FE000
3FC000
3FC000
7FC000
7FC000
7FC000
7F8000
7FFF80
FFFF80
FFFF80
ENDCHAR
STARTCHAR 011B
ENCODING 283
SWIDTH 546 0
DWIDTH 22 0
BBX 23 26 0 0
BITMAP
00E03E
00F078
0078F0
007FE0
003FC0
001F80
000000
000000
00FF80
03FFF0
0FFFF0
1FE3F8
3FC3F8
7FC3F8
7FC3F8
7F83F8
7FFFF8
FFFFF0
FF8000
FF8000
7F07F0
7F0FE0
7F9FE0
3FFFE0
1FFFC0
03FE00
ENDCHAR
STARTCHAR 011C
ENCODING 284
SWIDTH 645 0
DWIDTH 26 0
BBX 25 35 1 0
BITMAP
0001F800
0003F800
0007FC00
000F3C00
001E1E00
003C0E00
00700700
00000000
00000000
001FF000
00FFFE00
01FFFF80
07FC7F80
0FF87F80
1FF07F00
1FF07F00
3FE07F00
3FE07F00
7FE07F00
7FE00000
7FC00000
7FC00000
FFC00000
FFC7FF00
FFC7FE00
FFC7FE00
7F80FE00
7F80FE00
7F81FE00
7F81FC00
3FC3FC00
3FC7FC00
1FFEFC00
0FFCFC00
03F8F800
ENDCHAR
STARTCHAR 011D
ENCODING 285
SWIDTH 571 0
DWIDTH 23 0
BBX 23 33 0 -7
BITMAP
0007E0
000FF0
001FF8
003C78
00783C
01F01C
000002
000000
03F0FE
07FDFE
1FFDFC
1FFFFC
3FC7FC
3FC3FC
7F87FC
7F87F8
7F87F8
7F87F8
FF8FF8
FF0FF0
FF0FF0
FF9FF0
7FFFF0
7FFFF0
3FDFE0
1F1FE0
001FE0
001FC0
003FC0
007F80
7FFF00
7FFC00
7FE000
ENDCHAR
STARTCHAR 011E
ENCODING 286
SWIDTH 645 0
DWIDTH 26 0
BBX 25 35 1 0
BITMAP
00000200
00180700
001C0E00
000FFE00
000FF800
0003E000
00000000
00000000
00000000
001FF000
00FFFE00
01FFFF80
07FC7F80
0FF87F80
1FF07F00
1FF07F00
3FE07F00
3FE07F00
7FE07F00
7FE00000
7FC00000
7FC00000
FFC00000
FFC7FF00
FFC7FE00
FFC7FE00
7F80FE00
7F80FE00
7F81FE00
7F81FC00
3FC3FC00
3FC7FC00
1FFEFC00
0FFCFC00
03F8F800
ENDCHAR
STARTCHAR 011F
ENCODING 287
SWIDTH 571 0
DWIDTH 23 0
BBX 23 33 0 -7
BITMAP
000008
00601C
00703C
003FF8
003FF0
000FC0
000000
000000
03F0FE
07FDFE
1FFDFC
1FFFFC
3FC7FC
3FC3FC
7F87FC
7F87F8
7F87F8
7F87F8
FF8FF8
FF0FF0
FF0FF0
FF9FF0
7FFFF0
7FFFF0
3FDFE0
1F1FE0
001FE0
001FC0
003FC0
007F80
7FFF00
7FFC00
7FE000
ENDCHAR
STARTCHAR 0120
ENCODING 288
SWIDTH 645 0
DWIDTH 26 0
BBX 25 35 1 0
BITMAP
0003E000
0007F000
000FF000
000FF000
000FF000
0007F000
0003C000
00000000
00000000
001FF000
00FFFE00
01FFFF80
07FC7F80
0FF87F80
1FF07F00
1FF07F00
3FE07F00
3FE07F00
7FE07F00
7FE00000
7FC00000
7FC00000
FFC00000
FFC7FF00
FFC7FE00
FFC7FE00
7F80FE00
7F80FE00
7F81FE00
7F81FC00
3FC3FC00
3FC7FC00
1FFEFC00
0FFCFC00
03F8F800
ENDCHAR
STARTCHAR 0121
ENCODING 289
SWIDTH 571 0
DWIDTH 23 0
BBX 23 33 0 -7
BITMAP
0003C0
000FE0
000FF0
001FF0
000FE0
000FE0
0007C0
000000
03F0FE
07FDFE
1FFDFC
1FFFFC
3FC7FC
3FC3FC
7F87FC
7F87F8
7F87F8
7F87F8
FF8FF8
FF0FF0
FF0FF0
FF9FF0
7FFFF0
7FFFF0
3FDFE0
1F1FE0
001FE0
001FC0
003FC0
007F80
7FFF00
7FFC00
7FE000
ENDCHAR
STARTCHAR 0122
ENCODING 290
SWIDTH 645 0
DWIDTH 26 0
BBX 25 37 1 -11
BITMAP
001FF000
00FFFE00
01FFFF80
07FC7F80
0FF87F80
1FF07F00
1FF07F00
3FE07F00
3FE07F00
7FE07F00
7FE00000
7FC00000
7FC00000
FFC00000
FFC7FF00
FFC7FE00
FFC7FE00
7F80FE00
7F80FE00
7F81FE00
7F81FC00
3FC3FC00
3FC7FC00
1FFEFC00
0FFCFC00
03F8F800
00000000
00000000
00380000
00FC0000
00FC0000
007C0000
003C0000
00380000
00700000
00E00000
00C00000
ENDCHAR
STARTCHAR 0123
ENCODING 291
SWIDTH 571 0
DWIDTH 23 0
BBX 23 36 0 -7
BITMAP
000080
0001C0
000380
000700
000F00
000F00
001F80
001F80
000F80
000200
000000
03F0FE
07FDFE
1FFDFC
1FFFFC
3FC7FC
3FC3FC
7F87FC
7F87F8
7F87F8
7F87F8
FF8FF8
FF0FF0
FF0FF0
FF9FF0
7FFFF0
7FFFF0
3FDFE0
1F1FE0
001FE0
001FC0
003FC0
007F80
7FFF00
7FFC00
7FE000
ENDCHAR
STARTCHAR 0124
ENCODING 292
SWIDTH 670 0
DWIDTH 27 0
BBX 28 34 0 0
BITMAP
0001F800
0003FC00
000F9E00
001F1E00
003C0F00
00780700
00000000
00000000
07FC1FF0
07FC1FE0
07FC3FE0
07F83FE0
0FF83FE0
0FF83FE0
0FF83FC0
0FF87FC0
0FF07FC0
1FF07FC0
1FF07F80
1FFFFF80
1FFFFF80
1FFFFF80
3FE0FF80
3FE0FF00
3FE1FF00
3FC1FF00
3FC1FF00
7FC1FF00
7FC1FE00
7FC3FE00
7F83FE00
7F83FE00
FF83FE00
FF83FC00
ENDCHAR
STARTCHAR 0125
ENCODING 293
SWIDTH 571 0
DWIDTH 23 0
BBX 28 27 0 0
BITMAP
07F80000
07F83F80
07F87F80
07F8FBC0
0FF9E3C0
0FF3C1E0
0FF780F0
0FF00000
1FF00000
1FE1F000
1FE7F800
1FEFFC00
1FFFFC00
3FE3FC00
3FC3FC00
3FC3FC00
3FC3FC00
3FC7FC00
7FC7F800
7F87F800
7F87F800
7F87F800
7F8FF800
FF0FF000
FF0FF000
FF0FF000
FF1FF000
ENDCHAR
STARTCHAR 0126
ENCODING 294
SWIDTH 695 0
DWIDTH 28 0
BBX 30 26 1 0
BITMAP
07FC1FE0
07FC3FE0
07F83FE0
0FF83FE0
0FF83FE0
7FFFFFFC
7FFFFFF8
FFFFFFF8
1FF07FC0
1FF07F80
1FF07F80
1FFFFF80
1FFFFF80
3FFFFF80
3FE0FF00
3FE1FF00
3FC1FF00
3FC1FF00
7FC1FF00
7FC1FE00
7FC3FE00
7F83FE00
FF83FE00
FF83FC00
FF83FC00
FF87FC00
ENDCHAR
STARTCHAR 0127
ENCODING 295
SWIDTH 571 0
DWIDTH 23 0
BBX 22 28 0 0
BITMAP
07F800
07F800
07F800
07F800
07F800
7FFF00
FFFE00
FFFE00
0FF000
1FF000
1FE1F0
1FE7F8
1FEFFC
1FFFFC
3FE3FC
3FC3FC
3FC3FC
3FC3FC
3FC7FC
7FC7F8
7F87F8
7F87F8
7F87F8
7F8FF8
FF0FF0
FF0FF0
FF0FF0
FF1FF0
ENDCHAR
STARTCHAR 0128
ENCODING 296
SWIDTH 322 0
DWIDTH 13 0
BBX 20 34 0 0
BITMAP
01F070
07FFE0
0FFFC0
1FFFC0
083F00
000000
000000
000000
07FC00
07FC00
07FC00
07F800
0FF800
0FF800
0FF800
0FF800
0FF000
1FF000
1FF000
1FF000
1FE000
1FE000
3FE000
3FE000
3FE000
3FC000
3FC000
7FC000
7FC000
7FC000
7F8000
7F8000
FF8000
FF8000
ENDCHAR
STARTCHAR 0129
ENCODING 297
SWIDTH 297 0
DWIDTH 12 0
BBX 17 26 0 0
BITMAP
0FC180
1FFF80
3FFF00
7FFE00
60FC00
000000
000000
000000
1FE000
1FE000
1FE000
1FE000
3FE000
3FC000
3FC000
3FC000
7FC000
7F8000
7F8000
7F8000
7F8000
FF8000
FF0000
FF0000
FF0000
FF0000
ENDCHAR
STARTCHAR 012A
ENCODING 298
SWIDTH 322 0
DWIDTH 13 0
BBX 18 33 0 0
BITMAP
0FFFC0
0FFFC0
1FFFC0
000000
000000
000000
000000
07FC00
07FC00
07FC00
07F800
0FF800
0FF800
0FF800
0FF800
0FF000
1FF000
1FF000
1FF000
1FE000
1FE000
3FE000
3FE000
3FE000
3FC000
3FC000
7FC000
7FC000
7FC000
7F8000
7F8000
FF8000
FF8000
ENDCHAR
STARTCHAR 012B
ENCODING 299
SWIDTH 297 0
DWIDTH 12 0
BBX 16 25 0 0
BITMAP
3FFF
7FFF
7FFE
0000
0000
0000
0000
1FE0
1FE0
1FE0
1FE0
3FE0
3FC0
3FC0
3FC0
7FC0
7F80
7F80
7F80
7F80
FF80
FF00
FF00
FF00
FF00
ENDCHAR
STARTCHAR 012C
ENCODING 300
SWIDTH 322 0
DWIDTH 13 0
BBX 18 34 0 0
BITMAP
000080
0601C0
070380
07FF00
03FE00
00F800
000000
000000
07FC00
07FC00
07FC00
07F800
0FF800
0FF800
0FF800
0FF800
0FF000
1FF000
1FF000
1FF000
1FE000
1FE000
3FE000
3FE000
3FE000
3FC000
3FC000
7FC000
7FC000
7FC000
7F8000
7F8000
FF8000
FF8000
ENDCHAR
STARTCHAR 012D
ENCODING 301
SWIDTH 297 0
DWIDTH 12 0
BBX 16 26 0 0
BITMAP
0806
380F
1C1E
1FFC
0FF0
03C0
0000
0000
1FE0
1FE0
1FE0
1FE0
3FE0
3FC0
3FC0
3FC0
7FC0
7F80
7F80
7F80
7F80
FF80
FF00
FF00
FF00
FF00
ENDCHAR
STARTCHAR 012E
ENCODING 302
SWIDTH 322 0
DWIDTH 13 0
BBX 16 35 -2 -9
BITMAP
01FF
01FF
01FF
01FE
03FE
03FE
03FE
03FE
03FC
07FC
07FC
07FC
07F8
07F8
0FF8
0FF8
0FF8
0FF0
0FF0
1FF0
1FF0
1FF0
1FE0
1FE0
3FE0
3FE0
1F00
3C00
7C00
F800
F800
FD80
FF80
7F00
1000
ENDCHAR
STARTCHAR 012F
ENCODING 303
SWIDTH 297 0
DWIDTH 12 0
BBX 15 35 -3 -9
BITMAP
007C
00FE
01FE
01FE
01FE
00FE
0078
0000
03FC
03FC
03FC
03FC
07FC
07F8
07F8
07F8
0FF8
0FF0
0FF0
0FF0
0FF0
1FF0
1FE0
1FE0
1FE0
1FE0
0F00
3E00
7C00
7C00
7C00
FC80
7FC0
7F00
1000
ENDCHAR
STARTCHAR 0130
ENCODING 304
SWIDTH 322 0
DWIDTH 13 0
BBX 14 34 0 0
BITMAP
00F8
01FC
03FC
03FC
03FC
03F8
01F0
0000
07FC
07FC
07FC
07F8
0FF8
0FF8
0FF8
0FF8
0FF0
1FF0
1FF0
1FF0
1FE0
1FE0
3FE0
3FE0
3FE0
3FC0
3FC0
7FC0
7FC0
7FC0
7F80
7F80
FF80
FF80
ENDCHAR
STARTCHAR 0131
ENCODING 305
SWIDTH 297 0
DWIDTH 12 0
BBX 11 18 0 0
BITMAP
1FE0
1FE0
1FE0
1FE0
3FE0
3FC0
3FC0
3FC0
7FC0
7F80
7F80
7F80
7F80
FF80
FF00
FF00
FF00
FF00
ENDCHAR
STARTCHAR 0132
ENCODING 306
SWIDTH 893 0
DWIDTH 36 0
BBX 38 26 0 0
BITMAP
07FC0007FC
07FC0007F8
07FC000FF8
07F8000FF8
0FF8000FF8
0FF8000FF8
0FF8000FF0
0FF8001FF0
0FF0001FF0
1FF0001FF0
1FF0001FE0
1FF0001FE0
1FE0003FE0
1FE0003FE0
3FE0003FE0
3FE0003FC0
3FE7F87FC0
3FC7F87FC0
3FC7F87FC0
7FC7F07FC0
7FC7F07F80
7FCFF0FF80
7F8FF8FF00
7F83FFFE00
FF81FFF800
FF807FE000
ENDCHAR
STARTCHAR 0133
ENCODING 307
SWIDTH 571 0
DWIDTH 23 0
BBX 24 33 0 -7
BITMAP
03E03C
07F0FE
0FF0FF
0FF0FF
0FF0FF
07F0FE
03C07C
000000
1FE1FE
1FE3FE
1FE3FC
1FE3FC
3FE3FC
3FC3FC
3FC7FC
3FC7F8
7FC7F8
7F87F8
7F87F8
7F8FF8
7F8FF0
FF8FF0
FF0FF0
FF0FF0
FF1FF0
FF1FE0
001FE0
001FE0
003FC0
003F80
00FF00
01FE00
01F000
ENDCHAR
STARTCHAR 0134
ENCODING 308
SWIDTH 595 0
DWIDTH 24 0
BBX 29 35 -1 0
BITMAP
00000FC0
00001FC0
00003FE0
00007CF0
0000F0F0
0001E078
0003C038
00000000
00000000
00007FC0
00007F80
00007F80
0000FF80
0000FF80
0000FF80
0000FF00
0000FF00
0001FF00
0001FF00
0001FF00
0001FE00
0003FE00
0003FE00
0003FE00
0003FE00
7F83FC00
7F87FC00
7F87FC00
7F87FC00
7F07F800
FF8FF800
7F8FF000
3FFFE000
1FFF8000
03FE0000
ENDCHAR
STARTCHAR 0135
ENCODING 309
SWIDTH 297 0
DWIDTH 12 0
BBX 20 33 -4 -7
BITMAP
003F80
007F80
00FBC0
01E3C0
03C1E0
0F00F0
000000
000000
01FE00
01FE00
01FE00
01FE00
03FE00
03FC00
03FC00
03FC00
07FC00
07FC00
07F800
07F800
07F800
0FF800
0FF000
0FF000
0FF000
0FF000
1FF000
1FE000
1FE000
3FC000
FF8000
FE0000
F80000
ENDCHAR
STARTCHAR 0136
ENCODING 310
SWIDTH 595 0
DWIDTH 24 0
BBX 26 38 0 -12
BITMAP
07FC07C0
07FC0F80
07FC1F00
07F81E00
0FF83C00
0FF87800
0FF8F000
0FF9E000
0FF3C000
1FF7C000
1FFF8000
1FFFC000
1FFFC000
1FFFC000
3FFFE000
3FFFE000
3FEFF000
3FCFF000
3FCFF000
7FC7F800
7FC7F800
7FC7FC00
7F87FC00
7F83FC00
FF83FE00
FF83FE00
00000000
00000000
00200000
00F80000
00F80000
01F80000
00780000
00780000
00700000
00E00000
01C00000
01000000
ENDCHAR
STARTCHAR 0137
ENCODING 311
SWIDTH 595 0
DWIDTH 24 0
BBX 24 39 0 -12
BITMAP
07F800
07F800
07F800
07F800
0FF800
0FF000
0FF000
0FF000
1FF000
1FE01F
1FE07E
1FE0FC
1FE1F0
3FE3E0
3FC7C0
3FDF80
3FFF80
3FFF80
7FFFC0
7FBFC0
7FBFE0
7F9FF0
7F9FF0
FF0FF8
FF0FF8
FF07FC
FF07FC
000000
000000
004000
01F000
01F000
01F000
00F000
00F000
00E000
01C000
038000
010000
ENDCHAR
STARTCHAR 0138
ENCODING 312
SWIDTH 571 0
DWIDTH 23 0
BBX 24 18 0 0
BITMAP
1FE01F
1FE07E
1FE0FC
1FE1F0
3FE3E0
3FC7C0
3FDF80
3FFF80
7FFF80
7FFFC0
7FBFC0
7FBFE0
7F9FF0
FF9FF0
FF0FF8
FF0FF8
FF07FC
FF07FC
ENDCHAR
STARTCHAR 0139
ENCODING 313
SWIDTH 471 0
DWIDTH 19 0
BBX 19 34 0 0
BITMAP
000FE0
001F80
003F00
003C00
007800
00F000
000000
000000
07FC00
07FC00
07FC00
07F800
0FF800
0FF800
0FF800
0FF800
0FF000
1FF000
1FF000
1FF000
1FF000
1FE000
3FE000
3FE000
3FE000
3FC000
3FC000
7FC000
7FC000
7FC000
7F8000
7FFF80
FFFF80
FFFF80
ENDCHAR
STARTCHAR 013A
ENCODING 314
SWIDTH 297 0
DWIDTH 12 0
BBX 18 36 0 0
BITMAP
001FC0
003F00
007E00
007C00
00F800
00F000
01C000
000000
000000
07F800
07F800
07F800
07F800
0FF800
0FF000
0FF000
0FF000
1FF000
1FE000
1FE000
1FE000
1FE000
3FE000
3FC000
3FC000
3FC000
3FC000
7FC000
7F8000
7F8000
7F8000
7F8000
FF8000
FF0000
FF0000
FF0000
ENDCHAR
STARTCHAR 013B
ENCODING 315
SWIDTH 471 0
DWIDTH 19 0
BBX 17 38 0 -12
BITMAP
07FC00
07FC00
07FC00
07F800
0FF800
0FF800
0FF800
0FF800
0FF000
1FF000
1FF000
1FF000
1FF000
1FE000
3FE000
3FE000
3FE000
3FC000
3FC000
7FC000
7FC000
7FC000
7F8000
7FFF80
FFFF80
FFFF80
000000
000000
010000
07C000
07E000
07E000
03C000
03C000
038000
070000
0E0000
040000
ENDCHAR
STARTCHAR 013C
ENCODING 316
SWIDTH 297 0
DWIDTH 12 0
BBX 14 39 -1 -12
BITMAP
03FC
03FC
03FC
03FC
07FC
07F8
07F8
07F8
0FF8
0FF0
0FF0
0FF0
0FF0
1FF0
1FE0
1FE0
1FE0
1FE0
3FE0
3FC0
3FC0
3FC0
3FC0
7FC0
7F80
7F80
7F80
0000
0000
0800
3C00
7E00
7E00
3E00
3C00
3800
7000
E000
4000
ENDCHAR
STARTCHAR 013D
ENCODING 317
SWIDTH 471 0
DWIDTH 19 0
BBX 19 34 0 0
BITMAP
0F01E0
0783C0
03CF80
03FF00
01FE00
00FC00
000000
000000
07FC00
07FC00
07FC00
07F800
0FF800
0FF800
0FF800
0FF800
0FF000
1FF000
1FF000
1FF000
1FF000
1FE000
3FE000
3FE000
3FE000
3FC000
3FC000
7FC000
7FC000
7FC000
7F8000
7FFF80
FFFF80
FFFF80
ENDCHAR
STARTCHAR 013E
ENCODING 318
SWIDTH 397 0
DWIDTH 16 0
BBX 21 27 0 0
BITMAP
07F8F0
07F9F8
07FBF8
07FBF8
0FFBF8
0FF1F0
0FF0F0
0FF1E0
1FF3C0
1FE780
1FE200
1FE000
1FE000
3FE000
3FC000
3FC000
3FC000
3FC000
7FC000
7F8000
7F8000
7F8000
7F8000
FF8000
FF0000
FF0000
FF0000
ENDCHAR
STARTCHAR 013F
ENCODING 319
SWIDTH 496 0
DWIDTH 20 0
BBX 21 26 0 0
BITMAP
07FC00
07FC00
07FC00
07F800
0FF800
0FF800
0FF800
0FF800
0FF000
1FF000
1FF1E0
1FF7F0
1FF7F8
1FEFF8
3FEFF0
3FE7F0
3FE3C0
3FC000
3FC000
7FC000
7FC000
7FC000
7F8000
7FFF80
FFFF80
FFFF80
ENDCHAR
STARTCHAR 0140
ENCODING 320
SWIDTH 471 0
DWIDTH 19 0
BBX 20 27 0 0
BITMAP
07F800
07F800
07F800
07F800
0FF800
0FF000
0FF000
0FF000
1FF000
1FE000
1FE000
1FE3C0
1FEFE0
3FEFF0
3FCFF0
3FCFF0
3FCFE0
3FC7C0
7FC000
7F8000
7F8000
7F8000
7F8000
FF8000
FF0000
FF0000
FF0000
ENDCHAR
STARTCHAR 0141
ENCODING 321
SWIDTH 521 0
DWIDTH 21 0
BBX 19 26 0 0
BITMAP
01FE00
03FE00
03FE00
03FE00
03FC00
03FC00
07FC00
07FC00
07FC00
07F880
07FF80
0FFF80
FFFF80
FFFE00
FFF000
FFF000
1FF000
1FF000
1FF000
1FE000
3FE000
3FE000
3FE000
3FFFE0
3FFFC0
7FFFC0
ENDCHAR
STARTCHAR 0142
ENCODING 322
SWIDTH 397 0
DWIDTH 16 0
BBX 18 27 0 0
BITMAP
00FF00
01FF00
01FE00
01FE00
01FE00
01FE00
03FE00
03FC40
03FDC0
03FFC0
07FFC0
07FF80
3FFC00
7FF800
7FF800
FFF800
8FF000
0FF000
0FF000
0FF000
1FF000
1FE000
1FE000
1FE000
1FE000
3FC000
3FC000
ENDCHAR
STARTCHAR 0143
ENCODING 323
SWIDTH 645 0
DWIDTH 26 0
BBX 27 34 0 0
BITMAP
00003F80
00007E00
00007C00
0000F800
0001E000
0001C000
00000000
00000000
07FE01E0
07FE01C0
07FF01C0
07FF03C0
0FFF03C0
0FFF03C0
0FFF0380
0EFF8380
0EFF8780
1EFF8780
1EFF8780
1E7F8700
1C7FC700
1C7FCF00
3C7FCF00
3C7FCF00
3C3FEE00
383FFE00
383FFE00
783FFE00
781FFC00
781FFC00
701FFC00
701FFC00
F00FFC00
F00FF800
ENDCHAR
STARTCHAR 0144
ENCODING 324
SWIDTH 571 0
DWIDTH 23 0
BBX 22 26 0 0
BITMAP
0003F8
0007E0
0007C0
000F80
001F00
003E00
000000
000000
1FC1F0
1FCFF8
1FDFFC
1FFFFC
3FE3FC
3FC3FC
3FC3FC
3FC3FC
7FC7FC
7FC7F8
7F87F8
7F87F8
7F87F8
FF8FF8
FF0FF0
FF0FF0
FF0FF0
FF1FF0
ENDCHAR
STARTCHAR 0145
ENCODING 325
SWIDTH 645 0
DWIDTH 26 0
BBX 27 38 0 -12
BITMAP
07FE01E0
07FE01C0
07FF01C0
07FF03C0
0FFF03C0
0FFF03C0
0FFF0380
0EFF8380
0EFF8780
1EFF8780
1EFF8780
1E7F8700
1C7FC700
1C7FCF00
3C7FCF00
3C7FCF00
3C3FEE00
383FFE00
383FFE00
783FFE00
781FFC00
781FFC00
701FFC00
701FFC00
F00FFC00
F00FF800
00000000
00000000
00200000
00F80000
00F80000
00F80000
00780000
00780000
00700000
00E00000
01C00000
01000000
ENDCHAR
STARTCHAR 0146
ENCODING 326
SWIDTH 571 0
DWIDTH 23 0
BBX 22 30 0 -12
BITMAP
1FC1F0
1FCFF8
1FDFFC
1FFFFC
3FE3FC
3FC3FC
3FC3FC
3FC3FC
7FC7FC
7FC7F8
7F87F8
7F87F8
7F87F8
FF8FF8
FF0FF0
FF0FF0
FF0FF0
FF1FF0
000000
000000
004000
01E000
03F000
03F000
01F000
00E000
01C000
03C000
030000
020000
ENDCHAR
STARTCHAR 0147
ENCODING 327
SWIDTH 645 0
DWIDTH 26 0
BBX 27 34 0 0
BITMAP
00380F80
003C1E00
001E7C00
000FF800
000FF000
0007E000
00000000
00000000
07FE01E0
07FE01C0
07FF01C0
07FF03C0
0FFF03C0
0FFF03C0
0FFF0380
0EFF8380
0EFF8780
1EFF8780
1EFF8780
1E7F8700
1C7FC700
1C7FCF00
3C7FCF00
3C7FCF00
3C3FEE00
383FFE00
383FFE00
783FFE00
781FFC00
781FFC00
701FFC00
701FFC00
F00FFC00
F00FF800
ENDCHAR
STARTCHAR 0148
ENCODING 328
SWIDTH 571 0
DWIDTH 23 0
BBX 22 26 0 0
BITMAP
01C03C
01E0F0
00F1E0
007FC0
007F80
003F00
000000
000000
1FC1F0
1FCFF8
1FDFFC
1FFFFC
3FE3FC
3FC3FC
3FC3FC
3FC3FC
7FC7FC
7FC7F8
7F87F8
7F87F8
7F87F8
FF8FF8
FF0FF0
FF0FF0
FF0FF0
FF1FF0
ENDCHAR
STARTCHAR 0149
ENCODING 329
SWIDTH 571 0
DWIDTH 23 0
BBX 22 32 0 0
BITMAP
010000
07C000
0FE000
0FE000
0FE000
0FE000
07C000
038000
078000
0F0000
1C0000
000000
000000
000000
1FC1F0
1FCFF8
1FDFFC
1FFFFC
3FE3FC
3FC3FC
3FC3FC
3FC3FC
7FC7FC
7FC7F8
7F87F8
7F87F8
7F87F8
FF8FF8
FF0FF0
FF0FF0
FF0FF0
FF1FF0
ENDCHAR
STARTCHAR 014A
ENCODING 330
SWIDTH 645 0
DWIDTH 26 0
BBX 27 33 0 -7
BITMAP
07FE01E0
07FE01C0
07FF01C0
07FF03C0
0FFF03C0
0FFF03C0
0FFF0380
0FFF8380
0EFF8780
1EFF8780
1E7F8780
1E7F8700
1C7FC700
1C3FCF00
3C3FCF00
3C3FCF00
3C3FEE00
381FFE00
381FFE00
781FFE00
780FFE00
780FFC00
700FFC00
700FFC00
F007FC00
F007F800
0007F800
000FF800
001FF000
07FFE000
07FFC000
07FF8000
03FC0000
ENDCHAR
STARTCHAR 014B
ENCODING 331
SWIDTH 571 0
DWIDTH 23 0
BBX 22 25 0 -7
BITMAP
1FC1F0
1FCFF8
1FDFFC
1FFFFC
3FE3FC
3FC3FC
3FC3FC
3FC3FC
7FC7FC
7FC7F8
7F87F8
7F87F8
7F87F8
FF8FF8
FF0FF0
FF0FF0
FF0FF0
FF0FF0
001FE0
001FE0
001FE0
003FC0
00FF80
00FE00
00F800
ENDCHAR
STARTCHAR 014C
ENCODING 332
SWIDTH 670 0
DWIDTH 27 0
BBX 26 33 1 0
BITMAP
003FFF00
003FFF00
007FFF00
00000000
00000000
00000000
00000000
001FF000
00FFFC00
03FFFF00
07FC7F00
0FF87F80
1FF07F80
1FF07FC0
3FE07FC0
3FE07FC0
7FE07FC0
7FC07FC0
7FC07FC0
7FC07FC0
FFC0FFC0
FFC0FFC0
FF80FF80
FF80FF80
FF81FF80
7F81FF00
7F83FF00
7F83FE00
7F87FC00
3FC7F800
1FFFF000
0FFFE000
03FF0000
ENDCHAR
STARTCHAR 014D
ENCODING 333
SWIDTH 571 0
DWIDTH 23 0
BBX 22 25 0 0
BITMAP
01FFF8
01FFF8
03FFF8
000000
000000
000000
000000
00FF80
07FFE0
0FFFF0
1FE7F8
3FC3F8
3FC3FC
7F83FC
7F83FC
7F87FC
FF87FC
FF87F8
7F87F8
7F0FF8
7F8FF0
7F9FF0
3FFFE0
1FFF80
07FC00
ENDCHAR
STARTCHAR 014E
ENCODING 334
SWIDTH 670 0
DWIDTH 27 0
BBX 26 35 1 0
BITMAP
00000200
00180700
001C0E00
001FFC00
000FF800
0003E000
00000000
00000000
00000000
001FF000
00FFFC00
03FFFF00
07FC7F00
0FF87F80
1FF07F80
1FF07FC0
3FE07FC0
3FE07FC0
7FE07FC0
7FC07FC0
7FC07FC0
7FC07FC0
FFC0FFC0
FFC0FFC0
FF80FF80
FF80FF80
FF81FF80
7F81FF00
7F83FF00
7F83FE00
7F87FC00
3FC7F800
1FFFF000
0FFFE000
03FF0000
ENDCHAR
STARTCHAR 014F
ENCODING 335
SWIDTH 571 0
DWIDTH 23 0
BBX 22 26 0 0
BITMAP
000010
00C038
00E070
007FF0
007FC0
001F00
000000
000000
00FF80
07FFE0
0FFFF0
1FE7F8
3FC3F8
3FC3FC
7F83FC
7F83FC
7F87FC
FF87FC
FF87F8
7F87F8
7F0FF8
7F8FF0
7F9FF0
3FFFE0
1FFF80
07FC00
ENDCHAR
STARTCHAR 0150
ENCODING 336
SWIDTH 670 0
DWIDTH 27 0
BBX 30 35 1 0
BITMAP
0003F9FC
0007E3F0
000FC3E0
000F87C0
001E0F80
003C1E00
00000000
00000000
00000000
001FF000
00FFFC00
03FFFF00
07FC7F00
0FF87F80
1FF07F80
1FF07FC0
3FE07FC0
3FE07FC0
7FE07FC0
7FC07FC0
7FC07FC0
7FC07FC0
FFC0FFC0
FFC0FFC0
FF80FF80
FF80FF80
FF81FF80
7F81FF00
7F83FF00
7F83FE00
7F87FC00
3FC7F800
1FFFF000
0FFFE000
03FF0000
ENDCHAR
STARTCHAR 0151
ENCODING 337
SWIDTH 571 0
DWIDTH 23 0
BBX 27 26 0 0
BITMAP
001FCFE0
003F1F80
007E1F00
00F83E00
00F07800
01E0F000
00000000
00000000
00FF8000
07FFE000
0FFFF000
1FE7F800
3FC3F800
3FC3FC00
7F83FC00
7F83FC00
7F87FC00
FF87FC00
FF87F800
7F87F800
7F0FF800
7F8FF000
7F9FF000
3FFFE000
1FFF8000
07FC0000
ENDCHAR
STARTCHAR 0152
ENCODING 338
SWIDTH 868 0
DWIDTH 35 0
BBX 36 26 1 0
BITMAP
001FFFFFF0
00FFFFFFF0
03FFFFFFF0
07FC7FE000
0FF87FE000
1FF07FE000
1FF07FE000
3FE07FC000
3FE07FC000
7FE07FC000
7FC07FC000
7FC07FFF00
7FC07FFF00
FFC0FFFF00
FFC0FF8000
FF80FF8000
FF80FF0000
FF81FF0000
7F81FF0000
7F83FF0000
7F83FF0000
7F87FE0000
3FCFFE0000
1FFFFFFE00
0FFFFFFE00
03FFFFFE00
ENDCHAR
STARTCHAR 0153
ENCODING 339
SWIDTH 918 0
DWIDTH 37 0
BBX 36 18 0 0
BITMAP
00FF81FF00
07FFEFFFC0
0FFFFFFFE0
1FE7FFC7F0
3FC3FF87F0
7FC3FF87F0
7F83FF07F0
7F87FF07F0
7F87FFFFE0
FF87FFFFE0
FF87FE0000
FF07FE0000
7F0FFE0FC0
7F0FFE1FC0
7F9FFF3FC0
3FFFFFFFC0
1FFFBFFF80
07FC07FC00
ENDCHAR
STARTCHAR 0154
ENCODING 340
SWIDTH 620 0
DWIDTH 25 0
BBX 25 34 0 0
BITMAP
0000FF00
0000FC00
0001F000
0003E000
0003C000
00070000
00000000
00000000
07FFF800
07FFFE00
07FFFF00
07F87F00
0FF87F80
0FF87F80
0FF87F80
0FF87F80
0FF07F80
1FF0FF00
1FF0FF00
1FF1FE00
1FFFFC00
1FFFF000
3FFFF000
3FEFF000
3FEFF000
3FCFF800
3FC7F800
7FC7F800
7FC7FC00
7FC3FC00
7F83FE00
7F83FE00
FF83FE00
FF81FF00
ENDCHAR
STARTCHAR 0155
ENCODING 341
SWIDTH 471 0
DWIDTH 19 0
BBX 20 26 0 0
BITMAP
0007F0
0007E0
000FC0
001F00
001E00
003C00
000000
000000
1FC3F0
1FCFF0
1FDFE0
1FFFE0
3FFFE0
3FC7E0
3FC3E0
3FC3C0
7FC3C0
7FC000
7F8000
7F8000
7F8000
FF8000
FF0000
FF0000
FF0000
FF0000
ENDCHAR
STARTCHAR 0156
ENCODING 342
SWIDTH 620 0
DWIDTH 25 0
BBX 25 38 0 -12
BITMAP
07FFF800
07FFFE00
07FFFF00
07F87F00
0FF87F80
0FF87F80
0FF87F80
0FF87F80
0FF07F80
1FF0FF00
1FF0FF00
1FF1FE00
1FFFFC00
1FFFF000
3FFFF000
3FEFF000
3FEFF000
3FCFF800
3FC7F800
7FC7F800
7FC7FC00
7FC3FC00
7F83FE00
7F83FE00
FF83FE00
FF81FF00
00000000
00000000
00200000
00780000
00FC0000
00FC0000
00780000
00780000
00700000
00E00000
01C00000
00800000
ENDCHAR
STARTCHAR 0157
ENCODING 343
SWIDTH 471 0
DWIDTH 19 0
BBX 20 30 0 -12
BITMAP
1FC3F0
1FCFF0
1FDFE0
1FFFE0
3FFFE0
3FC7E0
3FC3E0
3FC3C0
7FC3C0
7FC000
7F8000
7F8000
7F8000
FF8000
FF0000
FF0000
FF0000
FF0000
000000
000000
100000
780000
FC0000
FC0000
7C0000
380000
780000
700000
C00000
800000
ENDCHAR
STARTCHAR 0158
ENCODING 344
SWIDTH 620 0
DWIDTH 25 0
BBX 25 34 0 0
BITMAP
00700F00
00383C00
003C7800
001FF000
001FE000
000FC000
00000000
00000000
07FFF800
07FFFE00
07FFFF00
07F87F00
0FF87F80
0FF87F80
0FF87F80
0FF87F80
0FF07F80
1FF0FF00
1FF0FF00
1FF1FE00
1FFFFC00
1FFFF000
3FFFF000
3FEFF000
3FEFF000
3FCFF800
3FC7F800
7FC7F800
7FC7FC00
7FC3FC00
7F83FE00
7F83FE00
FF83FE00
FF81FF00
ENDCHAR
STARTCHAR 0159
ENCODING 345
SWIDTH 471 0
DWIDTH 19 0
BBX 21 26 0 0
BITMAP
038078
01C1E0
01E3C0
00FF80
00FF00
007E00
000000
000000
1FC3F0
1FCFF0
1FDFE0
1FFFE0
3FFFE0
3FC7E0
3FC3E0
3FC3C0
7FC3C0
7FC000
7F8000
7F8000
7F8000
FF8000
FF0000
FF0000
FF0000
FF0000
ENDCHAR
STARTCHAR 015A
ENCODING 346
SWIDTH 571 0
DWIDTH 23 0
BBX 25 35 0 0
BITMAP
00003F80
00007F00
00007E00
0000F800
0000F000
0001E000
0003C000
00000000
00000000
001FF000
00FFFE00
03FFFF00
07F1FF00
0FE0FE00
1FE0FE00
1FE0FE00
1FE0FE00
1FE00000
1FF80000
1FFF8000
1FFFF000
1FFFF800
0FFFFC00
03FFFC00
00FFFC00
001FFC00
0007FC00
7F03FC00
7F03FC00
7F03FC00
FF07F800
FF8FF000
FFFFE000
7FFFC000
0FFC0000
ENDCHAR
STARTCHAR 015B
ENCODING 347
SWIDTH 471 0
DWIDTH 19 0
BBX 21 26 -1 0
BITMAP
0003F8
0007E0
0007C0
000F80
001F00
003C00
000000
000000
00FF00
07FFE0
0FFFE0
1FE7E0
1FC7E0
3FC7E0
3FE000
3FFE00
1FFF80
0FFFC0
07FFE0
00FFE0
003FE0
7E1FE0
7E3FC0
7FFFC0
FFFF00
1FFC00
ENDCHAR
STARTCHAR 015C
ENCODING 348
SWIDTH 571 0
DWIDTH 23 0
BBX 24 35 0 0
BITMAP
0001F8
0003FC
0007FC
000F9E
001F0E
003C0F
007807
000000
000000
001FF0
00FFFE
03FFFF
07F1FF
0FE0FE
1FE0FE
1FE0FE
1FE0FE
1FE000
1FF800
1FFF80
1FFFF0
1FFFF8
0FFFFC
03FFFC
00FFFC
001FFC
0007FC
7F03FC
7F03FC
7F03FC
FF07F8
FF8FF0
FFFFE0
7FFFC0
0FFC00
ENDCHAR
STARTCHAR 015D
ENCODING 349
SWIDTH 471 0
DWIDTH 19 0
BBX 20 26 -1 0
BITMAP
003F80
007F80
00FBC0
01F1C0
03C1E0
0780F0
000000
000000
00FF00
07FFE0
0FFFE0
1FE7E0
1FC7E0
3FC7E0
3FE000
3FFE00
1FFF80
0FFFC0
07FFE0
00FFE0
003FE0
7E1FE0
7E3FC0
7FFFC0
FFFF00
1FFC00
ENDCHAR
STARTCHAR 015E
ENCODING 350
SWIDTH 571 0
DWIDTH 23 0
BBX 24 35 0 -9
BITMAP
001FF0
00FFFE
03FFFF
07F1FF
0FE0FE
1FE0FE
1FE0FE
1FE0FE
1FE000
1FF800
1FFF80
1FFFF0
0FFFF8
0FFFF8
03FFFC
00FFFC
001FFC
0007FC
7F03FC
7F03FC
FF03FC
FF07F8
FF8FF8
FFFFF0
7FFFC0
1FFE00
03E000
078000
0F8000
1F0000
1F0000
1FB000
1FF000
0FE000
020000
ENDCHAR
STARTCHAR 015F
ENCODING 351
SWIDTH 471 0
DWIDTH 19 0
BBX 19 26 -1 -8
BITMAP
00FF00
07FFE0
0FFFE0
1FE7E0
1FC7E0
3FC7E0
3FE000
3FFE00
1FFF80
1FFFC0
07FFE0
00FFE0
003FE0
7E1FE0
7E3FC0
7F7FC0
FFFF80
1FFC00
03C000
0F8000
1F0000
1F0000
1F2000
1FF000
1FE000
0F8000
ENDCHAR
STARTCHAR 0160
ENCODING 352
SWIDTH 571 0
DWIDTH 23 0
BBX 24 35 0 0
BITMAP
007007
00380E
003C3C
001E78
001FF8
000FF0
0007E0
000000
000000
001FF0
00FFFE
03FFFF
07F1FF
0FE0FE
1FE0FE
1FE0FE
1FE0FE
1FE000
1FF800
1FFF80
1FFFF0
1FFFF8
0FFFFC
03FFFC
00FFFC
001FFC
0007FC
7F03FC
7F03FC
7F03FC
FF07F8
FF8FF0
FFFFE0
7FFFC0
0FFC00
ENDCHAR
STARTCHAR 0161
ENCODING 353
SWIDTH 471 0
DWIDTH 19 0
BBX 21 26 -1 0
BITMAP
03C078
01E0F0
00E3E0
00F7C0
007F80
007F00
000000
000000
00FF00
07FFE0
0FFFE0
1FE7E0
1FC7E0
3FC7E0
3FE000
3FFE00
1FFF80
0FFFC0
07FFE0
00FFE0
003FE0
7E1FE0
7E3FC0
7FFFC0
FFFF00
1FFC00
ENDCHAR
STARTCHAR 0162
ENCODING 354
SWIDTH 546 0
DWIDTH 22 0
BBX 22 35 3 -9
BITMAP
FFFFFC
FFFFFC
FFFFF8
03FE00
03FE00
03FC00
03FC00
07FC00
07FC00
07FC00
07F800
0FF800
0FF800
0FF800
0FF800
0FF000
1FF000
1FF000
1FF000
1FE000
1FE000
3FE000
3FE000
3FE000
3FC000
3FC000
1E0000
7C0000
780000
F80000
F80000
F90000
FF8000
FE0000
200000
ENDCHAR
STARTCHAR 0163
ENCODING 355
SWIDTH 397 0
DWIDTH 16 0
BBX 15 32 1 -8
BITMAP
0078
00F8
00F8
01F8
07F0
1FF0
7FFE
7FFE
FFFE
1FE0
1FE0
1FE0
1FE0
3FE0
3FC0
3FC0
3FC0
3FC0
7FC0
7FC0
7FC0
3FF0
3FF0
1FF0
1E00
7C00
7800
F800
F880
FF80
FF80
7C00
ENDCHAR
STARTCHAR 0164
ENCODING 356
SWIDTH 546 0
DWIDTH 22 0
BBX 22 34 3 0
BITMAP
038078
01C1E0
01E3C0
00FF80
00FF00
007E00
000000
000000
FFFFFC
FFFFFC
FFFFF8
03FE00
03FE00
03FC00
03FC00
07FC00
07FC00
07FC00
07F800
0FF800
0FF800
0FF800
0FF800
0FF000
1FF000
1FF000
1FF000
1FE000
1FE000
3FE000
3FE000
3FE000
3FC000
3FC000
ENDCHAR
STARTCHAR 0165
ENCODING 357
SWIDTH 471 0
DWIDTH 19 0
BBX 23 27 1 0
BITMAP
00003C
00007E
0000FE
0000FE
00F87E
00F87E
03F83C
07F038
1FF0F0
7FFEE0
7FFE80
FFFE00
1FE000
1FE000
1FE000
1FE000
3FE000
3FC000
3FC000
3FC000
3FC000
7FC000
7FC000
7FC000
3FF000
3FF000
0FF000
ENDCHAR
STARTCHAR 0166
ENCODING 358
SWIDTH 546 0
DWIDTH 22 0
BBX 22 26 3 0
BITMAP
7FFFFC
FFFFFC
FFFFFC
03FE00
03FE00
03FC00
03FC00
07FC00
07FC00
07FC00
3FFF00
3FFF00
7FFF00
0FF800
0FF800
0FF000
1FF000
1FF000
1FF000
1FF000
1FE000
3FE000
3FE000
3FE000
3FE000
3FC000
ENDCHAR
STARTCHAR 0167
ENCODING 359
SWIDTH 397 0
DWIDTH 16 0
BBX 16 23 0 0
BITMAP
003C
007C
00FC
01FC
0FF8
3FFF
3FFF
7FFF
0FF0
0FF0
0FF0
7FFE
FFFE
FFFC
1FE0
1FE0
1FE0
3FE0
3FE0
3FE0
1FF8
1FF8
07F8
ENDCHAR
STARTCHAR 0168
ENCODING 360
SWIDTH 620 0
DWIDTH 25 0
BBX 25 35 1 0
BITMAP
000F0100
001FE380
003FFF00
007FFF00
0063FE00
00407C00
00000000
00000000
00000000
0FF80380
0FF80780
0FF80780
1FF00780
1FF00780
1FF00700
1FF00F00
1FF00F00
3FE00F00
3FE00E00
3FE00E00
3FE01E00
7FE01E00
7FC01E00
7FC01C00
7FC01C00
7FC03C00
7F803C00
FF803800
FF807800
FFC07800
7FE1F000
7FFFE000
3FFFC000
1FFF8000
07FC0000
ENDCHAR
STARTCHAR 0169
ENCODING 361
SWIDTH 571 0
DWIDTH 23 0
BBX 23 26 0 0
BITMAP
003F06
007FFE
00FFFC
01FFF8
0183F0
000000
000000
000000
1FE1FE
1FE1FE
1FE3FE
3FC3FC
3FC3FC
3FC3FC
3FC3FC
3FC7FC
7F87F8
7F87F8
7F87F8
7F87F8
FF8FF8
FF8FF0
7FFFF0
7FFFF0
3FE7F0
1F07F0
ENDCHAR
STARTCHAR 016A
ENCODING 362
SWIDTH 620 0
DWIDTH 25 0
BBX 25 33 1 0
BITMAP
003FFF00
003FFF00
003FFF00
00000000
00000000
00000000
00000000
0FF80380
0FF80780
0FF80780
1FF00780
1FF00780
1FF00700
1FF00F00
1FF00F00
3FE00F00
3FE00E00
3FE00E00
3FE01E00
7FE01E00
7FC01E00
7FC01C00
7FC01C00
7FC03C00
7F803C00
FF803800
FF807800
FFC07800
7FE1F000
7FFFE000
3FFFC000
1FFF8000
07FC0000
ENDCHAR
STARTCHAR 016B
ENCODING 363
SWIDTH 571 0
DWIDTH 23 0
BBX 23 25 0 0
BITMAP
00FFFC
01FFF8
01FFF8
000000
000000
000000
000000
1FE1FE
1FE1FE
1FE3FE
3FC3FC
3FC3FC
3FC3FC
3FC3FC
3FC7FC
7F87F8
7F87F8
7F87F8
7F87F8
FF8FF8
FF8FF0
7FFFF0
7FFFF0
3FE7F0
1F07F0
ENDCHAR
STARTCHAR 016C
ENCODING 364
SWIDTH 620 0
DWIDTH 25 0
BBX 25 35 1 0
BITMAP
00000200
00180700
001C1E00
001FFC00
000FF800
0007E000
00000000
00000000
00000000
0FF80380
0FF80780
0FF80780
1FF00780
1FF00780
1FF00700
1FF00F00
1FF00F00
3FE00F00
3FE00E00
3FE00E00
3FE01E00
7FE01E00
7FC01E00
7FC01C00
7FC01C00
7FC03C00
7F803C00
FF803800
FF807800
FFC07800
7FE1F000
7FFFE000
3FFFC000
1FFF8000
07FC0000
ENDCHAR
STARTCHAR 016D
ENCODING 365
SWIDTH 571 0
DWIDTH 23 0
BBX 23 26 0 0
BITMAP
000010
00E038
00F078
007FF0
003FE0
001F80
000000
000000
1FE1FE
1FE1FE
1FE3FE
3FC3FC
3FC3FC
3FC3FC
3FC3FC
3FC7FC
7F87F8
7F87F8
7F87F8
7F87F8
FF8FF8
FF8FF0
7FFFF0
7FFFF0
3FE7F0
1F07F0
ENDCHAR
STARTCHAR 016E
ENCODING 366
SWIDTH 620 0
DWIDTH 25 0
BBX 25 36 1 0
BITMAP
0000E000
0001F000
0003F800
00031800
00031800
0003F800
0003F000
0001E000
00000000
00000000
0FF80380
0FF80780
0FF80780
1FF00780
1FF00780
1FF00700
1FF00F00
1FF00F00
3FE00F00
3FE00E00
3FE00E00
3FE01E00
7FE01E00
7FC01E00
7FC01C00
7FC01C00
7FC03C00
7F803C00
FF803800
FF807800
FFC07800
7FE1F000
7FFFE000
3FFFC000
1FFF8000
07FC0000
ENDCHAR
STARTCHAR 016F
ENCODING 367
SWIDTH 571 0
DWIDTH 23 0
BBX 23 27 0 0
BITMAP
000700
000F80
001FC0
0018C0
0019C0
001FC0
001F80
000600
000000
1FE1FE
1FE1FE
1FE3FE
3FC3FC
3FC3FC
3FC3FC
3FC3FC
3FC7FC
7F87F8
7F87F8
7F87F8
7F87F8
FF8FF8
FF8FF0
7FFFF0
7FFFF0
3FE7F0
1F07F0
ENDCHAR
STARTCHAR 0170
ENCODING 368
SWIDTH 620 0
DWIDTH 25 0
BBX 30 35 1 0
BITMAP
0007F1FC
000FC3F0
000F87E0
001F0F80
003E0F00
00783E00
00000000
00000000
00000000
0FF80380
0FF80780
0FF80780
1FF00780
1FF00780
1FF00700
1FF00F00
1FF00F00
3FE00F00
3FE00E00
3FE00E00
3FE01E00
7FE01E00
7FC01E00
7FC01C00
7FC01C00
7FC03C00
7F803C00
FF803800
FF807800
FFC07800
7FE1F000
7FFFE000
3FFFC000
1FFF8000
07FC0000
ENDCHAR
STARTCHAR 0171
ENCODING 369
SWIDTH 571 0
DWIDTH 23 0
BBX 27 26 0 0
BITMAP
003FCFE0
003F1F80
007C3F00
00F83C00
01F07800
03C0F000
00000000
00000000
1FE1FE00
1FE1FE00
1FE3FE00
3FC3FC00
3FC3FC00
3FC3FC00
3FC3FC00
3FC7FC00
7F87F800
7F87F800
7F87F800
7F87F800
FF8FF800
FF8FF000
7FFFF000
7FFFF000
3FE7F000
1F07F000
ENDCHAR
STARTCHAR 0172
ENCODING 370
SWIDTH 620 0
DWIDTH 25 0
BBX 25 34 1 -8
BITMAP
0FF80380
0FF80780
0FF80780
1FF00780
1FF00780
1FF00700
1FF00F00
1FF00F00
3FE00F00
3FE00E00
3FE00E00
3FE01E00
7FE01E00
7FC01E00
7FC01C00
7FC01C00
7FC03C00
7F803C00
FF803800
FF803800
FF807800
7FC0F000
7FFFE000
7FFFC000
3FFF8000
07FC0000
03C00000
07800000
0F800000
0F000000
1F100000
1FF80000
0FF00000
0FC00000
ENDCHAR
STARTCHAR 0173
ENCODING 371
SWIDTH 571 0
DWIDTH 23 0
BBX 23 26 0 -8
BITMAP
1FE1FE
1FE1FE
1FE3FE
3FC3FC
3FC3FC
3FC3FC
3FC3FC
3FC7FC
7F87F8
7F87F8
7F87F8
7F8FF8
FF8FF8
FF9FF0
7FFFF0
7FEFF0
3FC7F0
1F07F0
0003C0
000F80
001F00
001E00
003E20
003FF0
003FE0
001F80
ENDCHAR
STARTCHAR 0174
ENCODING 372
SWIDTH 943 0
DWIDTH 38 0
BBX 37 34 3 0
BITMAP
00000FE000
00001FE000
00003CF000
0000787000
0001E03800
0003C03C00
0000000000
0000000000
FFC07F8078
FFC07F80F8
FFC0FF80F0
FFC0FF80F0
FFC0FF81E0
FFC1FF81E0
7FC1FFC3E0
7FC3FFC3C0
7FC3FFC3C0
7FC3FFC7C0
7FC7FFC780
7FC7FFC780
7FC7FFCF00
7FCFBFCF00
7FCF3FDF00
7FDF3FDE00
7FFE3FDE00
7FFE3FFC00
7FFC3FFC00
7FFC3FFC00
7FFC3FF800
3FF83FF800
3FF83FF800
3FF03FF000
3FF03FF000
3FF03FE000
ENDCHAR
STARTCHAR 0175
ENCODING 373
SWIDTH 819 0
DWIDTH 33 0
BBX 33 26 1 0
BITMAP
0000FE0000
0001FF0000
0003EF0000
0007C78000
000F03C000
001E01C000
0000000000
0000000000
FF81FE0780
7F83FE0F80
7F83FE0F00
7F83FE0F00
7F87FE1E00
7F87FE1E00
7FC7FE3C00
7FCFFF3C00
3FCFFF3800
3FDFFF7800
3FDEFF7800
3FDCFFF000
3FFCFFF000
3FF8FFE000
3FF8FFE000
1FF0FFC000
1FF07FC000
1FF07F8000
ENDCHAR
STARTCHAR 0176
ENCODING 374
SWIDTH 571 0
DWIDTH 23 0
BBX 23 34 3 0
BITMAP
001FC0
003FE0
007DE0
00F8F0
01E078
03C038
000000
000000
FFC03E
7FC03C
7FC078
7FE0F8
7FE0F0
3FE1E0
3FE1E0
3FF3C0
3FF780
1FF780
1FFF00
1FFF00
1FFE00
0FFC00
0FFC00
0FF800
0FF800
0FF000
1FF000
1FF000
1FF000
1FE000
1FE000
3FE000
3FE000
3FE000
ENDCHAR
STARTCHAR 0177
ENCODING 375
SWIDTH 521 0
DWIDTH 21 0
BBX 25 33 -3 -7
BITMAP
0001FC00
0003FC00
0007DE00
000F0F00
001E0700
00380380
00000000
00000000
07F80F80
07F80F00
07F81E00
07F81E00
07F83C00
07FC3C00
07FC7800
03FC7800
03FCF000
03FCF000
03FDE000
03FDE000
03FFC000
03FFC000
03FF8000
01FF8000
01FF0000
01FF0000
01FE0000
01FC0000
01FC0000
03F80000
7FF00000
7FE00000
FF000000
ENDCHAR
STARTCHAR 0178
ENCODING 376
SWIDTH 571 0
DWIDTH 23 0
BBX 23 34 3 0
BITMAP
00F070
01F8F8
01F9F8
01F9F8
01F0F8
00F0F0
000000
000000
FFC03E
7FC03C
7FC078
7FE0F8
7FE0F0
3FE1E0
3FE1E0
3FF3C0
3FF780
1FF780
1FFF00
1FFF00
1FFE00
0FFC00
0FFC00
0FF800
0FF800
0FF000
1FF000
1FF000
1FF000
1FE000
1FE000
3FE000
3FE000
3FE000
ENDCHAR
STARTCHAR 0179
ENCODING 377
SWIDTH 546 0
DWIDTH 22 0
BBX 24 34 -1 0
BITMAP
0000FF
0000FC
0001F0
0003E0
0003C0
000700
000000
000000
0FFFFF
0FFFFF
0FFFFF
0003FF
0007FE
000FFE
000FFC
001FF8
003FF8
007FF0
007FE0
00FFE0
01FFC0
01FF80
03FF80
07FF00
07FE00
0FFE00
1FFC00
1FF800
3FF800
7FF000
7FE000
7FFFF8
FFFFF8
FFFFF8
ENDCHAR
STARTCHAR 017A
ENCODING 378
SWIDTH 471 0
DWIDTH 19 0
BBX 21 26 -1 0
BITMAP
0003F8
0007E0
000FC0
000F00
001E00
003C00
000000
000000
1FFFF0
1FFFF0
1FFFF0
003FE0
007FC0
00FF80
00FF80
01FF00
03FE00
07FC00
0FF800
1FF000
3FF000
7FE000
FFC000
FFFFC0
FFFFC0
FFFFC0
ENDCHAR
STARTCHAR 017B
ENCODING 379
SWIDTH 546 0
DWIDTH 22 0
BBX 24 34 -1 0
BITMAP
0003E0
0007F0
000FF0
000FF0
000FF0
0007F0
0003C0
000000
0FFFFF
0FFFFF
0FFFFF
0003FF
0007FE
000FFE
000FFC
001FF8
003FF8
007FF0
007FE0
00FFE0
01FFC0
01FF80
03FF80
07FF00
07FE00
0FFE00
1FFC00
1FF800
3FF800
7FF000
7FE000
7FFFF8
FFFFF8
FFFFF8
ENDCHAR
STARTCHAR 017C
ENCODING 380
SWIDTH 471 0
DWIDTH 19 0
BBX 20 26 -1 0
BITMAP
001F00
003F80
007F80
007F80
007F80
003F80
001E00
000000
1FFFF0
1FFFF0
1FFFF0
003FE0
007FC0
00FF80
00FF80
01FF00
03FE00
07FC00
0FF800
1FF000
3FF000
7FE000
FFC000
FFFFC0
FFFFC0
FFFFC0
ENDCHAR
STARTCHAR 017D
ENCODING 381
SWIDTH 546 0
DWIDTH 22 0
BBX 25 34 -1 0
BITMAP
00380780
001C1E00
001E3C00
000FF800
0007F000
0007E000
00000000
00000000
0FFFFF00
0FFFFF00
0FFFFF00
0003FF00
0007FE00
000FFE00
000FFC00
001FF800
003FF800
007FF000
007FE000
00FFE000
01FFC000
01FF8000
03FF8000
07FF0000
07FE0000
0FFE0000
1FFC0000
1FF80000
3FF80000
7FF00000
7FE00000
7FFFF800
FFFFF800
FFFFF800
ENDCHAR
STARTCHAR 017E
ENCODING 382
SWIDTH 471 0
DWIDTH 19 0
BBX 22 26 -1 0
BITMAP
01C03C
00E0F0
00F1E0
007FC0
007F80
003F00
000000
000000
1FFFF0
1FFFF0
1FFFF0
003FE0
007FC0
00FF80
00FF80
01FF00
03FE00
07FC00
0FF800
1FF000
3FF000
7FE000
FFC000
FFFFC0
FFFFC0
FFFFC0
ENDCHAR
STARTCHAR 018F
ENCODING 399
SWIDTH 645 0
DWIDTH 26 0
BBX 24 26 1 0
BITMAP
007FC0
03FFF8
0FFFFC
0FF9FE
1FF0FE
1FE0FF
1FC0FF
1FC0FF
3F80FF
0000FF
0001FF
0001FF
7FFFFF
FFFFFF
FFFFFF
FF01FF
FF03FF
FF03FE
FF03FE
FF07FC
FF07FC
FF0FF8
FF1FF0
7FFFE0
3FFF80
07FC00
ENDCHAR
STARTCHAR 0192
ENCODING 402
SWIDTH 496 0
DWIDTH 20 0
BBX 27 35 -4 -7
BITMAP
00003FC0
0001FFE0
0003FFE0
0007FFE0
000FF800
000FF000
001FE000
001FE000
001FE000
001FE000
01FFFE00
01FFFE00
01FFFC00
003FC000
003FC000
007FC000
007F8000
007F8000
007F8000
007F8000
00FF8000
00FF0000
00FF0000
00FF0000
00FF0000
01FF0000
01FE0000
01FE0000
01FE0000
03FC0000
03FC0000
07F80000
7FF00000
FFC00000
FC000000
ENDCHAR
STARTCHAR 01C4
ENCODING 452
SWIDTH 1191 0
DWIDTH 48 0
BBX 49 34 0 0
BITMAP
00000000F01E00
00000000783C00
000000003CF800
000000003FF000
000000001FE000
000000000FC000
00000000000000
00000000000000
07FFF007FFFF80
07FFFE07FFFF80
07FFFF0FFFFF00
07F87F8003FF00
0FF83F8007FF00
0FF83F8007FE00
0FF83FC00FFC00
0FF83FC01FFC00
0FF07FC01FF800
1FF07FC03FF000
1FF07FC07FF000
1FF07FC07FE000
1FE07FC0FFC000
1FE07FC1FFC000
3FE0FFC3FF8000
3FE0FF83FF0000
3FE0FF87FF0000
3FC0FF8FFE0000
3FC1FF0FFC0000
7FC1FF1FFC0000
7FC3FE3FF80000
7FC3FC3FF00000
7F87F87FF00000
7FFFF07FFFFC00
FFFFE07FFFFC00
FFFF007FFFF800
ENDCHAR
STARTCHAR 01C5
ENCODING 453
SWIDTH 1117 0
DWIDTH 45 0
BBX 45 26 0 0
BITMAP
07FFF003C078
07FFFE01E0F0
07FFFF00E3E0
07F87F80F7C0
0FF83F807F80
0FF83F807F00
0FF83FC00000
0FF83FC00000
0FF07FCFFFF8
1FF07FCFFFF8
1FF07FCFFFF8
1FF07FC01FF0
1FE07FC01FE0
1FE07FC03FE0
3FE0FFC07FC0
3FE0FF80FF80
3FE0FF81FF00
3FC0FF83FE00
3FC1FF07FC00
7FC1FF0FF800
7FC3FE1FF800
7FC3FC3FF000
7F87F83FE000
7FFFF07FFFE0
FFFFE07FFFE0
FFFF007FFFE0
ENDCHAR
STARTCHAR 01C6
ENCODING 454
SWIDTH 1067 0
DWIDTH 43 0
BBX 43 28 0 0
BITMAP
00007F800000
0000FF800000
0000FF1E03E0
0000FF0F0780
0000FF078F00
0000FF07FE00
0001FF03FC00
0001FE03F800
0001FE000000
0001FE000000
03F3FE3FFFE0
0FFBFE7FFFC0
1FFFFC7FFFC0
1FFFFC007FC0
3FC7FC00FF80
3FC7FC01FF00
7F87FC03FE00
7F87F807FC00
7F87F80FF800
FF87F81FF000
FF8FF83FF000
FF0FF03FE000
FF0FF07FC000
FF1FF0FF8000
FFFFF1FF0000
7FFFF1FFFF00
3FCFE3FFFF00
1F8FE3FFFF00
ENDCHAR
STARTCHAR 01C7
ENCODING 455
SWIDTH 1067 0
DWIDTH 43 0
BBX 44 26 0 0
BITMAP
07FC00001FF0
07FC00001FF0
07FC00001FE0
07F800001FE0
0FF800003FE0
0FF800003FE0
0FF800003FE0
0FF800003FC0
0FF000007FC0
1FF000007FC0
1FF000007FC0
1FF000007FC0
1FF000007F80
1FE00000FF80
3FE00000FF80
3FE00000FF80
3FE00000FF00
3FC00FE0FF00
3FC01FE1FF00
7FC01FE1FF00
7FC01FE1FE00
7FC01FE1FE00
7F803FE3FC00
7FFF9FFFF800
FFFF87FFF000
FFFF81FF8000
ENDCHAR
STARTCHAR 01C8
ENCODING 456
SWIDTH 769 0
DWIDTH 31 0
BBX 31 33 0 -7
BITMAP
07FC007C
07FC00FE
07FC01FE
07F801FE
0FF801FE
0FF801FC
0FF80078
0FF80000
0FF003FC
1FF003FC
1FF003FC
1FF007FC
1FF007F8
1FE007F8
3FE007F8
3FE007F8
3FE00FF8
3FC00FF0
3FC00FF0
7FC00FF0
7FC00FF0
7FC01FE0
7F801FE0
7FFF9FE0
FFFF9FE0
FFFF9FE0
00003FC0
00003FC0
00003F80
00007F80
0001FF00
0001FC00
0001F000
ENDCHAR
STARTCHAR 01C9
ENCODING 457
SWIDTH 571 0
DWIDTH 23 0
BBX 24 34 0 -7
BITMAP
07F800
07F83C
07F8FE
07F8FF
0FF8FF
0FF0FF
0FF0FE
0FF07C
1FF000
1FE1FE
1FE3FE
1FE3FC
1FE3FC
3FE3FC
3FC3FC
3FC7FC
3FC7F8
3FC7F8
7FC7F8
7F87F8
7F8FF8
7F8FF0
7F8FF0
FF8FF0
FF0FF0
FF1FF0
FF1FE0
001FE0
001FE0
003FC0
003F80
00FF00
01FE00
01F000
ENDCHAR
STARTCHAR 01CA
ENCODING 458
SWIDTH 1216 0
DWIDTH 49 0
BBX 50 26 0 0
BITMAP
07FE01E0003FC0
07FE01C0007FC0
07FF01C0007FC0
07FF03C0007FC0
0FFF03C0007F80
0FFF03C0007F80
0FFF038000FF80
0EFF838000FF80
0EFF878000FF80
1EFF878000FF00
1EFF878001FF00
1E7FC70001FF00
1C7FCF0001FF00
1C7FCF0001FF00
3C7FCF0001FE00
3C7FCF0003FE00
3C3FEE3FC3FE00
383FFE3F83FE00
383FFE3F83FC00
783FFE7F83FC00
781FFC7F87FC00
781FFC7F87F800
701FFC7F8FF800
701FFC3FFFE000
F00FFC0FFFC000
F00FF803FE0000
ENDCHAR
STARTCHAR 01CB
ENCODING 459
SWIDTH 918 0
DWIDTH 37 0
BBX 38 33 0 -7
BITMAP
07FE01E0F0
07FE01C3F8
07FF01C3FC
07FF03C7FC
0FFF03C7F8
0FFF03C3F8
0FFF0381E0
0EFF838000
0EFF878FF8
1EFF878FF0
1EFF878FF0
1E7F870FF0
1C7FCF0FF0
1C7FCF1FF0
3C7FCF1FE0
3C7FCF1FE0
3C3FEE1FE0
383FFE1FE0
383FFE3FE0
783FFE3FC0
781FFC3FC0
781FFC3FC0
701FFC7FC0
701FFC7F80
F00FFC7F80
F00FF87F80
0000007F80
000000FF00
000000FF00
000001FE00
000007FC00
000007F800
000007C000
ENDCHAR
STARTCHAR 01CC
ENCODING 460
SWIDTH 868 0
DWIDTH 35 0
BBX 36 33 0 -7
BITMAP
00000003C0
0000000FE0
0000000FF0
0000001FF0
0000000FE0
0000000FE0
00000007C0
0000000000
1FC1F03FE0
1FCFF83FC0
1FDFFC3FC0
1FFFFC3FC0
3FE3FC3FC0
3FC3FC7FC0
3FC3FC7F80
3FC3FC7F80
7FC7FC7F80
7FC7F87F80
7F87F8FF80
7F87F8FF00
7F87F8FF00
FF8FF8FF00
FF0FF0FF00
FF0FF1FF00
FF0FF1FE00
FF1FF1FE00
000001FE00
000001FC00
000003FC00
000003F800
00001FF000
00001FE000
00001F0000
ENDCHAR
STARTCHAR 01EA
ENCODING 490
SWIDTH 670 0
DWIDTH 27 0
BBX 26 34 1 -8
BITMAP
001FF000
00FFFC00
03FFFF00
07FC7F00
0FF87F80
1FF07F80
1FF07FC0
3FE07FC0
3FE07FC0
7FE07FC0
7FC07FC0
7FC07FC0
7FC07FC0
FFC0FFC0
FFC0FFC0
FF80FF80
FF80FF80
FF81FF80
7F81FF00
7F83FF00
7F83FE00
7F87FC00
3FC7FC00
1FFFF000
0FFFE000
03FF0000
01E00000
03C00000
07800000
0F800000
0F880000
0FF80000
0FF80000
07E00000
ENDCHAR
STARTCHAR 01EB
ENCODING 491
SWIDTH 571 0
DWIDTH 23 0
BBX 22 26 0 -8
BITMAP
00FF80
07FFE0
0FFFF0
1FE7F8
3FC3F8
3FC3FC
7F83FC
7F83FC
7F87FC
FF87FC
FF87F8
7F87F8
7F0FF8
7F8FF0
7F9FF0
3FFFE0
1FFF80
07FE00
03C000
078000
0F0000
1F0000
1F1000
1FF000
1FF000
0FC000
ENDCHAR
STARTCHAR 01F1
ENCODING 497
SWIDTH 1191 0
DWIDTH 48 0
BBX 49 26 0 0
BITMAP
07FFF007FFFF80
07FFFE07FFFF80
07FFFF07FFFF80
07F87F8003FF80
0FF83F8007FF00
0FF83F8007FE00
0FF83FC00FFE00
0FF83FC01FFC00
0FF07FC01FF800
1FF07FC03FF800
1FF07FC07FF000
1FF07FC07FE000
1FE07FC0FFE000
1FE07FC1FFC000
3FE0FFC1FF8000
3FE0FF83FF8000
3FE0FF87FF0000
3FC0FF87FE0000
3FC1FF0FFE0000
7FC1FF1FFC0000
7FC3FE1FF80000
7FC3FC3FF80000
7F87F87FF00000
7FFFF07FFFFC00
FFFFE07FFFFC00
FFFF007FFFFC00
ENDCHAR
STARTCHAR 01F2
ENCODING 498
SWIDTH 1117 0
DWIDTH 45 0
BBX 45 26 0 0
BITMAP
07FFF0000000
07FFFE000000
07FFFF000000
07F87F800000
0FF83F800000
0FF83F800000
0FF83FC00000
0FF83FC00000
0FF07FCFFFF8
1FF07FCFFFF8
1FF07FCFFFF8
1FF07FC01FF0
1FE07FC01FE0
1FE07FC03FE0
3FE0FFC07FC0
3FE0FF80FF80
3FE0FF81FF00
3FC0FF83FE00
3FC1FF07FC00
7FC1FF0FF800
7FC3FE1FF800
7FC3FC3FF000
7F87F83FE000
7FFFF07FFFE0
FFFFE07FFFE0
FFFF007FFFE0
ENDCHAR
STARTCHAR 01F3
ENCODING 499
SWIDTH 1067 0
DWIDTH 43 0
BBX 43 28 0 0
BITMAP
00007F800000
0000FF800000
0000FF000000
0000FF000000
0000FF000000
0000FF000000
0001FF000000
0001FE000000
0001FE000000
0001FE000000
03F3FE3FFFE0
0FFBFE7FFFC0
1FFFFC7FFFC0
1FFFFC007FC0
3FC7FC00FF80
3FC7FC01FF00
7F87FC03FE00
7F87F807FC00
7F87F80FF800
FF87F81FF000
FF8FF83FF000
FF0FF03FE000
FF0FF07FC000
FF1FF0FF8000
FFFFF1FF0000
7FFFF1FFFF00
3FCFE3FFFF00
1F8FE3FFFF00
ENDCHAR
STARTCHAR 01FA
ENCODING 506
SWIDTH 595 0
DWIDTH 24 0
BBX 25 40 -2 0
BITMAP
00000F80
00001F00
00001E00
00003C00
00007800
00007000
0000E000
0001F000
0003F800
00033800
00033800
0003F800
0003F000
0001E000
000FF800
001FFC00
001FFC00
003FFC00
003FFC00
007FFC00
007FFC00
0077FC00
00F7FC00
00E7FC00
01E7FC00
01E7FE00
03C3FE00
03C3FE00
0783FE00
0783FE00
0F03FE00
0FFFFE00
0FFFFE00
1FFFFE00
1E03FF00
3C03FF00
3C03FF00
7801FF00
7801FF00
F001FF00
ENDCHAR
STARTCHAR 01FB
ENCODING 507
SWIDTH 546 0
DWIDTH 22 0
BBX 24 35 -1 0
BITMAP
00007F
0000FC
0001F8
0001F0
0003E0
0003C0
000700
000000
000F00
001F80
003F80
003980
003980
003F80
001F00
000E00
000000
00FF80
07FFF0
0FFFF8
0FC3F8
1F83F8
0003FC
0003FC
07FFF8
1FFFF8
3FC7F8
7F87F8
7F07F8
FF0FF8
FF0FF0
7FFFF0
7FFFF0
3FE7F0
1F07E0
ENDCHAR
STARTCHAR 01FC
ENCODING 508
SWIDTH 819 0
DWIDTH 33 0
BBX 37 34 -2 0
BITMAP
0000000FF0
0000000FC0
0000001F00
0000003E00
0000003C00
0000007000
0000000000
0000000000
00003FFFF8
00007FFFF0
00007FFFF0
0000FFF000
0001FFF000
0001DFE000
0003BFE000
00073FE000
000F3FE000
000E3FE000
001C3FC000
003C7FFF80
00787FFF80
00707FFF80
00F07F8000
01FFFF8000
03FFFF8000
03FFFF8000
0780FF8000
0F00FF0000
0E01FF0000
1E01FF0000
3C01FF0000
7801FFFF00
7001FFFF00
F003FFFE00
ENDCHAR
STARTCHAR 01FD
ENCODING 509
SWIDTH 819 0
DWIDTH 33 0
BBX 33 26 0 0
BITMAP
00001FC000
00001F8000
00003F0000
00007C0000
0000780000
0000F00000
0000000000
0000000000
03FF0FF800
1FFFFFFE00
1FFFFFFF00
1F8FFE7F00
3F0FFC7F80
000FF87F80
000FF87F00
0FFFF87F00
3FFFFFFF00
7F0FFFFF00
FE1FF00000
FE1FF00000
FE1FF0FE00
FE3FF0FE00
FFFFF1FC00
FFF7FFFC00
7FE1FFF800
3F007FC000
ENDCHAR
STARTCHAR 01FE
ENCODING 510
SWIDTH 670 0
DWIDTH 27 0
BBX 26 36 1 -1
BITMAP
00003F80
00007E00
00007C00
0000F800
0001F000
0001E000
00038000
00000000
00000100
001FF380
00FFFF80
03FFFF00
07FC7F00
0FF87F80
1FF07F80
1FF07FC0
3FE0FFC0
3FE1FFC0
7FE1FFC0
7FC3FFC0
7FC77FC0
7FCE7FC0
FFDEFFC0
FFFCFFC0
FFF8FF80
FFF0FF80
FFE1FF80
7FC1FF00
7F81FF00
7F83FE00
7F87FC00
3FC7FC00
3FFFF000
7FFFE000
73FF0000
20000000
ENDCHAR
STARTCHAR 01FF
ENCODING 511
SWIDTH 571 0
DWIDTH 23 0
BBX 22 27 0 -1
BITMAP
0003F8
0007E0
0007C0
000F80
001F00
001E00
000000
000020
00FFF0
03FFE0
0FFFF0
1FE7F8
3FC3F8
7FC7FC
7F8FFC
7F9FFC
7FBFFC
FFB7FC
FFE7F8
7FE7F8
7FCFF8
7F8FF0
7F9FF0
3FFFE0
1FFF80
1FFC00
180000
ENDCHAR
STARTCHAR 0218
ENCODING 536
SWIDTH 571 0
DWIDTH 23 0
BBX 24 37 0 -11
BITMAP
001FF0
00FFFE
03FFFF
07F1FF
0FE0FE
1FE0FE
1FE0FE
1FE0FE
1FE000
1FF800
1FFF80
1FFFF0
1FFFF8
0FFFFC
03FFFC
00FFFC
001FFC
0007FC
7F03FC
7F03FC
7F03FC
FF07F8
FF8FF0
FFFFE0
7FFFC0
0FFE00
000000
000000
00F000
01F000
01F800
01F800
00F000
00F000
00E000
03C000
010000
ENDCHAR
STARTCHAR 0219
ENCODING 537
SWIDTH 471 0
DWIDTH 19 0
BBX 19 29 -1 -11
BITMAP
00FF00
07FFE0
0FFFE0
1FE7E0
1FC7E0
3FC7E0
3FE000
3FFE00
1FFF80
0FFFC0
07FFE0
00FFE0
003FE0
7E1FE0
7E3FC0
7FFFC0
FFFF00
1FFC00
000000
000000
03C000
07E000
07E000
03E000
01E000
01C000
038000
070000
060000
ENDCHAR
STARTCHAR 021A
ENCODING 538
SWIDTH 546 0
DWIDTH 22 0
BBX 22 38 3 -12
BITMAP
FFFFFC
FFFFFC
FFFFF8
03FE00
03FE00
03FC00
03FC00
07FC00
07FC00
07FC00
07F800
0FF800
0FF800
0FF800
0FF800
0FF000
1FF000
1FF000
1FF000
1FE000
1FE000
3FE000
3FE000
3FE000
3FC000
3FC000
000000
000000
040000
1F0000
3F0000
3F0000
1F0000
0E0000
1E0000
1C0000
300000
200000
ENDCHAR
STARTCHAR 021B
ENCODING 539
SWIDTH 397 0
DWIDTH 16 0
BBX 15 35 1 -12
BITMAP
0078
00F8
01F8
03F0
1FF0
7FFE
7FFE
FFFE
1FE0
1FE0
1FE0
1FE0
3FE0
3FC0
3FC0
3FC0
3FC0
7FC0
7FC0
7FC0
3FF0
3FF0
0FF0
0000
0000
0800
3E00
3F00
3F00
1E00
1E00
1C00
3800
7000
2000
ENDCHAR
STARTCHAR 0237
ENCODING 567
SWIDTH 297 0
DWIDTH 12 0
BBX 15 25 -4 -7
BITMAP
01FE
01FE
01FE
01FE
03FE
03FC
03FC
03FC
07FC
07FC
07F8
07F8
07F8
0FF8
0FF0
0FF0
0FF0
0FF0
1FF0
1FE0
1FE0
3FC0
FF80
FE00
F800
ENDCHAR
STARTCHAR 0259
ENCODING 601
SWIDTH 546 0
DWIDTH 22 0
BBX 21 18 0 0
BITMAP
03FE00
1FFFC0
3FFFE0
3FCFF0
3F87F0
3F07F8
0007F8
0007F8
7FFFF8
FFFFF8
FE0FF0
FE0FF0
FE1FF0
FE1FE0
FE3FC0
7FFF80
3FFF00
0FF800
ENDCHAR
STARTCHAR 02BC
ENCODING 700
SWIDTH 322 0
DWIDTH 13 0
BBX 8 10 5 17
BITMAP
1C
7E
7F
7F
7E
3E
1C
3C
78
E0
ENDCHAR
STARTCHAR 02C6
ENCODING 710
SWIDTH 422 0
DWIDTH 17 0
BBX 15 6 1 20
BITMAP
07F0
0FF8
1F78
3E3C
7C1C
F00E
ENDCHAR
STARTCHAR 02C7
ENCODING 711
SWIDTH 422 0
DWIDTH 17 0
BBX 15 6 1 20
BITMAP
F01E
703C
78F8
3DF0
1FE0
1FC0
ENDCHAR
STARTCHAR 02D8
ENCODING 728
SWIDTH 372 0
DWIDTH 15 0
BBX 13 6 1 20
BITMAP
0010
C038
E070
7FF0
7FC0
1F80
ENDCHAR
STARTCHAR 02D9
ENCODING 729
SWIDTH 248 0
DWIDTH 10 0
BBX 8 7 1 19
BITMAP
3E
7F
FF
FF
FF
FE
3C
ENDCHAR
STARTCHAR 02DA
ENCODING 730
SWIDTH 248 0
DWIDTH 10 0
BBX 8 8 1 19
BITMAP
1C
7E
7F
67
E7
7E
7E
38
ENDCHAR
STARTCHAR 02DB
ENCODING 731
SWIDTH 248 0
DWIDTH 10 0
BBX 9 9 1 -8
BITMAP
0F80
3E00
7C00
F800
F800
F880
FF80
FF00
7C00
ENDCHAR
STARTCHAR 02DC
ENCODING 732
SWIDTH 446 0
DWIDTH 18 0
BBX 16 5 1 21
BITMAP
1F83
3FFF
7FFE
FFFC
41F8
ENDCHAR
STARTCHAR 02DD
ENCODING 733
SWIDTH 595 0
DWIDTH 24 0
BBX 21 6 1 20
BITMAP
07F3F8
0FC7E0
1F8FC0
3E0F80
3C1E00
F83C00
ENDCHAR
STARTCHAR 03BC
ENCODING 956
SWIDTH 595 0
DWIDTH 24 0
BBX 25 25 -2 -7
BITMAP
07F87F80
07F87F80
07F87F80
07F8FF80
0FF0FF00
0FF0FF00
0FF0FF00
0FF0FF00
1FF1FF00
1FE1FE00
1FE1FE00
1FE1FE00
1FE1FE00
3FE3FC00
3FFFFC00
3FFFFC00
3FF9FC00
3F71FC00
7F000000
7F000000
7F000000
7F000000
7F000000
FF000000
FF000000
ENDCHAR
STARTCHAR 1E0C
ENCODING 7692
SWIDTH 645 0
DWIDTH 26 0
BBX 26 35 0 -9
BITMAP
07FFF000
07FFFE00
07FFFF00
07F87F80
0FF83F80
0FF83F80
0FF83FC0
0FF83FC0
0FF07FC0
1FF07FC0
1FF07FC0
1FF07FC0
1FE07FC0
1FE07FC0
3FE0FFC0
3FE0FF80
3FE0FF80
3FC0FF80
3FC1FF00
7FC1FF00
7FC3FE00
7FC3FC00
7F87F800
7FFFF000
FFFFE000
FFFF0000
00000000
00000000
00000000
01E00000
03F00000
07F00000
07F00000
07E00000
03C00000
ENDCHAR
STARTCHAR 1E0D
ENCODING 7693
SWIDTH 571 0
DWIDTH 23 0
BBX 25 36 0 -9
BITMAP
00007F80
0000FF80
0000FF00
0000FF00
0000FF00
0001FF00
0001FE00
0001FE00
0001FE00
03F1FE00
0FFBFE00
1FFFFC00
1FFFFC00
3FE7FC00
3FC3FC00
7F87FC00
7F87F800
7F87F800
FF87F800
FF8FF800
FF0FF800
FF0FF000
FF1FF000
FFFFF000
7FFFF000
3FCFE000
1F8FE000
00000000
00000000
00000000
00F00000
03F00000
03F80000
03F80000
03F00000
01E00000
ENDCHAR
STARTCHAR 1E24
ENCODING 7716
SWIDTH 670 0
DWIDTH 27 0
BBX 28 35 0 -9
BITMAP
07FC1FF0
07FC1FE0
07FC3FE0
07F83FE0
0FF83FE0
0FF83FE0
0FF83FC0
0FF87FC0
0FF07FC0
1FF07FC0
1FF07F80
1FFFFF80
1FFFFF80
1FFFFF80
3FE0FF80
3FE0FF00
3FE1FF00
3FC1FF00
3FC1FF00
7FC1FF00
7FC1FE00
7FC3FE00
7F83FE00
7F83FE00
FF83FE00
FF83FC00
00000000
00000000
00000000
00F00000
01F80000
03F80000
03F80000
01F80000
01E00000
ENDCHAR
STARTCHAR 1E25
ENCODING 7717
SWIDTH 571 0
DWIDTH 23 0
BBX 22 36 0 -9
BITMAP
07F800
07F800
07F800
07F800
0FF800
0FF000
0FF000
0FF000
1FF000
1FE1F0
1FE7F8
1FEFFC
1FFFFC
3FE3FC
3FC3FC
3FC3FC
3FC3FC
3FC7FC
7FC7F8
7F87F8
7F87F8
7F87F8
7F8FF8
FF8FF0
FF0FF0
FF0FF0
FF1FF0
000000
000000
000000
01E000
03F000
07F000
07F000
07E000
03C000
ENDCHAR
STARTCHAR 1E44
ENCODING 7748
SWIDTH 645 0
DWIDTH 26 0
BBX 27 34 0 0
BITMAP
0000F000
0003F800
0003FC00
0007FC00
0007F800
0003F800
0001E000
00000000
07FE01E0
07FE01C0
07FF01C0
07FF03C0
0FFF03C0
0FFF03C0
0FFF0380
0EFF8380
0EFF8780
1EFF8780
1EFF8780
1E7F8700
1C7FC700
1C7FCF00
3C7FCF00
3C7FCF00
3C3FEE00
383FFE00
383FFE00
783FFE00
781FFC00
781FFC00
701FFC00
701FFC00
F00FFC00
F00FF800
ENDCHAR
STARTCHAR 1E45
ENCODING 7749
SWIDTH 571 0
DWIDTH 23 0
BBX 22 26 0 0
BITMAP
000F00
001FC0
003FC0
003FC0
003FC0
003F80
001F00
000000
1FC1F0
1FCFF8
1FDFFC
1FFFFC
3FE3FC
3FC3FC
3FC3FC
3FC3FC
7FC7FC
7FC7F8
7F87F8
7F87F8
7F87F8
FF8FF8
FF0FF0
FF0FF0
FF0FF0
FF1FF0
ENDCHAR
STARTCHAR 1E5A
ENCODING 7770
SWIDTH 620 0
DWIDTH 25 0
BBX 25 35 0 -9
BITMAP
07FFF800
07FFFE00
07FFFF00
07F87F00
0FF87F80
0FF87F80
0FF87F80
0FF87F80
0FF07F80
1FF0FF00
1FF0FF00
1FF1FE00
1FFFFC00
1FFFF000
3FFFF000
3FEFF000
3FEFF000
3FCFF800
3FC7F800
7FC7F800
7FC7FC00
7FC3FC00
7F83FE00
7F83FE00
FF83FE00
FF81FF00
00000000
00000000
00000000
00780000
00FC0000
01FC0000
01FC0000
00FC0000
00F00000
ENDCHAR
STARTCHAR 1E5B
ENCODING 7771
SWIDTH 471 0
DWIDTH 19 0
BBX 20 27 0 -9
BITMAP
1FC3F0
1FCFF0
1FDFE0
1FFFE0
3FFFE0
3FC7E0
3FC3E0
3FC3C0
7FC3C0
7FC000
7F8000
7F8000
7F8000
FF8000
FF0000
FF0000
FF0000
FF0000
000000
000000
000000
780000
FC0000
FC0000
FC0000
FC0000
780000
ENDCHAR
STARTCHAR 1E62
ENCODING 7778
SWIDTH 571 0
DWIDTH 23 0
BBX 24 35 0 -9
BITMAP
001FF0
00FFFE
03FFFF
07F1FF
0FE0FE
1FE0FE
1FE0FE
1FE0FE
1FE000
1FF800
1FFF80
1FFFF0
1FFFF8
0FFFFC
03FFFC
00FFFC
001FFC
0007FC
7F03FC
7F03FC
7F03FC
FF07F8
FF8FF0
FFFFE0
7FFFC0
0FFE00
000000
000000
000000
01E000
07E000
07F000
07F000
07E000
03C000
ENDCHAR
STARTCHAR 1E63
ENCODING 7779
SWIDTH 471 0
DWIDTH 19 0
BBX 19 27 -1 -9
BITMAP
00FF00
07FFE0
0FFFE0
1FE7E0
1FC7E0
3FC7E0
3FE000
3FFE00
1FFF80
0FFFC0
07FFE0
00FFE0
003FE0
7E1FE0
7E3FC0
7FFFC0
FFFF00
1FFC00
000000
000000
000000
078000
0FC000
0FC000
0FC000
0FC000
078000
ENDCHAR
STARTCHAR 1E6C
ENCODING 7788
SWIDTH 546 0
DWIDTH 22 0
BBX 22 35 3 -9
BITMAP
FFFFFC
FFFFFC
FFFFF8
03FE00
03FE00
03FC00
03FC00
07FC00
07FC00
07FC00
07F800
0FF800
0FF800
0FF800
0FF800
0FF000
1FF000
1FF000
1FF000
1FE000
1FE000
3FE000
3FE000
3FE000
3FC000
3FC000
000000
000000
000000
1E0000
3F0000
7F0000
7F0000
3F0000
3C0000
ENDCHAR
STARTCHAR 1E6D
ENCODING 7789
SWIDTH 397 0
DWIDTH 16 0
BBX 15 32 1 -9
BITMAP
0078
00F8
01F8
03F0
1FF0
7FFE
7FFE
FFFE
1FE0
1FE0
1FE0
1FE0
3FE0
3FC0
3FC0
3FC0
3FC0
7FC0
7FC0
7FC0
3FF0
3FF0
0FF0
0000
0000
0000
0F00
1F80
3F80
3F80
3F00
1E00
ENDCHAR
STARTCHAR 1E80
ENCODING 7808
SWIDTH 943 0
DWIDTH 38 0
BBX 37 34 3 0
BITMAP
0007F00000
0001F80000
0000F80000
00007C0000
00001E0000
00000F0000
0000000000
0000000000
FFC07F8078
FFC07F80F8
FFC0FF80F0
FFC0FF80F0
FFC0FF81E0
FFC1FF81E0
7FC1FFC3E0
7FC3FFC3C0
7FC3FFC3C0
7FC3FFC7C0
7FC7FFC780
7FC7FFC780
7FC7FFCF00
7FCFBFCF00
7FCF3FDF00
7FDF3FDE00
7FFE3FDE00
7FFE3FFC00
7FFC3FFC00
7FFC3FFC00
7FFC3FF800
3FF83FF800
3FF83FF800
3FF03FF000
3FF03FF000
3FF03FE000
ENDCHAR
STARTCHAR 1E81
ENCODING 7809
SWIDTH 819 0
DWIDTH 33 0
BBX 33 26 1 0
BITMAP
003F800000
000FC00000
0007E00000
0001F00000
0000F00000
0000780000
0000000000
0000000000
FF81FE0780
7F83FE0F80
7F83FE0F00
7F83FE0F00
7F87FE1E00
7F87FE1E00
7FC7FE3C00
7FCFFF3C00
3FCFFF3800
3FDFFF7800
3FDEFF7800
3FDCFFF000
3FFCFFF000
3FF8FFE000
3FF8FFE000
1FF0FFC000
1FF07FC000
1FF07F8000
ENDCHAR
STARTCHAR 1E82
ENCODING 7810
SWIDTH 943 0
DWIDTH 38 0
BBX 37 34 3 0
BITMAP
000001FC00
000003F000
000003E000
000007C000
00000F0000
00000E0000
0000000000
0000000000
FFC07F8078
FFC07F80F8
FFC0FF80F0
FFC0FF80F0
FFC0FF81E0
FFC1FF81E0
7FC1FFC3E0
7FC3FFC3C0
7FC3FFC3C0
7FC3FFC7C0
7FC7FFC780
7FC7FFC780
7FC7FFCF00
7FCFBFCF00
7FCF3FDF00
7FDF3FDE00
7FFE3FDE00
7FFE3FFC00
7FFC3FFC00
7FFC3FFC00
7FFC3FF800
3FF83FF800
3FF83FF800
3FF03FF000
3FF03FF000
3FF03FE000
ENDCHAR
STARTCHAR 1E83
ENCODING 7811
SWIDTH 819 0
DWIDTH 33 0
BBX 33 26 1 0
BITMAP
00000FE000
00000FC000
00001F0000
00003E0000
00003C0000
0000780000
0000000000
0000000000
FF81FE0780
7F83FE0F80
7F83FE0F00
7F83FE0F00
7F87FE1E00
7F87FE1E00
7FC7FE3C00
7FCFFF3C00
3FCFFF3800
3FDFFF7800
3FDEFF7800
3FDCFFF000
3FFCFFF000
3FF8FFE000
3FF8FFE000
1FF0FFC000
1FF07FC000
1FF07F8000
ENDCHAR
STARTCHAR 1E84
ENCODING 7812
SWIDTH 943 0
DWIDTH 38 0
BBX 37 34 3 0
BITMAP
0000F07800
0000F8F800
0001F8FC00
0001F8FC00
0001F8F800
0000F07000
0000000000
0000000000
FFC07F8078
FFC07F80F8
FFC0FF80F0
FFC0FF80F0
FFC0FF81E0
FFC1FF81E0
7FC1FFC3E0
7FC3FFC3C0
7FC3FFC3C0
7FC3FFC7C0
7FC7FFC780
7FC7FFC780
7FC7FFCF00
7FCFBFCF00
7FCF3FDF00
7FDF3FDE00
7FFE3FDE00
7FFE3FFC00
7FFC3FFC00
7FFC3FFC00
7FFC3FF800
3FF83FF800
3FF83FF800
3FF03FF000
3FF03FF000
3FF03FE000
ENDCHAR
STARTCHAR 1E85
ENCODING 7813
SWIDTH 819 0
DWIDTH 33 0
BBX 33 26 1 0
BITMAP
0003C3C000
0007C7E000
0007E7E000
000FC7E000
0007C7E000
000783C000
0000000000
0000000000
FF81FE0780
7F83FE0F80
7F83FE0F00
7F83FE0F00
7F87FE1E00
7F87FE1E00
7FC7FE3C00
7FCFFF3C00
3FCFFF3800
3FDFFF7800
3FDEFF7800
3FDCFFF000
3FFCFFF000
3FF8FFE000
3FF8FFE000
1FF0FFC000
1FF07FC000
1FF07F8000
ENDCHAR
STARTCHAR 1E92
ENCODING 7826
SWIDTH 546 0
DWIDTH 22 0
BBX 24 35 -1 -9
BITMAP
0FFFFF
0FFFFF
0FFFFF
0003FF
0007FE
000FFE
000FFC
001FF8
003FF8
007FF0
007FE0
00FFE0
01FFC0
01FF80
03FF80
07FF00
07FE00
0FFE00
1FFC00
1FF800
3FF800
7FF000
7FE000
7FFFF8
FFFFF8
FFFFF8
000000
000000
000000
00F000
01F800
03F800
03F800
01F800
00F000
ENDCHAR
STARTCHAR 1E93
ENCODING 7827
SWIDTH 471 0
DWIDTH 19 0
BBX 20 27 -1 -9
BITMAP
1FFFF0
1FFFF0
1FFFF0
003FE0
007FC0
00FF80
00FF80
01FF00
03FE00
07FC00
0FF800
1FF000
3FF000
7FE000
FFC000
FFFFC0
FFFFC0
FFFFC0
000000
000000
000000
03C000
07E000
0FE000
0FE000
07E000
078000
ENDCHAR
STARTCHAR 1EB8
ENCODING 7864
SWIDTH 496 0
DWIDTH 20 0
BBX 22 35 0 -9
BITMAP
07FFFC
07FFFC
07FFFC
07F800
0FF800
0FF800
0FF800
0FF800
0FF000
1FF000
1FF000
1FFFE0
1FFFC0
1FFFC0
3FE000
3FE000
3FE000
3FC000
3FC000
7FC000
7FC000
7FC000
7F8000
7FFF80
FFFF80
FFFF80
000000
000000
000000
03C000
07E000
0FE000
0FE000
0FC000
078000
ENDCHAR
STARTCHAR 1EB9
ENCODING 7865
SWIDTH 546 0
DWIDTH 22 0
BBX 21 27 0 -9
BITMAP
00FF80
03FFF0
0FFFF0
1FE3F8
3FC3F8
7FC3F8
7FC3F8
7F83F8
7FFFF8
FFFFF0
FF8000
FF8000
7F07F0
7F0FE0
7F9FE0
3FFFE0
1FFFC0
03FE00
000000
000000
000000
01E000
03F000
07F000
07F000
03F000
03C000
ENDCHAR
STARTCHAR 1EBC
ENCODING 7868
SWIDTH 496 0
DWIDTH 20 0
BBX 23 34 0 0
BITMAP
003E06
00FFFC
01FFFC
01FFF8
0303F0
000000
000000
000000
07FFFC
07FFFC
07FFFC
07F800
0FF800
0FF800
0FF800
0FF800
0FF000
1FF000
1FF000
1FFFE0
1FFFC0
1FFFC0
3FE000
3FE000
3FE000
3FC000
3FC000
7FC000
7FC000
7FC000
7F8000
7FFF80
FFFF80
FFFF80
ENDCHAR
STARTCHAR 1EBD
ENCODING 7869
SWIDTH 546 0
DWIDTH 22 0
BBX 22 26 0 0
BITMAP
007E0C
00FFFC
01FFF8
03FFF0
0307E0
000000
000000
000000
00FF80
03FFF0
0FFFF0
1FE3F8
3FC3F8
7FC3F8
7FC3F8
7F83F8
7FFFF8
FFFFF0
FF8000
FF8000
7F07F0
7F0FE0
7F9FE0
3FFFE0
1FFFC0
03FE00
ENDCHAR
STARTCHAR 1ECA
ENCODING 7882
SWIDTH 322 0
DWIDTH 13 0
BBX 14 35 0 -9
BITMAP
07FC
07FC
07FC
07F8
0FF8
0FF8
0FF8
0FF8
0FF0
1FF0
1FF0
1FF0
1FE0
1FE0
3FE0
3FE0
3FE0
3FC0
3FC0
7FC0
7FC0
7FC0
7F80
7F80
FF80
FF80
0000
0000
0000
7800
FC00
FE00
FC00
FC00
7800
ENDCHAR
STARTCHAR 1ECB
ENCODING 7883
SWIDTH 297 0
DWIDTH 12 0
BBX 13 35 -1 -9
BITMAP
01F0
03F8
07F8
07F8
07F8
03F8
01E0
0000
0FF0
0FF0
0FF0
0FF0
1FF0
1FE0
1FE0
1FE0
3FE0
3FC0
3FC0
3FC0
3FC0
7FC0
7F80
7F80
7F80
7F80
0000
0000
0000
3C00
7E00
FE00
FE00
FC00
7800
ENDCHAR
STARTCHAR 1ECC
ENCODING 7884
SWIDTH 670 0
DWIDTH 27 0
BBX 26 35 1 -9
BITMAP
001FF000
00FFFC00
03FFFF00
07FC7F00
0FF87F80
1FF07F80
1FF07FC0
3FE07FC0
3FE07FC0
7FE07FC0
7FC07FC0
7FC07FC0
7FC07FC0
FFC0FFC0
FFC0FFC0
FF80FF80
FF80FF80
FF81FF80
7F81FF00
7F83FF00
7F83FE00
7F87FC00
3FC7F800
1FFFF000
0FFFE000
03FF0000
00000000
00000000
00000000
00E00000
03F00000
03F80000
03F80000
03F00000
01E00000
ENDCHAR
STARTCHAR 1ECD
ENCODING 7885
SWIDTH 571 0
DWIDTH 23 0
BBX 22 27 0 -9
BITMAP
00FF80
07FFE0
0FFFF0
1FE7F8
3FC3F8
3FC3FC
7F83FC
7F83FC
7F87FC
FF87FC
FF87F8
7F87F8
7F0FF8
7F8FF0
7F9FF0
3FFFE0
1FFF80
07FC00
000000
000000
000000
03C000
07E000
07E000
07E000
07E000
03C000
ENDCHAR
STARTCHAR 1EE4
ENCODING 7908
SWIDTH 620 0
DWIDTH 25 0
BBX 25 35 1 -9
BITMAP
0FF80380
0FF80780
0FF80780
1FF00780
1FF00780
1FF00700
1FF00F00
1FF00F00
3FE00F00
3FE00E00
3FE00E00
3FE01E00
7FE01E00
7FC01E00
7FC01C00
7FC01C00
7FC03C00
7F803C00
FF803800
FF807800
FFC07800
7FE1F000
7FFFE000
3FFFC000
1FFF8000
07FC0000
00000000
00000000
00000000
01E00000
03F00000
03F00000
03F00000
03F00000
01E00000
ENDCHAR
STARTCHAR 1EE5
ENCODING 7909
SWIDTH 571 0
DWIDTH 23 0
BBX 23 27 0 -9
BITMAP
1FE1FE
1FE1FE
1FE3FE
3FC3FC
3FC3FC
3FC3FC
3FC3FC
3FC7FC
7F87F8
7F87F8
7F87F8
7F87F8
FF8FF8
FF8FF0
7FFFF0
7FFFF0
3FE7F0
1F07F0
000000
000000
000000
01E000
03F000
03F000
03F000
03F000
01E000
ENDCHAR
STARTCHAR 1EF2
ENCODING 7922
SWIDTH 571 0
DWIDTH 23 0
BBX 23 34 3 0
BITMAP
0FF000
03F000
00F800
007C00
003E00
000F00
000000
000000
FFC03E
7FC03C
7FC078
7FE0F8
7FE0F0
3FE1E0
3FE1E0
3FF3C0
3FF780
1FF780
1FFF00
1FFF00
1FFE00
0FFC00
0FFC00
0FF800
0FF800
0FF000
1FF000
1FF000
1FF000
1FE000
1FE000
3FE000
3FE000
3FE000
ENDCHAR
STARTCHAR 1EF3
ENCODING 7923
SWIDTH 521 0
DWIDTH 21 0
BBX 25 33 -3 -7
BITMAP
00FE0000
003F0000
001F8000
00078000
0003C000
0001E000
00000000
00000000
07F80F80
07F80F00
07F81E00
07F81E00
07F83C00
07FC3C00
07FC7800
03FC7800
03FCF000
03FCF000
03FDE000
03FDE000
03FFC000
03FFC000
03FF8000
01FF8000
01FF0000
01FF0000
01FE0000
01FC0000
01FC0000
03F80000
7FF00000
7FE00000
FF000000
ENDCHAR
STARTCHAR 1EF8
ENCODING 7928
SWIDTH 571 0
DWIDTH 23 0
BBX 23 34 3 0
BITMAP
003E06
00FFFC
00FFFC
01FFF8
0383F0
000000
000000
000000
FFC03E
7FC03C
7FC078
7FE0F8
7FE0F0
3FE1E0
3FE1E0
3FF3C0
3FF780
1FF780
1FFF00
1FFF00
1FFE00
0FFC00
0FFC00
0FF800
0FF800
0FF000
1FF000
1FF000
1FF000
1FE000
1FE000
3FE000
3FE000
3FE000
ENDCHAR
STARTCHAR 1EF9
ENCODING 7929
SWIDTH 521 0
DWIDTH 21 0
BBX 25 33 -3 -7
BITMAP
000F0100
003FE380
003FFF00
007FFF00
00E3FE00
00407800
00000000
00000000
07F80F80
07F80F00
07F81E00
07F81E00
07F83C00
07FC3C00
07FC7800
03FC7800
03FCF000
03FCF000
03FDE000
03FDE000
03FFC000
03FFC000
03FF8000
01FF8000
01FF0000
01FF0000
01FE0000
01FC0000
01FC0000
03F80000
7FF00000
7FE00000
FF000000
ENDCHAR
STARTCHAR 2013
ENCODING 8211
SWIDTH 595 0
DWIDTH 24 0
BBX 21 4 1 7
BITMAP
7FFFF8
7FFFF8
FFFFF8
FFFFF0
ENDCHAR
STARTCHAR 2014
ENCODING 8212
SWIDTH 868 0
DWIDTH 35 0
BBX 32 4 1 7
BITMAP
7FFFFFFF
7FFFFFFF
FFFFFFFE
FFFFFFFE
ENDCHAR
STARTCHAR 2018
ENCODING 8216
SWIDTH 273 0
DWIDTH 11 0
BBX 9 13 3 15
BITMAP
0100
0780
0F00
1E00
3C00
7C00
7C00
FE00
FF00
FF00
FF00
7E00
3C00
ENDCHAR
STARTCHAR 2019
ENCODING 8217
SWIDTH 273 0
DWIDTH 11 0
BBX 9 13 3 15
BITMAP
1F00
3F80
7F80
7F80
7F80
3F80
1F00
1F00
1E00
3C00
7800
F000
4000
ENDCHAR
STARTCHAR 201A
ENCODING 8218
SWIDTH 273 0
DWIDTH 11 0
BBX 9 13 -1 -6
BITMAP
1E00
3F00
7F80
7F80
7F80
3F80
1F00
1F00
1E00
3C00
7800
F000
4000
ENDCHAR
STARTCHAR 201C
ENCODING 8220
SWIDTH 521 0
DWIDTH 21 0
BBX 20 13 3 15
BITMAP
010020
0780F0
0F01E0
1E07C0
3C0780
7C0F80
7C1F80
FE1F80
FF1FC0
FF1FE0
FF1FE0
7E1FC0
3C0F80
ENDCHAR
STARTCHAR 201D
ENCODING 8221
SWIDTH 521 0
DWIDTH 21 0
BBX 20 13 3 15
BITMAP
1F03C0
3F8FE0
7F8FF0
7F8FF0
7F8FF0
3F87E0
1F03E0
1F03C0
1E07C0
3C0780
780F00
F01E00
400800
ENDCHAR
STARTCHAR 201E
ENCODING 8222
SWIDTH 546 0
DWIDTH 22 0
BBX 20 13 -1 -6
BITMAP
1E03C0
3F0FE0
7F8FE0
7F9FF0
7F8FF0
3F87E0
1F03E0
1F03C0
1E07C0
3C0780
781F00
F01C00
400800
ENDCHAR
STARTCHAR 2020
ENCODING 8224
SWIDTH 372 0
DWIDTH 15 0
BBX 13 35 2 -7
BITMAP
01E0
01E0
01C0
03C0
03C0
03C0
03C0
0380
0780
0780
FFF8
FFF8
FFF8
0F00
0F00
0F00
0F00
1E00
1E00
1E00
1E00
1C00
3C00
3C00
3C00
3C00
3800
7800
7800
7800
7800
7000
F000
F000
F000
ENDCHAR
STARTCHAR 2021
ENCODING 8225
SWIDTH 372 0
DWIDTH 15 0
BBX 15 35 0 -7
BITMAP
0078
0078
0078
00F0
00F0
00F0
00F0
00F0
01E0
01E0
1FFE
3FFE
3FFE
03C0
03C0
03C0
03C0
0380
0780
0780
0780
0780
FFF8
FFF8
FFF0
0F00
0F00
1E00
1E00
1E00
1E00
1E00
1C00
3C00
3C00
ENDCHAR
STARTCHAR 2022
ENCODING 8226
SWIDTH 347 0
DWIDTH 14 0
BBX 10 10 3 10
BITMAP
1E00
7F00
7F80
FF80
FFC0
FFC0
FF80
7F80
7F00
1E00
ENDCHAR
STARTCHAR 2026
ENCODING 8230
SWIDTH 893 0
DWIDTH 36 0
BBX 34 7 0 0
BITMAP
3E01E00F00
7F07F03F80
FF07F83F80
FF07F87FC0
FF07F87F80
FE07F03F80
3C03E01E00
ENDCHAR
STARTCHAR 2030
ENCODING 8240
SWIDTH 1042 0
DWIDTH 42 0
BBX 37 26 3 0
BITMAP
0F803C0000
3FE0780000
7DE0F80000
79E0F00000
F9E1E00000
F1E1E00000
F3E3C00000
F3C7800000
7F87800000
3E0F000000
001F000000
001E000000
003C000000
007C000000
0078000000
00F07803C0
00F1FE0FF0
01E3DE1E78
03E7CF3E78
03C79F3C78
07879F3C78
0F879F3CF8
0F079E3CF0
1F07BE3CF0
1E07FC3FE0
3C03F00F80
ENDCHAR
STARTCHAR 2039
ENCODING 8249
SWIDTH 322 0
DWIDTH 13 0
BBX 13 18 0 0
BITMAP
00F8
01F0
03E0
07C0
0FC0
0F80
1F00
3E00
7E00
FC00
7E00
3E00
3F00
1F00
1F00
0F80
0F80
07C0
ENDCHAR
STARTCHAR 203A
ENCODING 8250
SWIDTH 322 0
DWIDTH 13 0
BBX 13 18 -1 0
BITMAP
1F00
0F80
0F80
07C0
07C0
03E0
03E0
03F0
01F8
01F0
03F0
07E0
0FC0
0F80
1F00
3E00
7C00
F800
ENDCHAR
STARTCHAR 2044
ENCODING 8260
SWIDTH 99 0
DWIDTH 4 0
BBX 21 26 -8 0
BITMAP
0000F8
0000F0
0001E0
0001E0
0003C0
000780
000780
000F00
001E00
001E00
003C00
007C00
007800
00F000
00F000
01E000
03E000
03C000
078000
0F8000
0F0000
1E0000
3E0000
3C0000
7C0000
F80000
ENDCHAR
STARTCHAR 2070
ENCODING 8304
SWIDTH 297 0
DWIDTH 12 0
BBX 11 10 3 16
BITMAP
1F80
7FC0
79E0
F9E0
F1E0
F3E0
F3C0
F7C0
FF80
3E00
ENDCHAR
STARTCHAR 2074
ENCODING 8308
SWIDTH 273 0
DWIDTH 11 0
BBX 10 11 2 15
BITMAP
07C0
0FC0
1F80
3780
7780
6780
FFC0
FFC0
0F00
0F00
0F00
ENDCHAR
STARTCHAR 2075
ENCODING 8309
SWIDTH 248 0
DWIDTH 10 0
BBX 10 10 2 16
BITMAP
3FC0
3FC0
3000
7F80
77C0
03C0
F3C0
F780
FF80
3E00
ENDCHAR
STARTCHAR 2076
ENCODING 8310
SWIDTH 273 0
DWIDTH 11 0
BBX 10 10 3 16
BITMAP
1F80
3FC0
7B80
F000
FF80
F780
F780
E780
FF80
3E00
ENDCHAR
STARTCHAR 2077
ENCODING 8311
SWIDTH 223 0
DWIDTH 9 0
BBX 9 11 3 15
BITMAP
FF80
FF80
FF00
0E00
1C00
3C00
3800
7800
7800
7800
7800
ENDCHAR
STARTCHAR 2078
ENCODING 8312
SWIDTH 273 0
DWIDTH 11 0
BBX 10 10 2 16
BITMAP
1F80
3FC0
79C0
3FC0
3F80
7BC0
F3C0
F3C0
7F80
3E00
ENDCHAR
STARTCHAR 2079
ENCODING 8313
SWIDTH 273 0
DWIDTH 11 0
BBX 10 10 3 16
BITMAP
3F00
7F80
F3C0
F3C0
F7C0
7BC0
0780
E780
FF00
7C00
ENDCHAR
STARTCHAR 2080
ENCODING 8320
SWIDTH 297 0
DWIDTH 12 0
BBX 11 11 0 0
BITMAP
0F00
3FC0
7BC0
F9E0
F3E0
F3E0
F3C0
F3C0
F7C0
FF80
7E00
ENDCHAR
STARTCHAR 2081
ENCODING 8321
SWIDTH 173 0
DWIDTH 7 0
BBX 6 10 0 0
BITMAP
1C
7C
FC
78
78
78
78
F8
F0
F0
ENDCHAR
STARTCHAR 2082
ENCODING 8322
SWIDTH 273 0
DWIDTH 11 0
BBX 11 11 -1 0
BITMAP
1F80
3FC0
7BE0
73E0
03E0
03C0
0780
0F00
3FC0
FFC0
FFC0
ENDCHAR
STARTCHAR 2083
ENCODING 8323
SWIDTH 273 0
DWIDTH 11 0
BBX 11 11 -1 0
BITMAP
1F80
3FC0
79E0
79C0
07C0
0700
03C0
F3C0
F3C0
FF80
7F00
ENDCHAR
STARTCHAR 2084
ENCODING 8324
SWIDTH 273 0
DWIDTH 11 0
BBX 10 11 -1 0
BITMAP
07C0
0FC0
1F80
3780
7780
E780
FFC0
FFC0
0F00
0F00
1F00
ENDCHAR
STARTCHAR 2085
ENCODING 8325
SWIDTH 248 0
DWIDTH 10 0
BBX 10 10 -1 0
BITMAP
3FC0
3F80
7000
7F00
7F80
03C0
03C0
F780
FF80
7E00
ENDCHAR
STARTCHAR 2086
ENCODING 8326
SWIDTH 273 0
DWIDTH 11 0
BBX 11 11 -1 0
BITMAP
0FC0
1FE0
3DC0
7800
7B80
7FC0
FBC0
73C0
73C0
7F80
3F00
ENDCHAR
STARTCHAR 2087
ENCODING 8327
SWIDTH 223 0
DWIDTH 9 0
BBX 9 11 0 0
BITMAP
FF80
FF80
FF00
0E00
1C00
3C00
3800
7800
7800
F800
F000
ENDCHAR
STARTCHAR 2088
ENCODING 8328
SWIDTH 273 0
DWIDTH 11 0
BBX 10 11 -1 0
BITMAP
0F00
3FC0
79C0
7BC0
3F80
7F80
7BC0
F3C0
F3C0
7F80
3F00
ENDCHAR
STARTCHAR 2089
ENCODING 8329
SWIDTH 273 0
DWIDTH 11 0
BBX 11 11 -1 0
BITMAP
1F80
3FC0
79C0
79E0
7BE0
7FE0
3FC0
03C0
7380
7F80
FE00
ENDCHAR
STARTCHAR 20AC
ENCODING 8364
SWIDTH 595 0
DWIDTH 24 0
BBX 23 26 1 0
BITMAP
0003FC
001FFE
007FFE
00FF80
01FF00
03FE00
03FE00
07FC00
3FFFE0
3FFFC0
7FFFC0
0FF800
0FF800
0FF800
0FF800
FFFF80
FFFF80
FFFF80
0FF000
0FF000
0FF000
07F000
07F820
03FFE0
01FFF0
007FC0
ENDCHAR
STARTCHAR 2122
ENCODING 8482
SWIDTH 695 0
DWIDTH 28 0
BBX 24 9 5 16
BITMAP
FFBE3F
3C3F3F
3C7F7F
3C6F7E
7C6FFE
786FDE
786F9E
78EFBE
F8CF3C
ENDCHAR
STARTCHAR 2153
ENCODING 8531
SWIDTH 645 0
DWIDTH 26 0
BBX 22 26 2 0
BITMAP
0F00F8
3F00F0
3F01E0
5E03C0
1E03C0
1E0780
3E0780
3C0F00
3C1E00
3C1E00
003C00
007C00
007800
00F000
01F000
01E1F8
03C7FC
03C7BC
07873C
0F80F8
0F00F0
1E0078
3E0E7C
3C0E7C
7C1FF8
F807E0
ENDCHAR
STARTCHAR 2154
ENCODING 8532
SWIDTH 744 0
DWIDTH 30 0
BBX 24 26 3 0
BITMAP
1F801E
7FC03C
7BE078
73E078
03C0F0
0780F0
0E01E0
3FC3C0
FFC3C0
FF8780
000F80
000F00
001E00
003E00
003C00
00787E
0079FF
00F1E7
01F1C7
01E01F
03C01C
07C01F
0783CF
0F83DF
1F03FE
1E01F8
ENDCHAR
STARTCHAR 215B
ENCODING 8539
SWIDTH 645 0
DWIDTH 26 0
BBX 22 26 2 0
BITMAP
0F00F8
3F00F0
3F01E0
5E03E0
1E03C0
1E0780
1E0780
3C0F00
3C1E00
3C1E00
003C00
007C00
007800
00F000
00F000
01E040
03E3F8
03C7BC
0787BC
0F83F8
0F07F8
1E0F3C
3E0F3C
3C0F3C
7C0FF8
F803E0
ENDCHAR
STARTCHAR 215C
ENCODING 8540
SWIDTH 720 0
DWIDTH 29 0
BBX 23 26 3 0
BITMAP
1F803C
7FC078
7BC078
03C0F0
0F01E0
0781E0
F3C3C0
E7C7C0
FF8780
180F00
000F00
001E00
003C00
003C00
007800
00F810
00F1FE
01E1CE
03E3CE
03C1FE
07C1FE
0783DE
0F039E
1F039E
1E03FC
3C01F8
ENDCHAR
STARTCHAR 215D
ENCODING 8541
SWIDTH 695 0
DWIDTH 28 0
BBX 23 26 3 0
BITMAP
3F807C
7F8078
7000F0
7F01F0
7781E0
0783C0
E783C0
E78780
FF0F00
7C0F00
001E00
003E00
003C00
007800
007800
00F020
01F1FC
01E3DE
03C3DE
07C1FC
0783FC
0F079E
1F079E
1E079E
3E07FC
7C01F0
ENDCHAR
STARTCHAR 215E
ENCODING 8542
SWIDTH 670 0
DWIDTH 27 0
BBX 22 26 3 0
BITMAP
7FC0F8
7FC0F0
7F01E0
0E03C0
0E03C0
1C0780
3C0F80
3C0F00
381E00
781E00
783C00
007800
007800
00F000
01F000
01E040
03C3F8
07C7BC
07873C
0F83F8
0F07F8
1E0F3C
3E0F3C
3C0F78
780FF8
F803E0
ENDCHAR
STARTCHAR 2212
ENCODING 8722
SWIDTH 496 0
DWIDTH 20 0
BBX 17 4 2 11
BITMAP
7FFF80
7FFF80
FFFF80
FFFF00
ENDCHAR
STARTCHAR 2215
ENCODING 8725
SWIDTH 372 0
DWIDTH 15 0
BBX 20 25 -2 0
BITMAP
0000F0
0001E0
0003C0
0003C0
000780
000F00
000F00
001E00
003E00
003C00
007800
00F800
00F000
01E000
03E000
03C000
078000
078000
0F0000
1F0000
1E0000
3C0000
7C0000
780000
F00000
ENDCHAR
STARTCHAR 2219
ENCODING 8729
SWIDTH 273 0
DWIDTH 11 0
BBX 8 7 2 9
BITMAP
3E
FF
FF
FF
FF
FE
7C
ENDCHAR
STARTCHAR F6C3
ENCODING 63171
SWIDTH 223 0
DWIDTH 9 0
BBX 7 9 1 -11
BITMAP
08
3C
7E
7E
3C
3C
38
70
E0
ENDCHAR
STARTCHAR FB00
ENCODING 64256
SWIDTH 720 0
DWIDTH 29 0
BBX 34 28 1 0
BITMAP
0000007F80
001FF3FFC0
007FFFFFC0
01FFFFFF80
03FFFFE000
03FC1FE000
07F83FC000
07F83FC000
0FF03FC000
0FF07F8000
7FFFFFFC00
7FFFFFF800
FFFFFFF800
1FE0FF8000
1FE0FF0000
1FE0FF0000
1FE0FF0000
3FE0FF0000
3FC1FF0000
3FC1FE0000
3FC1FE0000
3FC1FE0000
7FC1FE0000
7F83FE0000
7F83FC0000
7F83FC0000
7F83FC0000
FF83FC0000
ENDCHAR
STARTCHAR FB01
ENCODING 64257
SWIDTH 670 0
DWIDTH 27 0
BBX 25 28 1 0
BITMAP
000FF800
007FFF00
00FFFF00
01FFFE00
03FE0600
07F80000
07F80000
0FF80000
0FF00000
0FF00000
7FFFFF80
7FFFFF80
FFFFFF80
1FE0FF80
1FE0FF00
1FE0FF00
1FE0FF00
3FE0FF00
3FC1FF00
3FC1FE00
3FC1FE00
3FC1FE00
7FC1FE00
7F83FE00
7F83FC00
7F83FC00
7F83FC00
FF87FC00
ENDCHAR
STARTCHAR FB02
ENCODING 64258
SWIDTH 670 0
DWIDTH 27 0
BBX 27 28 1 0
BITMAP
000FF800
007FFFE0
00FFFFE0
01FFFFE0
03FC3FE0
07F83FC0
07F83FC0
0FF83FC0
0FF03FC0
0FF07FC0
7FFE7F80
7FFE7F80
FFFE7F80
1FE07F80
1FE0FF80
1FE0FF00
1FE0FF00
3FE0FF00
3FC0FF00
3FC1FE00
3FC1FE00
3FC1FE00
7FC1FE00
7F83FE00
7F83FC00
7F83FC00
7F83FC00
FF83FC00
ENDCHAR
STARTCHAR FB03
ENCODING 64259
SWIDTH 993 0
DWIDTH 40 0
BBX 39 28 1 0
BITMAP
0000007FC0
001FF1FFF8
007FFFFFF8
01FFFFFFF8
03FFFFF070
03FC1FE010
07F83FC000
07F83FC000
0FF03FC000
0FF07F8000
7FFFFFFFFE
7FFFFFFFFC
FFFFFFFFFC
1FE0FF83FC
1FE0FF07FC
1FE0FF07F8
1FE0FF07F8
3FE0FF07F8
3FC1FF07F8
3FC1FE0FF8
3FC1FE0FF0
3FC1FE0FF0
7FC1FE0FF0
7F83FE0FF0
7F83FC1FF0
7F83FC1FE0
7F83FC1FE0
FF83FC1FE0
ENDCHAR
STARTCHAR FB04
ENCODING 64260
SWIDTH 993 0
DWIDTH 40 0
BBX 41 28 1 0
BITMAP
0000007FC000
001FF1FFFF80
007FFFFFFF00
01FFFFFFFF00
03FFFFE0FF00
03FC1FE1FF00
07F83FC1FE00
07F83FC1FE00
0FF03FC1FE00
0FF07F81FE00
7FFFFFFBFE00
7FFFFFF3FC00
FFFFFFF3FC00
1FE0FF83FC00
1FE0FF03FC00
1FE0FF07FC00
1FE0FF07F800
3FE0FF07F800
3FC1FF07F800
3FC1FE07F800
3FC1FE0FF800
3FC1FE0FF000
7FC1FE0FF000
7F83FE0FF000
7F83FC1FF000
7F83FC1FE000
7F83FC1FE000
FF83FC1FE000
ENDCHAR
STARTCHAR FB06
ENCODING 64262
SWIDTH 844 0
DWIDTH 34 0
BBX 36 28 -1 0
BITMAP
000007F800
00003FFF00
0000FFFF80
0001F01FC0
0003C00FC0
0007800FC0
0007800FC0
0007001F80
0007803F80
000380FF80
00FFC3FFF0
07FFE7FFF0
0FFFE7FFF0
1FE7E0FF00
1FC7E0FF00
3FC000FF00
3FE001FF00
3FFE01FE00
1FFF81FE00
0FFFC1FE00
07FFE1FE00
00FFE3FE00
003FE3FC00
7E1FE3FC00
7E3FC3FC00
7FFFC3FF80
FFFF01FF80
1FFC00FF80
ENDCHAR
ENDFONT
